ISO-10303-21;
HEADER;
FILE_DESCRIPTION(('FreeCAD Model'),'2;1');
FILE_NAME('Open CASCADE Shape Model','2026-10-02T14:06:52',(''),(''),
  'Open CASCADE STEP processor 8.0','FreeCAD','Unknown');
FILE_SCHEMA(('AUTOMOTIVE_DESIGN { 1 0 10303 214 1 1 1 1 }'));
ENDSEC;
DATA;
#1 = APPLICATION_PROTOCOL_DEFINITION('international standard',
  'automotive_design',2000,#2);
#2 = APPLICATION_CONTEXT(
  'core data for automotive mechanical design processes');
#3 = SHAPE_DEFINITION_REPRESENTATION(#4,#10);
#4 = PRODUCT_DEFINITION_SHAPE('','',#5);
#5 = PRODUCT_DEFINITION('design','',#6,#9);
#6 = PRODUCT_DEFINITION_FORMATION('','',#7);
#7 = PRODUCT('motor spacer 25mm','motor spacer 25mm','',(#8));
#8 = PRODUCT_CONTEXT('',#2,'mechanical');
#9 = PRODUCT_DEFINITION_CONTEXT('part definition',#2,'design');
#10 = ADVANCED_BREP_SHAPE_REPRESENTATION('',(#11,#15),#1551);
#11 = AXIS2_PLACEMENT_3D('',#12,#13,#14);
#12 = CARTESIAN_POINT('',(0.,0.,0.));
#13 = DIRECTION('',(0.,0.,1.));
#14 = DIRECTION('',(1.,0.,-0.));
#15 = MANIFOLD_SOLID_BREP('',#16);
#16 = CLOSED_SHELL('',(#17,#57,#90,#121,#152,#185,#210,#235,#266,#291,
    #437,#462,#608,#639,#656,#673,#706,#723,#754,#779,#804,#826,#850,
    #862,#887,#911,#929,#954,#979,#1004,#1029,#1046,#1077,#1102,#1127,
    #1149,#1173,#1185,#1210,#1234,#1252,#1277,#1302,#1327,#1352,#1369,
    #1386,#1408,#1420,#1437,#1454,#1471,#1483,#1500,#1517,#1534));
#17 = ADVANCED_FACE('',(#18),#52,.F.);
#18 = FACE_BOUND('',#19,.F.);
#19 = EDGE_LOOP('',(#20,#30,#38,#46));
#20 = ORIENTED_EDGE('',*,*,#21,.T.);
#21 = EDGE_CURVE('',#22,#24,#26,.T.);
#22 = VERTEX_POINT('',#23);
#23 = CARTESIAN_POINT('',(15.499916712186,21.,24.6));
#24 = VERTEX_POINT('',#25);
#25 = CARTESIAN_POINT('',(15.499916712186,21.,0.4));
#26 = LINE('',#27,#28);
#27 = CARTESIAN_POINT('',(15.499916712186,21.,25.));
#28 = VECTOR('',#29,1.);
#29 = DIRECTION('',(-0.,-0.,-1.));
#30 = ORIENTED_EDGE('',*,*,#31,.F.);
#31 = EDGE_CURVE('',#32,#24,#34,.T.);
#32 = VERTEX_POINT('',#33);
#33 = CARTESIAN_POINT('',(18.,21.,0.4));
#34 = LINE('',#35,#36);
#35 = CARTESIAN_POINT('',(18.,21.,0.4));
#36 = VECTOR('',#37,1.);
#37 = DIRECTION('',(-1.,0.,0.));
#38 = ORIENTED_EDGE('',*,*,#39,.T.);
#39 = EDGE_CURVE('',#32,#40,#42,.T.);
#40 = VERTEX_POINT('',#41);
#41 = CARTESIAN_POINT('',(18.,21.,24.6));
#42 = LINE('',#43,#44);
#43 = CARTESIAN_POINT('',(18.,21.,0.));
#44 = VECTOR('',#45,1.);
#45 = DIRECTION('',(0.,0.,1.));
#46 = ORIENTED_EDGE('',*,*,#47,.T.);
#47 = EDGE_CURVE('',#40,#22,#48,.T.);
#48 = LINE('',#49,#50);
#49 = CARTESIAN_POINT('',(18.,21.,24.6));
#50 = VECTOR('',#51,1.);
#51 = DIRECTION('',(-1.,0.,0.));
#52 = PLANE('',#53);
#53 = AXIS2_PLACEMENT_3D('',#54,#55,#56);
#54 = CARTESIAN_POINT('',(21.,21.,0.));
#55 = DIRECTION('',(0.,-1.,0.));
#56 = DIRECTION('',(-1.,0.,0.));
#57 = ADVANCED_FACE('',(#58),#85,.T.);
#58 = FACE_BOUND('',#59,.F.);
#59 = EDGE_LOOP('',(#60,#61,#70,#78));
#60 = ORIENTED_EDGE('',*,*,#21,.F.);
#61 = ORIENTED_EDGE('',*,*,#62,.T.);
#62 = EDGE_CURVE('',#22,#63,#65,.T.);
#63 = VERTEX_POINT('',#64);
#64 = CARTESIAN_POINT('',(12.499916712218,17.999986118676,24.6));
#65 = CIRCLE('',#66,3.);
#66 = AXIS2_PLACEMENT_3D('',#67,#68,#69);
#67 = CARTESIAN_POINT('',(15.499916712186,18.,24.6));
#68 = DIRECTION('',(0.,-0.,1.));
#69 = DIRECTION('',(0.,1.,0.));
#70 = ORIENTED_EDGE('',*,*,#71,.T.);
#71 = EDGE_CURVE('',#63,#72,#74,.T.);
#72 = VERTEX_POINT('',#73);
#73 = CARTESIAN_POINT('',(12.499916712218,17.999986118676,0.4));
#74 = LINE('',#75,#76);
#75 = CARTESIAN_POINT('',(12.499916712218,17.999986118676,25.));
#76 = VECTOR('',#77,1.);
#77 = DIRECTION('',(-0.,-0.,-1.));
#78 = ORIENTED_EDGE('',*,*,#79,.F.);
#79 = EDGE_CURVE('',#24,#72,#80,.T.);
#80 = CIRCLE('',#81,3.);
#81 = AXIS2_PLACEMENT_3D('',#82,#83,#84);
#82 = CARTESIAN_POINT('',(15.499916712186,18.,0.4));
#83 = DIRECTION('',(0.,-0.,1.));
#84 = DIRECTION('',(0.,1.,0.));
#85 = CYLINDRICAL_SURFACE('',#86,3.);
#86 = AXIS2_PLACEMENT_3D('',#87,#88,#89);
#87 = CARTESIAN_POINT('',(15.499916712186,18.,25.));
#88 = DIRECTION('',(-0.,-0.,-1.));
#89 = DIRECTION('',(0.,1.,0.));
#90 = ADVANCED_FACE('',(#91),#116,.F.);
#91 = FACE_BOUND('',#92,.F.);
#92 = EDGE_LOOP('',(#93,#101,#109,#115));
#93 = ORIENTED_EDGE('',*,*,#94,.F.);
#94 = EDGE_CURVE('',#95,#40,#97,.T.);
#95 = VERTEX_POINT('',#96);
#96 = CARTESIAN_POINT('',(18.,20.6,25.));
#97 = LINE('',#98,#99);
#98 = CARTESIAN_POINT('',(18.,21.,24.6));
#99 = VECTOR('',#100,1.);
#100 = DIRECTION('',(4.E-17,0.707106781187,-0.707106781187));
#101 = ORIENTED_EDGE('',*,*,#102,.T.);
#102 = EDGE_CURVE('',#95,#103,#105,.T.);
#103 = VERTEX_POINT('',#104);
#104 = CARTESIAN_POINT('',(15.499916712186,20.6,25.));
#105 = LINE('',#106,#107);
#106 = CARTESIAN_POINT('',(18.,20.6,25.));
#107 = VECTOR('',#108,1.);
#108 = DIRECTION('',(-1.,0.,0.));
#109 = ORIENTED_EDGE('',*,*,#110,.T.);
#110 = EDGE_CURVE('',#103,#22,#111,.T.);
#111 = LINE('',#112,#113);
#112 = CARTESIAN_POINT('',(15.499916712186,20.8,24.8));
#113 = VECTOR('',#114,1.);
#114 = DIRECTION('',(0.,0.707106781187,-0.707106781187));
#115 = ORIENTED_EDGE('',*,*,#47,.F.);
#116 = PLANE('',#117);
#117 = AXIS2_PLACEMENT_3D('',#118,#119,#120);
#118 = CARTESIAN_POINT('',(18.,20.8,24.8));
#119 = DIRECTION('',(0.,-0.707106781187,-0.707106781187));
#120 = DIRECTION('',(-1.,-0.,0.));
#121 = ADVANCED_FACE('',(#122),#147,.T.);
#122 = FACE_BOUND('',#123,.T.);
#123 = EDGE_LOOP('',(#124,#132,#140,#146));
#124 = ORIENTED_EDGE('',*,*,#125,.F.);
#125 = EDGE_CURVE('',#126,#32,#128,.T.);
#126 = VERTEX_POINT('',#127);
#127 = CARTESIAN_POINT('',(18.,20.6,-1.E-15));
#128 = LINE('',#129,#130);
#129 = CARTESIAN_POINT('',(18.,21.,0.4));
#130 = VECTOR('',#131,1.);
#131 = DIRECTION('',(4.E-17,0.707106781187,0.707106781187));
#132 = ORIENTED_EDGE('',*,*,#133,.T.);
#133 = EDGE_CURVE('',#126,#134,#136,.T.);
#134 = VERTEX_POINT('',#135);
#135 = CARTESIAN_POINT('',(15.499916712186,20.6,0.));
#136 = LINE('',#137,#138);
#137 = CARTESIAN_POINT('',(18.,20.6,0.));
#138 = VECTOR('',#139,1.);
#139 = DIRECTION('',(-1.,0.,0.));
#140 = ORIENTED_EDGE('',*,*,#141,.T.);
#141 = EDGE_CURVE('',#134,#24,#142,.T.);
#142 = LINE('',#143,#144);
#143 = CARTESIAN_POINT('',(15.499916712186,20.8,0.2));
#144 = VECTOR('',#145,1.);
#145 = DIRECTION('',(0.,0.707106781187,0.707106781187));
#146 = ORIENTED_EDGE('',*,*,#31,.F.);
#147 = PLANE('',#148);
#148 = AXIS2_PLACEMENT_3D('',#149,#150,#151);
#149 = CARTESIAN_POINT('',(18.,20.8,0.2));
#150 = DIRECTION('',(-1.E-17,0.707106781187,-0.707106781187));
#151 = DIRECTION('',(-1.,-7.071067811865E-18,7.071067811865E-18));
#152 = ADVANCED_FACE('',(#153),#180,.T.);
#153 = FACE_BOUND('',#154,.F.);
#154 = EDGE_LOOP('',(#155,#156,#165,#173));
#155 = ORIENTED_EDGE('',*,*,#39,.F.);
#156 = ORIENTED_EDGE('',*,*,#157,.F.);
#157 = EDGE_CURVE('',#158,#32,#160,.T.);
#158 = VERTEX_POINT('',#159);
#159 = CARTESIAN_POINT('',(21.,18.,0.4));
#160 = CIRCLE('',#161,3.);
#161 = AXIS2_PLACEMENT_3D('',#162,#163,#164);
#162 = CARTESIAN_POINT('',(18.,18.,0.4));
#163 = DIRECTION('',(0.,0.,1.));
#164 = DIRECTION('',(1.,0.,-0.));
#165 = ORIENTED_EDGE('',*,*,#166,.T.);
#166 = EDGE_CURVE('',#158,#167,#169,.T.);
#167 = VERTEX_POINT('',#168);
#168 = CARTESIAN_POINT('',(21.,18.,24.6));
#169 = LINE('',#170,#171);
#170 = CARTESIAN_POINT('',(21.,18.,0.));
#171 = VECTOR('',#172,1.);
#172 = DIRECTION('',(0.,0.,1.));
#173 = ORIENTED_EDGE('',*,*,#174,.T.);
#174 = EDGE_CURVE('',#167,#40,#175,.T.);
#175 = CIRCLE('',#176,3.);
#176 = AXIS2_PLACEMENT_3D('',#177,#178,#179);
#177 = CARTESIAN_POINT('',(18.,18.,24.6));
#178 = DIRECTION('',(0.,0.,1.));
#179 = DIRECTION('',(1.,0.,-0.));
#180 = CYLINDRICAL_SURFACE('',#181,3.);
#181 = AXIS2_PLACEMENT_3D('',#182,#183,#184);
#182 = CARTESIAN_POINT('',(18.,18.,0.));
#183 = DIRECTION('',(0.,0.,1.));
#184 = DIRECTION('',(0.,1.,0.));
#185 = ADVANCED_FACE('',(#186),#205,.T.);
#186 = FACE_BOUND('',#187,.F.);
#187 = EDGE_LOOP('',(#188,#189,#198,#204));
#188 = ORIENTED_EDGE('',*,*,#110,.F.);
#189 = ORIENTED_EDGE('',*,*,#190,.T.);
#190 = EDGE_CURVE('',#103,#191,#193,.T.);
#191 = VERTEX_POINT('',#192);
#192 = CARTESIAN_POINT('',(12.899916712214,17.999987969519,25.));
#193 = CIRCLE('',#194,2.6);
#194 = AXIS2_PLACEMENT_3D('',#195,#196,#197);
#195 = CARTESIAN_POINT('',(15.499916712186,18.,25.));
#196 = DIRECTION('',(0.,-0.,1.));
#197 = DIRECTION('',(0.,1.,0.));
#198 = ORIENTED_EDGE('',*,*,#199,.T.);
#199 = EDGE_CURVE('',#191,#63,#200,.T.);
#200 = LINE('',#201,#202);
#201 = CARTESIAN_POINT('',(12.499916712218,17.999986118676,24.6));
#202 = VECTOR('',#203,1.);
#203 = DIRECTION('',(-0.707106781179,-3.27185949732E-06,-0.707106781187)
  );
#204 = ORIENTED_EDGE('',*,*,#62,.F.);
#205 = CONICAL_SURFACE('',#206,3.,0.785398163397);
#206 = AXIS2_PLACEMENT_3D('',#207,#208,#209);
#207 = CARTESIAN_POINT('',(15.499916712186,18.,24.6));
#208 = DIRECTION('',(-0.,-0.,-1.));
#209 = DIRECTION('',(0.,1.,-0.));
#210 = ADVANCED_FACE('',(#211),#230,.T.);
#211 = FACE_BOUND('',#212,.T.);
#212 = EDGE_LOOP('',(#213,#214,#223,#229));
#213 = ORIENTED_EDGE('',*,*,#141,.F.);
#214 = ORIENTED_EDGE('',*,*,#215,.T.);
#215 = EDGE_CURVE('',#134,#216,#218,.T.);
#216 = VERTEX_POINT('',#217);
#217 = CARTESIAN_POINT('',(12.899916712214,17.999987969519,0.));
#218 = CIRCLE('',#219,2.6);
#219 = AXIS2_PLACEMENT_3D('',#220,#221,#222);
#220 = CARTESIAN_POINT('',(15.499916712186,18.,0.));
#221 = DIRECTION('',(0.,-0.,1.));
#222 = DIRECTION('',(0.,1.,0.));
#223 = ORIENTED_EDGE('',*,*,#224,.T.);
#224 = EDGE_CURVE('',#216,#72,#225,.T.);
#225 = LINE('',#226,#227);
#226 = CARTESIAN_POINT('',(12.499916712218,17.999986118676,0.4));
#227 = VECTOR('',#228,1.);
#228 = DIRECTION('',(-0.707106781179,-3.27185949732E-06,0.707106781187)
  );
#229 = ORIENTED_EDGE('',*,*,#79,.F.);
#230 = CONICAL_SURFACE('',#231,3.,0.785398163397);
#231 = AXIS2_PLACEMENT_3D('',#232,#233,#234);
#232 = CARTESIAN_POINT('',(15.499916712186,18.,0.4));
#233 = DIRECTION('',(0.,0.,1.));
#234 = DIRECTION('',(0.,1.,0.));
#235 = ADVANCED_FACE('',(#236),#261,.F.);
#236 = FACE_BOUND('',#237,.F.);
#237 = EDGE_LOOP('',(#238,#239,#247,#255));
#238 = ORIENTED_EDGE('',*,*,#71,.F.);
#239 = ORIENTED_EDGE('',*,*,#240,.T.);
#240 = EDGE_CURVE('',#63,#241,#243,.T.);
#241 = VERTEX_POINT('',#242);
#242 = CARTESIAN_POINT('',(12.5000000001,-7.E-15,24.6));
#243 = LINE('',#244,#245);
#244 = CARTESIAN_POINT('',(12.499916712218,17.999986118676,24.6));
#245 = VECTOR('',#246,1.);
#246 = DIRECTION('',(4.62710807534E-06,-0.999999999989,0.));
#247 = ORIENTED_EDGE('',*,*,#248,.F.);
#248 = EDGE_CURVE('',#249,#241,#251,.T.);
#249 = VERTEX_POINT('',#250);
#250 = CARTESIAN_POINT('',(12.5000000001,-7.E-15,0.4));
#251 = LINE('',#252,#253);
#252 = CARTESIAN_POINT('',(12.5,0.,0.));
#253 = VECTOR('',#254,1.);
#254 = DIRECTION('',(0.,0.,1.));
#255 = ORIENTED_EDGE('',*,*,#256,.F.);
#256 = EDGE_CURVE('',#72,#249,#257,.T.);
#257 = LINE('',#258,#259);
#258 = CARTESIAN_POINT('',(12.499916712218,17.999986118676,0.4));
#259 = VECTOR('',#260,1.);
#260 = DIRECTION('',(4.62710807534E-06,-0.999999999989,0.));
#261 = PLANE('',#262);
#262 = AXIS2_PLACEMENT_3D('',#263,#264,#265);
#263 = CARTESIAN_POINT('',(12.5,2.152569363043E-05,25.));
#264 = DIRECTION('',(0.999999999989,4.62710807534E-06,0.));
#265 = DIRECTION('',(-4.62710807534E-06,0.999999999989,0.));
#266 = ADVANCED_FACE('',(#267),#286,.T.);
#267 = FACE_BOUND('',#268,.F.);
#268 = EDGE_LOOP('',(#269,#277,#284,#285));
#269 = ORIENTED_EDGE('',*,*,#270,.F.);
#270 = EDGE_CURVE('',#271,#167,#273,.T.);
#271 = VERTEX_POINT('',#272);
#272 = CARTESIAN_POINT('',(20.6,18.,25.));
#273 = LINE('',#274,#275);
#274 = CARTESIAN_POINT('',(20.8,18.,24.8));
#275 = VECTOR('',#276,1.);
#276 = DIRECTION('',(0.707106781187,0.,-0.707106781187));
#277 = ORIENTED_EDGE('',*,*,#278,.T.);
#278 = EDGE_CURVE('',#271,#95,#279,.T.);
#279 = CIRCLE('',#280,2.6);
#280 = AXIS2_PLACEMENT_3D('',#281,#282,#283);
#281 = CARTESIAN_POINT('',(18.,18.,25.));
#282 = DIRECTION('',(0.,0.,1.));
#283 = DIRECTION('',(1.,0.,-0.));
#284 = ORIENTED_EDGE('',*,*,#94,.T.);
#285 = ORIENTED_EDGE('',*,*,#174,.F.);
#286 = CONICAL_SURFACE('',#287,3.,0.785398163397);
#287 = AXIS2_PLACEMENT_3D('',#288,#289,#290);
#288 = CARTESIAN_POINT('',(18.,18.,24.6));
#289 = DIRECTION('',(-0.,-0.,-1.));
#290 = DIRECTION('',(1.,0.,0.));
#291 = ADVANCED_FACE('',(#292,#388,#399,#410,#421),#432,.T.);
#292 = FACE_BOUND('',#293,.T.);
#293 = EDGE_LOOP('',(#294,#304,#313,#321,#330,#338,#347,#353,#354,#355,
    #356,#364,#373,#381));
#294 = ORIENTED_EDGE('',*,*,#295,.T.);
#295 = EDGE_CURVE('',#296,#298,#300,.T.);
#296 = VERTEX_POINT('',#297);
#297 = CARTESIAN_POINT('',(-15.5,20.6,25.));
#298 = VERTEX_POINT('',#299);
#299 = CARTESIAN_POINT('',(-18.,20.6,25.));
#300 = LINE('',#301,#302);
#301 = CARTESIAN_POINT('',(-15.5,20.6,25.));
#302 = VECTOR('',#303,1.);
#303 = DIRECTION('',(-1.,0.,0.));
#304 = ORIENTED_EDGE('',*,*,#305,.T.);
#305 = EDGE_CURVE('',#298,#306,#308,.T.);
#306 = VERTEX_POINT('',#307);
#307 = CARTESIAN_POINT('',(-20.6,18.,25.));
#308 = CIRCLE('',#309,2.6);
#309 = AXIS2_PLACEMENT_3D('',#310,#311,#312);
#310 = CARTESIAN_POINT('',(-18.,18.,25.));
#311 = DIRECTION('',(0.,-0.,1.));
#312 = DIRECTION('',(0.,1.,0.));
#313 = ORIENTED_EDGE('',*,*,#314,.T.);
#314 = EDGE_CURVE('',#306,#315,#317,.T.);
#315 = VERTEX_POINT('',#316);
#316 = CARTESIAN_POINT('',(-20.6,-18.,25.));
#317 = LINE('',#318,#319);
#318 = CARTESIAN_POINT('',(-20.6,18.,25.));
#319 = VECTOR('',#320,1.);
#320 = DIRECTION('',(0.,-1.,0.));
#321 = ORIENTED_EDGE('',*,*,#322,.T.);
#322 = EDGE_CURVE('',#315,#323,#325,.T.);
#323 = VERTEX_POINT('',#324);
#324 = CARTESIAN_POINT('',(-18.,-20.6,25.));
#325 = CIRCLE('',#326,2.6);
#326 = AXIS2_PLACEMENT_3D('',#327,#328,#329);
#327 = CARTESIAN_POINT('',(-18.,-18.,25.));
#328 = DIRECTION('',(0.,0.,1.));
#329 = DIRECTION('',(-1.,0.,0.));
#330 = ORIENTED_EDGE('',*,*,#331,.T.);
#331 = EDGE_CURVE('',#323,#332,#334,.T.);
#332 = VERTEX_POINT('',#333);
#333 = CARTESIAN_POINT('',(18.,-20.6,25.));
#334 = LINE('',#335,#336);
#335 = CARTESIAN_POINT('',(-18.,-20.6,25.));
#336 = VECTOR('',#337,1.);
#337 = DIRECTION('',(1.,0.,0.));
#338 = ORIENTED_EDGE('',*,*,#339,.T.);
#339 = EDGE_CURVE('',#332,#340,#342,.T.);
#340 = VERTEX_POINT('',#341);
#341 = CARTESIAN_POINT('',(20.6,-18.,25.));
#342 = CIRCLE('',#343,2.6);
#343 = AXIS2_PLACEMENT_3D('',#344,#345,#346);
#344 = CARTESIAN_POINT('',(18.,-18.,25.));
#345 = DIRECTION('',(-0.,0.,1.));
#346 = DIRECTION('',(0.,-1.,0.));
#347 = ORIENTED_EDGE('',*,*,#348,.T.);
#348 = EDGE_CURVE('',#340,#271,#349,.T.);
#349 = LINE('',#350,#351);
#350 = CARTESIAN_POINT('',(20.6,-18.,25.));
#351 = VECTOR('',#352,1.);
#352 = DIRECTION('',(0.,1.,0.));
#353 = ORIENTED_EDGE('',*,*,#278,.T.);
#354 = ORIENTED_EDGE('',*,*,#102,.T.);
#355 = ORIENTED_EDGE('',*,*,#190,.T.);
#356 = ORIENTED_EDGE('',*,*,#357,.T.);
#357 = EDGE_CURVE('',#191,#358,#360,.T.);
#358 = VERTEX_POINT('',#359);
#359 = CARTESIAN_POINT('',(12.900000000095,1.850843226E-06,25.));
#360 = LINE('',#361,#362);
#361 = CARTESIAN_POINT('',(12.899916712214,17.999987969519,25.));
#362 = VECTOR('',#363,1.);
#363 = DIRECTION('',(4.62710807534E-06,-0.999999999989,0.));
#364 = ORIENTED_EDGE('',*,*,#365,.T.);
#365 = EDGE_CURVE('',#358,#366,#368,.T.);
#366 = VERTEX_POINT('',#367);
#367 = CARTESIAN_POINT('',(-12.89999999998,2.2214515825E-05,25.));
#368 = CIRCLE('',#369,12.9);
#369 = AXIS2_PLACEMENT_3D('',#370,#371,#372);
#370 = CARTESIAN_POINT('',(0.,-0.,25.));
#371 = DIRECTION('',(0.,-0.,-1.));
#372 = DIRECTION('',(1.,-2.4E-16,0.));
#373 = ORIENTED_EDGE('',*,*,#374,.T.);
#374 = EDGE_CURVE('',#366,#375,#377,.T.);
#375 = VERTEX_POINT('',#376);
#376 = CARTESIAN_POINT('',(-12.9,18.,25.));
#377 = LINE('',#378,#379);
#378 = CARTESIAN_POINT('',(-12.9,2.152569363036E-05,25.));
#379 = VECTOR('',#380,1.);
#380 = DIRECTION('',(-1.7E-16,1.,0.));
#381 = ORIENTED_EDGE('',*,*,#382,.T.);
#382 = EDGE_CURVE('',#375,#296,#383,.T.);
#383 = CIRCLE('',#384,2.6);
#384 = AXIS2_PLACEMENT_3D('',#385,#386,#387);
#385 = CARTESIAN_POINT('',(-15.5,18.,25.));
#386 = DIRECTION('',(0.,0.,1.));
#387 = DIRECTION('',(1.,0.,-0.));
#388 = FACE_BOUND('',#389,.T.);
#389 = EDGE_LOOP('',(#390));
#390 = ORIENTED_EDGE('',*,*,#391,.F.);
#391 = EDGE_CURVE('',#392,#392,#394,.T.);
#392 = VERTEX_POINT('',#393);
#393 = CARTESIAN_POINT('',(-13.45,-15.5,25.));
#394 = CIRCLE('',#395,2.05);
#395 = AXIS2_PLACEMENT_3D('',#396,#397,#398);
#396 = CARTESIAN_POINT('',(-15.5,-15.5,25.));
#397 = DIRECTION('',(0.,0.,1.));
#398 = DIRECTION('',(1.,0.,-0.));
#399 = FACE_BOUND('',#400,.T.);
#400 = EDGE_LOOP('',(#401));
#401 = ORIENTED_EDGE('',*,*,#402,.F.);
#402 = EDGE_CURVE('',#403,#403,#405,.T.);
#403 = VERTEX_POINT('',#404);
#404 = CARTESIAN_POINT('',(17.55,-15.5,25.));
#405 = CIRCLE('',#406,2.05);
#406 = AXIS2_PLACEMENT_3D('',#407,#408,#409);
#407 = CARTESIAN_POINT('',(15.5,-15.5,25.));
#408 = DIRECTION('',(0.,0.,1.));
#409 = DIRECTION('',(1.,0.,-0.));
#410 = FACE_BOUND('',#411,.T.);
#411 = EDGE_LOOP('',(#412));
#412 = ORIENTED_EDGE('',*,*,#413,.F.);
#413 = EDGE_CURVE('',#414,#414,#416,.T.);
#414 = VERTEX_POINT('',#415);
#415 = CARTESIAN_POINT('',(-13.45,15.5,25.));
#416 = CIRCLE('',#417,2.05);
#417 = AXIS2_PLACEMENT_3D('',#418,#419,#420);
#418 = CARTESIAN_POINT('',(-15.5,15.5,25.));
#419 = DIRECTION('',(0.,0.,1.));
#420 = DIRECTION('',(1.,0.,-0.));
#421 = FACE_BOUND('',#422,.T.);
#422 = EDGE_LOOP('',(#423));
#423 = ORIENTED_EDGE('',*,*,#424,.F.);
#424 = EDGE_CURVE('',#425,#425,#427,.T.);
#425 = VERTEX_POINT('',#426);
#426 = CARTESIAN_POINT('',(17.55,15.5,25.));
#427 = CIRCLE('',#428,2.05);
#428 = AXIS2_PLACEMENT_3D('',#429,#430,#431);
#429 = CARTESIAN_POINT('',(15.5,15.5,25.));
#430 = DIRECTION('',(0.,0.,1.));
#431 = DIRECTION('',(1.,0.,-0.));
#432 = PLANE('',#433);
#433 = AXIS2_PLACEMENT_3D('',#434,#435,#436);
#434 = CARTESIAN_POINT('',(-3.2E-16,-2.3E-16,25.));
#435 = DIRECTION('',(0.,0.,1.));
#436 = DIRECTION('',(1.,0.,0.));
#437 = ADVANCED_FACE('',(#438),#457,.T.);
#438 = FACE_BOUND('',#439,.T.);
#439 = EDGE_LOOP('',(#440,#448,#455,#456));
#440 = ORIENTED_EDGE('',*,*,#441,.F.);
#441 = EDGE_CURVE('',#442,#158,#444,.T.);
#442 = VERTEX_POINT('',#443);
#443 = CARTESIAN_POINT('',(20.6,18.,0.));
#444 = LINE('',#445,#446);
#445 = CARTESIAN_POINT('',(20.8,18.,0.2));
#446 = VECTOR('',#447,1.);
#447 = DIRECTION('',(0.707106781187,0.,0.707106781187));
#448 = ORIENTED_EDGE('',*,*,#449,.T.);
#449 = EDGE_CURVE('',#442,#126,#450,.T.);
#450 = CIRCLE('',#451,2.6);
#451 = AXIS2_PLACEMENT_3D('',#452,#453,#454);
#452 = CARTESIAN_POINT('',(18.,18.,0.));
#453 = DIRECTION('',(0.,0.,1.));
#454 = DIRECTION('',(1.,0.,-0.));
#455 = ORIENTED_EDGE('',*,*,#125,.T.);
#456 = ORIENTED_EDGE('',*,*,#157,.F.);
#457 = CONICAL_SURFACE('',#458,3.,0.785398163397);
#458 = AXIS2_PLACEMENT_3D('',#459,#460,#461);
#459 = CARTESIAN_POINT('',(18.,18.,0.4));
#460 = DIRECTION('',(0.,0.,1.));
#461 = DIRECTION('',(1.,0.,-0.));
#462 = ADVANCED_FACE('',(#463,#559,#570,#581,#592),#603,.F.);
#463 = FACE_BOUND('',#464,.F.);
#464 = EDGE_LOOP('',(#465,#475,#484,#492,#501,#509,#518,#524,#525,#526,
    #527,#535,#544,#552));
#465 = ORIENTED_EDGE('',*,*,#466,.T.);
#466 = EDGE_CURVE('',#467,#469,#471,.T.);
#467 = VERTEX_POINT('',#468);
#468 = CARTESIAN_POINT('',(-15.5,20.6,0.));
#469 = VERTEX_POINT('',#470);
#470 = CARTESIAN_POINT('',(-18.,20.6,0.));
#471 = LINE('',#472,#473);
#472 = CARTESIAN_POINT('',(-15.5,20.6,0.));
#473 = VECTOR('',#474,1.);
#474 = DIRECTION('',(-1.,0.,0.));
#475 = ORIENTED_EDGE('',*,*,#476,.T.);
#476 = EDGE_CURVE('',#469,#477,#479,.T.);
#477 = VERTEX_POINT('',#478);
#478 = CARTESIAN_POINT('',(-20.6,18.,-1.E-15));
#479 = CIRCLE('',#480,2.6);
#480 = AXIS2_PLACEMENT_3D('',#481,#482,#483);
#481 = CARTESIAN_POINT('',(-18.,18.,0.));
#482 = DIRECTION('',(0.,-0.,1.));
#483 = DIRECTION('',(0.,1.,0.));
#484 = ORIENTED_EDGE('',*,*,#485,.T.);
#485 = EDGE_CURVE('',#477,#486,#488,.T.);
#486 = VERTEX_POINT('',#487);
#487 = CARTESIAN_POINT('',(-20.6,-18.,0.));
#488 = LINE('',#489,#490);
#489 = CARTESIAN_POINT('',(-20.6,18.,0.));
#490 = VECTOR('',#491,1.);
#491 = DIRECTION('',(0.,-1.,0.));
#492 = ORIENTED_EDGE('',*,*,#493,.T.);
#493 = EDGE_CURVE('',#486,#494,#496,.T.);
#494 = VERTEX_POINT('',#495);
#495 = CARTESIAN_POINT('',(-18.,-20.6,-1.E-15));
#496 = CIRCLE('',#497,2.6);
#497 = AXIS2_PLACEMENT_3D('',#498,#499,#500);
#498 = CARTESIAN_POINT('',(-18.,-18.,0.));
#499 = DIRECTION('',(0.,0.,1.));
#500 = DIRECTION('',(-1.,0.,0.));
#501 = ORIENTED_EDGE('',*,*,#502,.T.);
#502 = EDGE_CURVE('',#494,#503,#505,.T.);
#503 = VERTEX_POINT('',#504);
#504 = CARTESIAN_POINT('',(18.,-20.6,0.));
#505 = LINE('',#506,#507);
#506 = CARTESIAN_POINT('',(-18.,-20.6,0.));
#507 = VECTOR('',#508,1.);
#508 = DIRECTION('',(1.,0.,0.));
#509 = ORIENTED_EDGE('',*,*,#510,.T.);
#510 = EDGE_CURVE('',#503,#511,#513,.T.);
#511 = VERTEX_POINT('',#512);
#512 = CARTESIAN_POINT('',(20.6,-18.,-1.E-15));
#513 = CIRCLE('',#514,2.6);
#514 = AXIS2_PLACEMENT_3D('',#515,#516,#517);
#515 = CARTESIAN_POINT('',(18.,-18.,0.));
#516 = DIRECTION('',(-0.,0.,1.));
#517 = DIRECTION('',(0.,-1.,0.));
#518 = ORIENTED_EDGE('',*,*,#519,.T.);
#519 = EDGE_CURVE('',#511,#442,#520,.T.);
#520 = LINE('',#521,#522);
#521 = CARTESIAN_POINT('',(20.6,-18.,0.));
#522 = VECTOR('',#523,1.);
#523 = DIRECTION('',(0.,1.,0.));
#524 = ORIENTED_EDGE('',*,*,#449,.T.);
#525 = ORIENTED_EDGE('',*,*,#133,.T.);
#526 = ORIENTED_EDGE('',*,*,#215,.T.);
#527 = ORIENTED_EDGE('',*,*,#528,.T.);
#528 = EDGE_CURVE('',#216,#529,#531,.T.);
#529 = VERTEX_POINT('',#530);
#530 = CARTESIAN_POINT('',(12.900000000095,1.850843226E-06,-4.E-15));
#531 = LINE('',#532,#533);
#532 = CARTESIAN_POINT('',(12.899916712214,17.999987969519,-3.55E-15));
#533 = VECTOR('',#534,1.);
#534 = DIRECTION('',(4.62710807534E-06,-0.999999999989,0.));
#535 = ORIENTED_EDGE('',*,*,#536,.T.);
#536 = EDGE_CURVE('',#529,#537,#539,.T.);
#537 = VERTEX_POINT('',#538);
#538 = CARTESIAN_POINT('',(-12.89999999998,2.2214515825E-05,0.));
#539 = CIRCLE('',#540,12.9);
#540 = AXIS2_PLACEMENT_3D('',#541,#542,#543);
#541 = CARTESIAN_POINT('',(0.,-0.,0.));
#542 = DIRECTION('',(0.,-0.,-1.));
#543 = DIRECTION('',(1.,-2.4E-16,0.));
#544 = ORIENTED_EDGE('',*,*,#545,.T.);
#545 = EDGE_CURVE('',#537,#546,#548,.T.);
#546 = VERTEX_POINT('',#547);
#547 = CARTESIAN_POINT('',(-12.9,18.,-1.E-15));
#548 = LINE('',#549,#550);
#549 = CARTESIAN_POINT('',(-12.9,2.152569363036E-05,0.));
#550 = VECTOR('',#551,1.);
#551 = DIRECTION('',(-1.7E-16,1.,0.));
#552 = ORIENTED_EDGE('',*,*,#553,.T.);
#553 = EDGE_CURVE('',#546,#467,#554,.T.);
#554 = CIRCLE('',#555,2.6);
#555 = AXIS2_PLACEMENT_3D('',#556,#557,#558);
#556 = CARTESIAN_POINT('',(-15.5,18.,0.));
#557 = DIRECTION('',(0.,0.,1.));
#558 = DIRECTION('',(1.,0.,-0.));
#559 = FACE_BOUND('',#560,.F.);
#560 = EDGE_LOOP('',(#561));
#561 = ORIENTED_EDGE('',*,*,#562,.F.);
#562 = EDGE_CURVE('',#563,#563,#565,.T.);
#563 = VERTEX_POINT('',#564);
#564 = CARTESIAN_POINT('',(-13.45,-15.5,0.));
#565 = CIRCLE('',#566,2.05);
#566 = AXIS2_PLACEMENT_3D('',#567,#568,#569);
#567 = CARTESIAN_POINT('',(-15.5,-15.5,0.));
#568 = DIRECTION('',(0.,0.,1.));
#569 = DIRECTION('',(1.,0.,-0.));
#570 = FACE_BOUND('',#571,.F.);
#571 = EDGE_LOOP('',(#572));
#572 = ORIENTED_EDGE('',*,*,#573,.F.);
#573 = EDGE_CURVE('',#574,#574,#576,.T.);
#574 = VERTEX_POINT('',#575);
#575 = CARTESIAN_POINT('',(17.55,-15.5,0.));
#576 = CIRCLE('',#577,2.05);
#577 = AXIS2_PLACEMENT_3D('',#578,#579,#580);
#578 = CARTESIAN_POINT('',(15.5,-15.5,0.));
#579 = DIRECTION('',(0.,0.,1.));
#580 = DIRECTION('',(1.,0.,-0.));
#581 = FACE_BOUND('',#582,.F.);
#582 = EDGE_LOOP('',(#583));
#583 = ORIENTED_EDGE('',*,*,#584,.F.);
#584 = EDGE_CURVE('',#585,#585,#587,.T.);
#585 = VERTEX_POINT('',#586);
#586 = CARTESIAN_POINT('',(-13.45,15.5,0.));
#587 = CIRCLE('',#588,2.05);
#588 = AXIS2_PLACEMENT_3D('',#589,#590,#591);
#589 = CARTESIAN_POINT('',(-15.5,15.5,0.));
#590 = DIRECTION('',(0.,0.,1.));
#591 = DIRECTION('',(1.,0.,-0.));
#592 = FACE_BOUND('',#593,.F.);
#593 = EDGE_LOOP('',(#594));
#594 = ORIENTED_EDGE('',*,*,#595,.F.);
#595 = EDGE_CURVE('',#596,#596,#598,.T.);
#596 = VERTEX_POINT('',#597);
#597 = CARTESIAN_POINT('',(17.55,15.5,0.));
#598 = CIRCLE('',#599,2.05);
#599 = AXIS2_PLACEMENT_3D('',#600,#601,#602);
#600 = CARTESIAN_POINT('',(15.5,15.5,0.));
#601 = DIRECTION('',(0.,0.,1.));
#602 = DIRECTION('',(1.,0.,-0.));
#603 = PLANE('',#604);
#604 = AXIS2_PLACEMENT_3D('',#605,#606,#607);
#605 = CARTESIAN_POINT('',(-3.2E-16,-2.3E-16,0.));
#606 = DIRECTION('',(0.,0.,1.));
#607 = DIRECTION('',(1.,0.,0.));
#608 = ADVANCED_FACE('',(#609),#634,.F.);
#609 = FACE_BOUND('',#610,.F.);
#610 = EDGE_LOOP('',(#611,#621,#627,#628));
#611 = ORIENTED_EDGE('',*,*,#612,.T.);
#612 = EDGE_CURVE('',#613,#615,#617,.T.);
#613 = VERTEX_POINT('',#614);
#614 = CARTESIAN_POINT('',(21.,-18.,0.4));
#615 = VERTEX_POINT('',#616);
#616 = CARTESIAN_POINT('',(21.,-18.,24.6));
#617 = LINE('',#618,#619);
#618 = CARTESIAN_POINT('',(21.,-18.,0.));
#619 = VECTOR('',#620,1.);
#620 = DIRECTION('',(0.,0.,1.));
#621 = ORIENTED_EDGE('',*,*,#622,.T.);
#622 = EDGE_CURVE('',#615,#167,#623,.T.);
#623 = LINE('',#624,#625);
#624 = CARTESIAN_POINT('',(21.,-18.,24.6));
#625 = VECTOR('',#626,1.);
#626 = DIRECTION('',(0.,1.,0.));
#627 = ORIENTED_EDGE('',*,*,#166,.F.);
#628 = ORIENTED_EDGE('',*,*,#629,.F.);
#629 = EDGE_CURVE('',#613,#158,#630,.T.);
#630 = LINE('',#631,#632);
#631 = CARTESIAN_POINT('',(21.,-18.,0.4));
#632 = VECTOR('',#633,1.);
#633 = DIRECTION('',(0.,1.,0.));
#634 = PLANE('',#635);
#635 = AXIS2_PLACEMENT_3D('',#636,#637,#638);
#636 = CARTESIAN_POINT('',(21.,-21.,0.));
#637 = DIRECTION('',(-1.,0.,0.));
#638 = DIRECTION('',(0.,1.,0.));
#639 = ADVANCED_FACE('',(#640),#651,.F.);
#640 = FACE_BOUND('',#641,.F.);
#641 = EDGE_LOOP('',(#642,#643,#644,#650));
#642 = ORIENTED_EDGE('',*,*,#199,.F.);
#643 = ORIENTED_EDGE('',*,*,#357,.T.);
#644 = ORIENTED_EDGE('',*,*,#645,.T.);
#645 = EDGE_CURVE('',#358,#241,#646,.T.);
#646 = LINE('',#647,#648);
#647 = CARTESIAN_POINT('',(12.700000000097,9.2542160957E-07,24.8));
#648 = VECTOR('',#649,1.);
#649 = DIRECTION('',(-0.707106781179,-3.27185949735E-06,-0.707106781187)
  );
#650 = ORIENTED_EDGE('',*,*,#240,.F.);
#651 = PLANE('',#652);
#652 = AXIS2_PLACEMENT_3D('',#653,#654,#655);
#653 = CARTESIAN_POINT('',(12.699916712216,17.999987044097,24.8));
#654 = DIRECTION('',(0.707106781179,3.27185949737E-06,-0.707106781187));
#655 = DIRECTION('',(4.627108075345E-06,-0.999999999989,
    -1.493869657425E-17));
#656 = ADVANCED_FACE('',(#657),#668,.T.);
#657 = FACE_BOUND('',#658,.T.);
#658 = EDGE_LOOP('',(#659,#660,#661,#667));
#659 = ORIENTED_EDGE('',*,*,#224,.F.);
#660 = ORIENTED_EDGE('',*,*,#528,.T.);
#661 = ORIENTED_EDGE('',*,*,#662,.T.);
#662 = EDGE_CURVE('',#529,#249,#663,.T.);
#663 = LINE('',#664,#665);
#664 = CARTESIAN_POINT('',(12.700000000097,9.2542160957E-07,0.2));
#665 = VECTOR('',#666,1.);
#666 = DIRECTION('',(-0.707106781179,-3.27185949735E-06,0.707106781187)
  );
#667 = ORIENTED_EDGE('',*,*,#256,.F.);
#668 = PLANE('',#669);
#669 = AXIS2_PLACEMENT_3D('',#670,#671,#672);
#670 = CARTESIAN_POINT('',(12.699916712216,17.999987044097,0.2));
#671 = DIRECTION('',(-0.707106781179,-3.27185949737E-06,-0.707106781187)
  );
#672 = DIRECTION('',(4.62710807535E-06,-0.999999999989,
    9.934849438346E-18));
#673 = ADVANCED_FACE('',(#674),#701,.F.);
#674 = FACE_BOUND('',#675,.T.);
#675 = EDGE_LOOP('',(#676,#677,#686,#694));
#676 = ORIENTED_EDGE('',*,*,#248,.F.);
#677 = ORIENTED_EDGE('',*,*,#678,.T.);
#678 = EDGE_CURVE('',#249,#679,#681,.T.);
#679 = VERTEX_POINT('',#680);
#680 = CARTESIAN_POINT('',(-12.49999999998,2.1525693629E-05,0.4));
#681 = CIRCLE('',#682,12.5);
#682 = AXIS2_PLACEMENT_3D('',#683,#684,#685);
#683 = CARTESIAN_POINT('',(0.,-0.,0.4));
#684 = DIRECTION('',(0.,-0.,-1.));
#685 = DIRECTION('',(1.,-2.4E-16,0.));
#686 = ORIENTED_EDGE('',*,*,#687,.F.);
#687 = EDGE_CURVE('',#688,#679,#690,.T.);
#688 = VERTEX_POINT('',#689);
#689 = CARTESIAN_POINT('',(-12.49999999998,2.1525693629E-05,24.6));
#690 = LINE('',#691,#692);
#691 = CARTESIAN_POINT('',(-12.5,2.152569363043E-05,25.));
#692 = VECTOR('',#693,1.);
#693 = DIRECTION('',(-0.,-0.,-1.));
#694 = ORIENTED_EDGE('',*,*,#695,.F.);
#695 = EDGE_CURVE('',#241,#688,#696,.T.);
#696 = CIRCLE('',#697,12.5);
#697 = AXIS2_PLACEMENT_3D('',#698,#699,#700);
#698 = CARTESIAN_POINT('',(0.,-0.,24.6));
#699 = DIRECTION('',(0.,-0.,-1.));
#700 = DIRECTION('',(1.,-2.4E-16,0.));
#701 = CYLINDRICAL_SURFACE('',#702,12.5);
#702 = AXIS2_PLACEMENT_3D('',#703,#704,#705);
#703 = CARTESIAN_POINT('',(0.,0.,0.));
#704 = DIRECTION('',(-0.,-0.,-1.));
#705 = DIRECTION('',(1.,0.,0.));
#706 = ADVANCED_FACE('',(#707),#718,.F.);
#707 = FACE_BOUND('',#708,.F.);
#708 = EDGE_LOOP('',(#709,#715,#716,#717));
#709 = ORIENTED_EDGE('',*,*,#710,.F.);
#710 = EDGE_CURVE('',#340,#615,#711,.T.);
#711 = LINE('',#712,#713);
#712 = CARTESIAN_POINT('',(21.,-18.,24.6));
#713 = VECTOR('',#714,1.);
#714 = DIRECTION('',(0.707106781187,-4.E-17,-0.707106781187));
#715 = ORIENTED_EDGE('',*,*,#348,.T.);
#716 = ORIENTED_EDGE('',*,*,#270,.T.);
#717 = ORIENTED_EDGE('',*,*,#622,.F.);
#718 = PLANE('',#719);
#719 = AXIS2_PLACEMENT_3D('',#720,#721,#722);
#720 = CARTESIAN_POINT('',(20.8,-18.,24.8));
#721 = DIRECTION('',(-0.707106781187,0.,-0.707106781187));
#722 = DIRECTION('',(0.,1.,0.));
#723 = ADVANCED_FACE('',(#724),#749,.F.);
#724 = FACE_BOUND('',#725,.F.);
#725 = EDGE_LOOP('',(#726,#734,#735,#743));
#726 = ORIENTED_EDGE('',*,*,#727,.F.);
#727 = EDGE_CURVE('',#296,#728,#730,.T.);
#728 = VERTEX_POINT('',#729);
#729 = CARTESIAN_POINT('',(-15.5,21.,24.6));
#730 = LINE('',#731,#732);
#731 = CARTESIAN_POINT('',(-15.5,20.8,24.8));
#732 = VECTOR('',#733,1.);
#733 = DIRECTION('',(0.,0.707106781187,-0.707106781187));
#734 = ORIENTED_EDGE('',*,*,#295,.T.);
#735 = ORIENTED_EDGE('',*,*,#736,.T.);
#736 = EDGE_CURVE('',#298,#737,#739,.T.);
#737 = VERTEX_POINT('',#738);
#738 = CARTESIAN_POINT('',(-18.,21.,24.6));
#739 = LINE('',#740,#741);
#740 = CARTESIAN_POINT('',(-18.,20.8,24.8));
#741 = VECTOR('',#742,1.);
#742 = DIRECTION('',(0.,0.707106781187,-0.707106781187));
#743 = ORIENTED_EDGE('',*,*,#744,.F.);
#744 = EDGE_CURVE('',#728,#737,#745,.T.);
#745 = LINE('',#746,#747);
#746 = CARTESIAN_POINT('',(-15.5,21.,24.6));
#747 = VECTOR('',#748,1.);
#748 = DIRECTION('',(-1.,0.,0.));
#749 = PLANE('',#750);
#750 = AXIS2_PLACEMENT_3D('',#751,#752,#753);
#751 = CARTESIAN_POINT('',(-15.5,20.8,24.8));
#752 = DIRECTION('',(0.,-0.707106781187,-0.707106781187));
#753 = DIRECTION('',(-1.,-0.,0.));
#754 = ADVANCED_FACE('',(#755),#774,.T.);
#755 = FACE_BOUND('',#756,.F.);
#756 = EDGE_LOOP('',(#757,#765,#766,#767));
#757 = ORIENTED_EDGE('',*,*,#758,.F.);
#758 = EDGE_CURVE('',#375,#759,#761,.T.);
#759 = VERTEX_POINT('',#760);
#760 = CARTESIAN_POINT('',(-12.5,18.,24.6));
#761 = LINE('',#762,#763);
#762 = CARTESIAN_POINT('',(-12.7,18.,24.8));
#763 = VECTOR('',#764,1.);
#764 = DIRECTION('',(0.707106781187,1.2E-16,-0.707106781187));
#765 = ORIENTED_EDGE('',*,*,#382,.T.);
#766 = ORIENTED_EDGE('',*,*,#727,.T.);
#767 = ORIENTED_EDGE('',*,*,#768,.F.);
#768 = EDGE_CURVE('',#759,#728,#769,.T.);
#769 = CIRCLE('',#770,3.);
#770 = AXIS2_PLACEMENT_3D('',#771,#772,#773);
#771 = CARTESIAN_POINT('',(-15.5,18.,24.6));
#772 = DIRECTION('',(0.,0.,1.));
#773 = DIRECTION('',(1.,0.,-0.));
#774 = CONICAL_SURFACE('',#775,3.,0.785398163397);
#775 = AXIS2_PLACEMENT_3D('',#776,#777,#778);
#776 = CARTESIAN_POINT('',(-15.5,18.,24.6));
#777 = DIRECTION('',(-0.,-0.,-1.));
#778 = DIRECTION('',(1.,0.,0.));
#779 = ADVANCED_FACE('',(#780),#799,.T.);
#780 = FACE_BOUND('',#781,.F.);
#781 = EDGE_LOOP('',(#782,#783,#784,#792));
#782 = ORIENTED_EDGE('',*,*,#736,.F.);
#783 = ORIENTED_EDGE('',*,*,#305,.T.);
#784 = ORIENTED_EDGE('',*,*,#785,.T.);
#785 = EDGE_CURVE('',#306,#786,#788,.T.);
#786 = VERTEX_POINT('',#787);
#787 = CARTESIAN_POINT('',(-21.,18.,24.6));
#788 = LINE('',#789,#790);
#789 = CARTESIAN_POINT('',(-21.,18.,24.6));
#790 = VECTOR('',#791,1.);
#791 = DIRECTION('',(-0.707106781187,4.E-17,-0.707106781187));
#792 = ORIENTED_EDGE('',*,*,#793,.F.);
#793 = EDGE_CURVE('',#737,#786,#794,.T.);
#794 = CIRCLE('',#795,3.);
#795 = AXIS2_PLACEMENT_3D('',#796,#797,#798);
#796 = CARTESIAN_POINT('',(-18.,18.,24.6));
#797 = DIRECTION('',(0.,-0.,1.));
#798 = DIRECTION('',(0.,1.,0.));
#799 = CONICAL_SURFACE('',#800,3.,0.785398163397);
#800 = AXIS2_PLACEMENT_3D('',#801,#802,#803);
#801 = CARTESIAN_POINT('',(-18.,18.,24.6));
#802 = DIRECTION('',(-0.,-0.,-1.));
#803 = DIRECTION('',(0.,1.,-0.));
#804 = ADVANCED_FACE('',(#805),#821,.T.);
#805 = FACE_BOUND('',#806,.F.);
#806 = EDGE_LOOP('',(#807,#813,#814,#815));
#807 = ORIENTED_EDGE('',*,*,#808,.F.);
#808 = EDGE_CURVE('',#366,#688,#809,.T.);
#809 = LINE('',#810,#811);
#810 = CARTESIAN_POINT('',(-12.49999999998,2.152569362908E-05,24.6));
#811 = VECTOR('',#812,1.);
#812 = DIRECTION('',(0.707106781186,-1.21767711479E-06,-0.707106781187)
  );
#813 = ORIENTED_EDGE('',*,*,#374,.T.);
#814 = ORIENTED_EDGE('',*,*,#758,.T.);
#815 = ORIENTED_EDGE('',*,*,#816,.F.);
#816 = EDGE_CURVE('',#688,#759,#817,.T.);
#817 = LINE('',#818,#819);
#818 = CARTESIAN_POINT('',(-12.5,2.152569363043E-05,24.6));
#819 = VECTOR('',#820,1.);
#820 = DIRECTION('',(-1.7E-16,1.,0.));
#821 = PLANE('',#822);
#822 = AXIS2_PLACEMENT_3D('',#823,#824,#825);
#823 = CARTESIAN_POINT('',(-12.7,2.152569363039E-05,24.8));
#824 = DIRECTION('',(0.707106781187,1.2E-16,0.707106781187));
#825 = DIRECTION('',(1.698528137424E-16,-1.,-1.471862576141E-19));
#826 = ADVANCED_FACE('',(#827),#845,.F.);
#827 = FACE_BOUND('',#828,.F.);
#828 = EDGE_LOOP('',(#829,#830,#831,#839));
#829 = ORIENTED_EDGE('',*,*,#785,.F.);
#830 = ORIENTED_EDGE('',*,*,#314,.T.);
#831 = ORIENTED_EDGE('',*,*,#832,.T.);
#832 = EDGE_CURVE('',#315,#833,#835,.T.);
#833 = VERTEX_POINT('',#834);
#834 = CARTESIAN_POINT('',(-21.,-18.,24.6));
#835 = LINE('',#836,#837);
#836 = CARTESIAN_POINT('',(-20.8,-18.,24.8));
#837 = VECTOR('',#838,1.);
#838 = DIRECTION('',(-0.707106781187,-0.,-0.707106781187));
#839 = ORIENTED_EDGE('',*,*,#840,.F.);
#840 = EDGE_CURVE('',#786,#833,#841,.T.);
#841 = LINE('',#842,#843);
#842 = CARTESIAN_POINT('',(-21.,18.,24.6));
#843 = VECTOR('',#844,1.);
#844 = DIRECTION('',(0.,-1.,0.));
#845 = PLANE('',#846);
#846 = AXIS2_PLACEMENT_3D('',#847,#848,#849);
#847 = CARTESIAN_POINT('',(-20.8,18.,24.8));
#848 = DIRECTION('',(0.707106781187,0.,-0.707106781187));
#849 = DIRECTION('',(0.,-1.,0.));
#850 = ADVANCED_FACE('',(#851),#857,.F.);
#851 = FACE_BOUND('',#852,.F.);
#852 = EDGE_LOOP('',(#853,#854,#855,#856));
#853 = ORIENTED_EDGE('',*,*,#645,.F.);
#854 = ORIENTED_EDGE('',*,*,#365,.T.);
#855 = ORIENTED_EDGE('',*,*,#808,.T.);
#856 = ORIENTED_EDGE('',*,*,#695,.F.);
#857 = CONICAL_SURFACE('',#858,12.5,0.785398163397);
#858 = AXIS2_PLACEMENT_3D('',#859,#860,#861);
#859 = CARTESIAN_POINT('',(0.,-0.,24.6));
#860 = DIRECTION('',(0.,0.,1.));
#861 = DIRECTION('',(1.,-2.4E-16,0.));
#862 = ADVANCED_FACE('',(#863),#882,.T.);
#863 = FACE_BOUND('',#864,.F.);
#864 = EDGE_LOOP('',(#865,#866,#867,#875));
#865 = ORIENTED_EDGE('',*,*,#832,.F.);
#866 = ORIENTED_EDGE('',*,*,#322,.T.);
#867 = ORIENTED_EDGE('',*,*,#868,.T.);
#868 = EDGE_CURVE('',#323,#869,#871,.T.);
#869 = VERTEX_POINT('',#870);
#870 = CARTESIAN_POINT('',(-18.,-21.,24.6));
#871 = LINE('',#872,#873);
#872 = CARTESIAN_POINT('',(-18.,-21.,24.6));
#873 = VECTOR('',#874,1.);
#874 = DIRECTION('',(-4.E-17,-0.707106781187,-0.707106781187));
#875 = ORIENTED_EDGE('',*,*,#876,.F.);
#876 = EDGE_CURVE('',#833,#869,#877,.T.);
#877 = CIRCLE('',#878,3.);
#878 = AXIS2_PLACEMENT_3D('',#879,#880,#881);
#879 = CARTESIAN_POINT('',(-18.,-18.,24.6));
#880 = DIRECTION('',(0.,0.,1.));
#881 = DIRECTION('',(-1.,0.,0.));
#882 = CONICAL_SURFACE('',#883,3.,0.785398163397);
#883 = AXIS2_PLACEMENT_3D('',#884,#885,#886);
#884 = CARTESIAN_POINT('',(-18.,-18.,24.6));
#885 = DIRECTION('',(-0.,-0.,-1.));
#886 = DIRECTION('',(-1.,0.,0.));
#887 = ADVANCED_FACE('',(#888),#906,.F.);
#888 = FACE_BOUND('',#889,.F.);
#889 = EDGE_LOOP('',(#890,#891,#892,#900));
#890 = ORIENTED_EDGE('',*,*,#868,.F.);
#891 = ORIENTED_EDGE('',*,*,#331,.T.);
#892 = ORIENTED_EDGE('',*,*,#893,.T.);
#893 = EDGE_CURVE('',#332,#894,#896,.T.);
#894 = VERTEX_POINT('',#895);
#895 = CARTESIAN_POINT('',(18.,-21.,24.6));
#896 = LINE('',#897,#898);
#897 = CARTESIAN_POINT('',(18.,-20.8,24.8));
#898 = VECTOR('',#899,1.);
#899 = DIRECTION('',(0.,-0.707106781187,-0.707106781187));
#900 = ORIENTED_EDGE('',*,*,#901,.F.);
#901 = EDGE_CURVE('',#869,#894,#902,.T.);
#902 = LINE('',#903,#904);
#903 = CARTESIAN_POINT('',(-18.,-21.,24.6));
#904 = VECTOR('',#905,1.);
#905 = DIRECTION('',(1.,0.,0.));
#906 = PLANE('',#907);
#907 = AXIS2_PLACEMENT_3D('',#908,#909,#910);
#908 = CARTESIAN_POINT('',(-18.,-20.8,24.8));
#909 = DIRECTION('',(0.,0.707106781187,-0.707106781187));
#910 = DIRECTION('',(1.,0.,0.));
#911 = ADVANCED_FACE('',(#912),#924,.T.);
#912 = FACE_BOUND('',#913,.F.);
#913 = EDGE_LOOP('',(#914,#915,#916,#917));
#914 = ORIENTED_EDGE('',*,*,#893,.F.);
#915 = ORIENTED_EDGE('',*,*,#339,.T.);
#916 = ORIENTED_EDGE('',*,*,#710,.T.);
#917 = ORIENTED_EDGE('',*,*,#918,.F.);
#918 = EDGE_CURVE('',#894,#615,#919,.T.);
#919 = CIRCLE('',#920,3.);
#920 = AXIS2_PLACEMENT_3D('',#921,#922,#923);
#921 = CARTESIAN_POINT('',(18.,-18.,24.6));
#922 = DIRECTION('',(-0.,0.,1.));
#923 = DIRECTION('',(0.,-1.,0.));
#924 = CONICAL_SURFACE('',#925,3.,0.785398163397);
#925 = AXIS2_PLACEMENT_3D('',#926,#927,#928);
#926 = CARTESIAN_POINT('',(18.,-18.,24.6));
#927 = DIRECTION('',(-0.,-0.,-1.));
#928 = DIRECTION('',(0.,-1.,0.));
#929 = ADVANCED_FACE('',(#930),#949,.F.);
#930 = FACE_BOUND('',#931,.T.);
#931 = EDGE_LOOP('',(#932,#940,#941,#942));
#932 = ORIENTED_EDGE('',*,*,#933,.F.);
#933 = EDGE_CURVE('',#392,#934,#936,.T.);
#934 = VERTEX_POINT('',#935);
#935 = CARTESIAN_POINT('',(-13.85,-15.5,24.6));
#936 = LINE('',#937,#938);
#937 = CARTESIAN_POINT('',(-13.85,-15.5,24.6));
#938 = VECTOR('',#939,1.);
#939 = DIRECTION('',(-0.707106781187,-0.,-0.707106781187));
#940 = ORIENTED_EDGE('',*,*,#391,.T.);
#941 = ORIENTED_EDGE('',*,*,#933,.T.);
#942 = ORIENTED_EDGE('',*,*,#943,.F.);
#943 = EDGE_CURVE('',#934,#934,#944,.T.);
#944 = CIRCLE('',#945,1.65);
#945 = AXIS2_PLACEMENT_3D('',#946,#947,#948);
#946 = CARTESIAN_POINT('',(-15.5,-15.5,24.6));
#947 = DIRECTION('',(0.,0.,1.));
#948 = DIRECTION('',(1.,0.,-0.));
#949 = CONICAL_SURFACE('',#950,1.65,0.785398163397);
#950 = AXIS2_PLACEMENT_3D('',#951,#952,#953);
#951 = CARTESIAN_POINT('',(-15.5,-15.5,24.6));
#952 = DIRECTION('',(0.,0.,1.));
#953 = DIRECTION('',(1.,0.,0.));
#954 = ADVANCED_FACE('',(#955),#974,.F.);
#955 = FACE_BOUND('',#956,.T.);
#956 = EDGE_LOOP('',(#957,#965,#966,#967));
#957 = ORIENTED_EDGE('',*,*,#958,.F.);
#958 = EDGE_CURVE('',#403,#959,#961,.T.);
#959 = VERTEX_POINT('',#960);
#960 = CARTESIAN_POINT('',(17.15,-15.5,24.6));
#961 = LINE('',#962,#963);
#962 = CARTESIAN_POINT('',(17.15,-15.5,24.6));
#963 = VECTOR('',#964,1.);
#964 = DIRECTION('',(-0.707106781187,-0.,-0.707106781187));
#965 = ORIENTED_EDGE('',*,*,#402,.T.);
#966 = ORIENTED_EDGE('',*,*,#958,.T.);
#967 = ORIENTED_EDGE('',*,*,#968,.F.);
#968 = EDGE_CURVE('',#959,#959,#969,.T.);
#969 = CIRCLE('',#970,1.65);
#970 = AXIS2_PLACEMENT_3D('',#971,#972,#973);
#971 = CARTESIAN_POINT('',(15.5,-15.5,24.6));
#972 = DIRECTION('',(0.,0.,1.));
#973 = DIRECTION('',(1.,0.,-0.));
#974 = CONICAL_SURFACE('',#975,1.65,0.785398163397);
#975 = AXIS2_PLACEMENT_3D('',#976,#977,#978);
#976 = CARTESIAN_POINT('',(15.5,-15.5,24.6));
#977 = DIRECTION('',(0.,0.,1.));
#978 = DIRECTION('',(1.,0.,0.));
#979 = ADVANCED_FACE('',(#980),#999,.F.);
#980 = FACE_BOUND('',#981,.T.);
#981 = EDGE_LOOP('',(#982,#990,#991,#992));
#982 = ORIENTED_EDGE('',*,*,#983,.F.);
#983 = EDGE_CURVE('',#414,#984,#986,.T.);
#984 = VERTEX_POINT('',#985);
#985 = CARTESIAN_POINT('',(-13.85,15.5,24.6));
#986 = LINE('',#987,#988);
#987 = CARTESIAN_POINT('',(-13.85,15.5,24.6));
#988 = VECTOR('',#989,1.);
#989 = DIRECTION('',(-0.707106781187,-0.,-0.707106781187));
#990 = ORIENTED_EDGE('',*,*,#413,.T.);
#991 = ORIENTED_EDGE('',*,*,#983,.T.);
#992 = ORIENTED_EDGE('',*,*,#993,.F.);
#993 = EDGE_CURVE('',#984,#984,#994,.T.);
#994 = CIRCLE('',#995,1.65);
#995 = AXIS2_PLACEMENT_3D('',#996,#997,#998);
#996 = CARTESIAN_POINT('',(-15.5,15.5,24.6));
#997 = DIRECTION('',(0.,0.,1.));
#998 = DIRECTION('',(1.,0.,-0.));
#999 = CONICAL_SURFACE('',#1000,1.65,0.785398163397);
#1000 = AXIS2_PLACEMENT_3D('',#1001,#1002,#1003);
#1001 = CARTESIAN_POINT('',(-15.5,15.5,24.6));
#1002 = DIRECTION('',(0.,0.,1.));
#1003 = DIRECTION('',(1.,0.,0.));
#1004 = ADVANCED_FACE('',(#1005),#1024,.F.);
#1005 = FACE_BOUND('',#1006,.T.);
#1006 = EDGE_LOOP('',(#1007,#1015,#1016,#1017));
#1007 = ORIENTED_EDGE('',*,*,#1008,.F.);
#1008 = EDGE_CURVE('',#425,#1009,#1011,.T.);
#1009 = VERTEX_POINT('',#1010);
#1010 = CARTESIAN_POINT('',(17.15,15.5,24.6));
#1011 = LINE('',#1012,#1013);
#1012 = CARTESIAN_POINT('',(17.15,15.5,24.6));
#1013 = VECTOR('',#1014,1.);
#1014 = DIRECTION('',(-0.707106781187,-0.,-0.707106781187));
#1015 = ORIENTED_EDGE('',*,*,#424,.T.);
#1016 = ORIENTED_EDGE('',*,*,#1008,.T.);
#1017 = ORIENTED_EDGE('',*,*,#1018,.F.);
#1018 = EDGE_CURVE('',#1009,#1009,#1019,.T.);
#1019 = CIRCLE('',#1020,1.65);
#1020 = AXIS2_PLACEMENT_3D('',#1021,#1022,#1023);
#1021 = CARTESIAN_POINT('',(15.5,15.5,24.6));
#1022 = DIRECTION('',(0.,0.,1.));
#1023 = DIRECTION('',(1.,0.,-0.));
#1024 = CONICAL_SURFACE('',#1025,1.65,0.785398163397);
#1025 = AXIS2_PLACEMENT_3D('',#1026,#1027,#1028);
#1026 = CARTESIAN_POINT('',(15.5,15.5,24.6));
#1027 = DIRECTION('',(0.,0.,1.));
#1028 = DIRECTION('',(1.,0.,0.));
#1029 = ADVANCED_FACE('',(#1030),#1041,.T.);
#1030 = FACE_BOUND('',#1031,.T.);
#1031 = EDGE_LOOP('',(#1032,#1038,#1039,#1040));
#1032 = ORIENTED_EDGE('',*,*,#1033,.F.);
#1033 = EDGE_CURVE('',#511,#613,#1034,.T.);
#1034 = LINE('',#1035,#1036);
#1035 = CARTESIAN_POINT('',(21.,-18.,0.4));
#1036 = VECTOR('',#1037,1.);
#1037 = DIRECTION('',(0.707106781187,-4.E-17,0.707106781187));
#1038 = ORIENTED_EDGE('',*,*,#519,.T.);
#1039 = ORIENTED_EDGE('',*,*,#441,.T.);
#1040 = ORIENTED_EDGE('',*,*,#629,.F.);
#1041 = PLANE('',#1042);
#1042 = AXIS2_PLACEMENT_3D('',#1043,#1044,#1045);
#1043 = CARTESIAN_POINT('',(20.8,-18.,0.2));
#1044 = DIRECTION('',(0.707106781187,1.E-17,-0.707106781187));
#1045 = DIRECTION('',(-7.071067811865E-18,1.,7.071067811865E-18));
#1046 = ADVANCED_FACE('',(#1047),#1072,.T.);
#1047 = FACE_BOUND('',#1048,.T.);
#1048 = EDGE_LOOP('',(#1049,#1057,#1058,#1066));
#1049 = ORIENTED_EDGE('',*,*,#1050,.F.);
#1050 = EDGE_CURVE('',#467,#1051,#1053,.T.);
#1051 = VERTEX_POINT('',#1052);
#1052 = CARTESIAN_POINT('',(-15.5,21.,0.4));
#1053 = LINE('',#1054,#1055);
#1054 = CARTESIAN_POINT('',(-15.5,20.8,0.2));
#1055 = VECTOR('',#1056,1.);
#1056 = DIRECTION('',(0.,0.707106781187,0.707106781187));
#1057 = ORIENTED_EDGE('',*,*,#466,.T.);
#1058 = ORIENTED_EDGE('',*,*,#1059,.T.);
#1059 = EDGE_CURVE('',#469,#1060,#1062,.T.);
#1060 = VERTEX_POINT('',#1061);
#1061 = CARTESIAN_POINT('',(-18.,21.,0.4));
#1062 = LINE('',#1063,#1064);
#1063 = CARTESIAN_POINT('',(-18.,20.8,0.2));
#1064 = VECTOR('',#1065,1.);
#1065 = DIRECTION('',(0.,0.707106781187,0.707106781187));
#1066 = ORIENTED_EDGE('',*,*,#1067,.F.);
#1067 = EDGE_CURVE('',#1051,#1060,#1068,.T.);
#1068 = LINE('',#1069,#1070);
#1069 = CARTESIAN_POINT('',(-15.5,21.,0.4));
#1070 = VECTOR('',#1071,1.);
#1071 = DIRECTION('',(-1.,0.,0.));
#1072 = PLANE('',#1073);
#1073 = AXIS2_PLACEMENT_3D('',#1074,#1075,#1076);
#1074 = CARTESIAN_POINT('',(-15.5,20.8,0.2));
#1075 = DIRECTION('',(-1.E-17,0.707106781187,-0.707106781187));
#1076 = DIRECTION('',(-1.,-7.071067811865E-18,7.071067811865E-18));
#1077 = ADVANCED_FACE('',(#1078),#1097,.T.);
#1078 = FACE_BOUND('',#1079,.T.);
#1079 = EDGE_LOOP('',(#1080,#1088,#1089,#1090));
#1080 = ORIENTED_EDGE('',*,*,#1081,.F.);
#1081 = EDGE_CURVE('',#546,#1082,#1084,.T.);
#1082 = VERTEX_POINT('',#1083);
#1083 = CARTESIAN_POINT('',(-12.5,18.,0.4));
#1084 = LINE('',#1085,#1086);
#1085 = CARTESIAN_POINT('',(-12.7,18.,0.2));
#1086 = VECTOR('',#1087,1.);
#1087 = DIRECTION('',(0.707106781187,1.2E-16,0.707106781187));
#1088 = ORIENTED_EDGE('',*,*,#553,.T.);
#1089 = ORIENTED_EDGE('',*,*,#1050,.T.);
#1090 = ORIENTED_EDGE('',*,*,#1091,.F.);
#1091 = EDGE_CURVE('',#1082,#1051,#1092,.T.);
#1092 = CIRCLE('',#1093,3.);
#1093 = AXIS2_PLACEMENT_3D('',#1094,#1095,#1096);
#1094 = CARTESIAN_POINT('',(-15.5,18.,0.4));
#1095 = DIRECTION('',(0.,0.,1.));
#1096 = DIRECTION('',(1.,0.,-0.));
#1097 = CONICAL_SURFACE('',#1098,3.,0.785398163397);
#1098 = AXIS2_PLACEMENT_3D('',#1099,#1100,#1101);
#1099 = CARTESIAN_POINT('',(-15.5,18.,0.4));
#1100 = DIRECTION('',(0.,0.,1.));
#1101 = DIRECTION('',(1.,0.,-0.));
#1102 = ADVANCED_FACE('',(#1103),#1122,.T.);
#1103 = FACE_BOUND('',#1104,.T.);
#1104 = EDGE_LOOP('',(#1105,#1106,#1107,#1115));
#1105 = ORIENTED_EDGE('',*,*,#1059,.F.);
#1106 = ORIENTED_EDGE('',*,*,#476,.T.);
#1107 = ORIENTED_EDGE('',*,*,#1108,.T.);
#1108 = EDGE_CURVE('',#477,#1109,#1111,.T.);
#1109 = VERTEX_POINT('',#1110);
#1110 = CARTESIAN_POINT('',(-21.,18.,0.4));
#1111 = LINE('',#1112,#1113);
#1112 = CARTESIAN_POINT('',(-21.,18.,0.4));
#1113 = VECTOR('',#1114,1.);
#1114 = DIRECTION('',(-0.707106781187,4.E-17,0.707106781187));
#1115 = ORIENTED_EDGE('',*,*,#1116,.F.);
#1116 = EDGE_CURVE('',#1060,#1109,#1117,.T.);
#1117 = CIRCLE('',#1118,3.);
#1118 = AXIS2_PLACEMENT_3D('',#1119,#1120,#1121);
#1119 = CARTESIAN_POINT('',(-18.,18.,0.4));
#1120 = DIRECTION('',(0.,-0.,1.));
#1121 = DIRECTION('',(0.,1.,0.));
#1122 = CONICAL_SURFACE('',#1123,3.,0.785398163397);
#1123 = AXIS2_PLACEMENT_3D('',#1124,#1125,#1126);
#1124 = CARTESIAN_POINT('',(-18.,18.,0.4));
#1125 = DIRECTION('',(0.,0.,1.));
#1126 = DIRECTION('',(0.,1.,0.));
#1127 = ADVANCED_FACE('',(#1128),#1144,.F.);
#1128 = FACE_BOUND('',#1129,.T.);
#1129 = EDGE_LOOP('',(#1130,#1136,#1137,#1138));
#1130 = ORIENTED_EDGE('',*,*,#1131,.F.);
#1131 = EDGE_CURVE('',#537,#679,#1132,.T.);
#1132 = LINE('',#1133,#1134);
#1133 = CARTESIAN_POINT('',(-12.49999999998,2.152569362908E-05,0.4));
#1134 = VECTOR('',#1135,1.);
#1135 = DIRECTION('',(0.707106781185,-1.21767711479E-06,0.707106781187)
  );
#1136 = ORIENTED_EDGE('',*,*,#545,.T.);
#1137 = ORIENTED_EDGE('',*,*,#1081,.T.);
#1138 = ORIENTED_EDGE('',*,*,#1139,.F.);
#1139 = EDGE_CURVE('',#679,#1082,#1140,.T.);
#1140 = LINE('',#1141,#1142);
#1141 = CARTESIAN_POINT('',(-12.5,2.152569363043E-05,0.4));
#1142 = VECTOR('',#1143,1.);
#1143 = DIRECTION('',(-1.7E-16,1.,0.));
#1144 = PLANE('',#1145);
#1145 = AXIS2_PLACEMENT_3D('',#1146,#1147,#1148);
#1146 = CARTESIAN_POINT('',(-12.7,2.152569363039E-05,0.2));
#1147 = DIRECTION('',(-0.707106781187,-1.3E-16,0.707106781187));
#1148 = DIRECTION('',(1.769238815543E-16,-1.,-6.923881554251E-18));
#1149 = ADVANCED_FACE('',(#1150),#1168,.T.);
#1150 = FACE_BOUND('',#1151,.T.);
#1151 = EDGE_LOOP('',(#1152,#1153,#1154,#1162));
#1152 = ORIENTED_EDGE('',*,*,#1108,.F.);
#1153 = ORIENTED_EDGE('',*,*,#485,.T.);
#1154 = ORIENTED_EDGE('',*,*,#1155,.T.);
#1155 = EDGE_CURVE('',#486,#1156,#1158,.T.);
#1156 = VERTEX_POINT('',#1157);
#1157 = CARTESIAN_POINT('',(-21.,-18.,0.4));
#1158 = LINE('',#1159,#1160);
#1159 = CARTESIAN_POINT('',(-20.8,-18.,0.2));
#1160 = VECTOR('',#1161,1.);
#1161 = DIRECTION('',(-0.707106781187,0.,0.707106781187));
#1162 = ORIENTED_EDGE('',*,*,#1163,.F.);
#1163 = EDGE_CURVE('',#1109,#1156,#1164,.T.);
#1164 = LINE('',#1165,#1166);
#1165 = CARTESIAN_POINT('',(-21.,18.,0.4));
#1166 = VECTOR('',#1167,1.);
#1167 = DIRECTION('',(0.,-1.,0.));
#1168 = PLANE('',#1169);
#1169 = AXIS2_PLACEMENT_3D('',#1170,#1171,#1172);
#1170 = CARTESIAN_POINT('',(-20.8,18.,0.2));
#1171 = DIRECTION('',(-0.707106781187,-1.E-17,-0.707106781187));
#1172 = DIRECTION('',(7.071067811865E-18,-1.,7.071067811865E-18));
#1173 = ADVANCED_FACE('',(#1174),#1180,.F.);
#1174 = FACE_BOUND('',#1175,.T.);
#1175 = EDGE_LOOP('',(#1176,#1177,#1178,#1179));
#1176 = ORIENTED_EDGE('',*,*,#662,.F.);
#1177 = ORIENTED_EDGE('',*,*,#536,.T.);
#1178 = ORIENTED_EDGE('',*,*,#1131,.T.);
#1179 = ORIENTED_EDGE('',*,*,#678,.F.);
#1180 = CONICAL_SURFACE('',#1181,12.5,0.785398163397);
#1181 = AXIS2_PLACEMENT_3D('',#1182,#1183,#1184);
#1182 = CARTESIAN_POINT('',(0.,-0.,0.4));
#1183 = DIRECTION('',(-0.,-0.,-1.));
#1184 = DIRECTION('',(1.,-2.4E-16,0.));
#1185 = ADVANCED_FACE('',(#1186),#1205,.T.);
#1186 = FACE_BOUND('',#1187,.T.);
#1187 = EDGE_LOOP('',(#1188,#1189,#1190,#1198));
#1188 = ORIENTED_EDGE('',*,*,#1155,.F.);
#1189 = ORIENTED_EDGE('',*,*,#493,.T.);
#1190 = ORIENTED_EDGE('',*,*,#1191,.T.);
#1191 = EDGE_CURVE('',#494,#1192,#1194,.T.);
#1192 = VERTEX_POINT('',#1193);
#1193 = CARTESIAN_POINT('',(-18.,-21.,0.4));
#1194 = LINE('',#1195,#1196);
#1195 = CARTESIAN_POINT('',(-18.,-21.,0.4));
#1196 = VECTOR('',#1197,1.);
#1197 = DIRECTION('',(-4.E-17,-0.707106781187,0.707106781187));
#1198 = ORIENTED_EDGE('',*,*,#1199,.F.);
#1199 = EDGE_CURVE('',#1156,#1192,#1200,.T.);
#1200 = CIRCLE('',#1201,3.);
#1201 = AXIS2_PLACEMENT_3D('',#1202,#1203,#1204);
#1202 = CARTESIAN_POINT('',(-18.,-18.,0.4));
#1203 = DIRECTION('',(0.,0.,1.));
#1204 = DIRECTION('',(-1.,0.,0.));
#1205 = CONICAL_SURFACE('',#1206,3.,0.785398163397);
#1206 = AXIS2_PLACEMENT_3D('',#1207,#1208,#1209);
#1207 = CARTESIAN_POINT('',(-18.,-18.,0.4));
#1208 = DIRECTION('',(0.,0.,1.));
#1209 = DIRECTION('',(-1.,0.,0.));
#1210 = ADVANCED_FACE('',(#1211),#1229,.T.);
#1211 = FACE_BOUND('',#1212,.T.);
#1212 = EDGE_LOOP('',(#1213,#1214,#1215,#1223));
#1213 = ORIENTED_EDGE('',*,*,#1191,.F.);
#1214 = ORIENTED_EDGE('',*,*,#502,.T.);
#1215 = ORIENTED_EDGE('',*,*,#1216,.T.);
#1216 = EDGE_CURVE('',#503,#1217,#1219,.T.);
#1217 = VERTEX_POINT('',#1218);
#1218 = CARTESIAN_POINT('',(18.,-21.,0.4));
#1219 = LINE('',#1220,#1221);
#1220 = CARTESIAN_POINT('',(18.,-20.8,0.2));
#1221 = VECTOR('',#1222,1.);
#1222 = DIRECTION('',(0.,-0.707106781187,0.707106781187));
#1223 = ORIENTED_EDGE('',*,*,#1224,.F.);
#1224 = EDGE_CURVE('',#1192,#1217,#1225,.T.);
#1225 = LINE('',#1226,#1227);
#1226 = CARTESIAN_POINT('',(-18.,-21.,0.4));
#1227 = VECTOR('',#1228,1.);
#1228 = DIRECTION('',(1.,0.,0.));
#1229 = PLANE('',#1230);
#1230 = AXIS2_PLACEMENT_3D('',#1231,#1232,#1233);
#1231 = CARTESIAN_POINT('',(-18.,-20.8,0.2));
#1232 = DIRECTION('',(1.E-17,-0.707106781187,-0.707106781187));
#1233 = DIRECTION('',(1.,7.071067811865E-18,7.071067811865E-18));
#1234 = ADVANCED_FACE('',(#1235),#1247,.T.);
#1235 = FACE_BOUND('',#1236,.T.);
#1236 = EDGE_LOOP('',(#1237,#1238,#1239,#1240));
#1237 = ORIENTED_EDGE('',*,*,#1216,.F.);
#1238 = ORIENTED_EDGE('',*,*,#510,.T.);
#1239 = ORIENTED_EDGE('',*,*,#1033,.T.);
#1240 = ORIENTED_EDGE('',*,*,#1241,.F.);
#1241 = EDGE_CURVE('',#1217,#613,#1242,.T.);
#1242 = CIRCLE('',#1243,3.);
#1243 = AXIS2_PLACEMENT_3D('',#1244,#1245,#1246);
#1244 = CARTESIAN_POINT('',(18.,-18.,0.4));
#1245 = DIRECTION('',(-0.,0.,1.));
#1246 = DIRECTION('',(0.,-1.,0.));
#1247 = CONICAL_SURFACE('',#1248,3.,0.785398163397);
#1248 = AXIS2_PLACEMENT_3D('',#1249,#1250,#1251);
#1249 = CARTESIAN_POINT('',(18.,-18.,0.4));
#1250 = DIRECTION('',(0.,0.,1.));
#1251 = DIRECTION('',(0.,-1.,0.));
#1252 = ADVANCED_FACE('',(#1253),#1272,.F.);
#1253 = FACE_BOUND('',#1254,.F.);
#1254 = EDGE_LOOP('',(#1255,#1263,#1264,#1265));
#1255 = ORIENTED_EDGE('',*,*,#1256,.F.);
#1256 = EDGE_CURVE('',#563,#1257,#1259,.T.);
#1257 = VERTEX_POINT('',#1258);
#1258 = CARTESIAN_POINT('',(-13.85,-15.5,0.4));
#1259 = LINE('',#1260,#1261);
#1260 = CARTESIAN_POINT('',(-13.85,-15.5,0.4));
#1261 = VECTOR('',#1262,1.);
#1262 = DIRECTION('',(-0.707106781187,0.,0.707106781187));
#1263 = ORIENTED_EDGE('',*,*,#562,.T.);
#1264 = ORIENTED_EDGE('',*,*,#1256,.T.);
#1265 = ORIENTED_EDGE('',*,*,#1266,.F.);
#1266 = EDGE_CURVE('',#1257,#1257,#1267,.T.);
#1267 = CIRCLE('',#1268,1.65);
#1268 = AXIS2_PLACEMENT_3D('',#1269,#1270,#1271);
#1269 = CARTESIAN_POINT('',(-15.5,-15.5,0.4));
#1270 = DIRECTION('',(0.,0.,1.));
#1271 = DIRECTION('',(1.,0.,-0.));
#1272 = CONICAL_SURFACE('',#1273,1.65,0.785398163397);
#1273 = AXIS2_PLACEMENT_3D('',#1274,#1275,#1276);
#1274 = CARTESIAN_POINT('',(-15.5,-15.5,0.4));
#1275 = DIRECTION('',(-0.,-0.,-1.));
#1276 = DIRECTION('',(1.,0.,-0.));
#1277 = ADVANCED_FACE('',(#1278),#1297,.F.);
#1278 = FACE_BOUND('',#1279,.F.);
#1279 = EDGE_LOOP('',(#1280,#1288,#1289,#1290));
#1280 = ORIENTED_EDGE('',*,*,#1281,.F.);
#1281 = EDGE_CURVE('',#574,#1282,#1284,.T.);
#1282 = VERTEX_POINT('',#1283);
#1283 = CARTESIAN_POINT('',(17.15,-15.5,0.4));
#1284 = LINE('',#1285,#1286);
#1285 = CARTESIAN_POINT('',(17.15,-15.5,0.4));
#1286 = VECTOR('',#1287,1.);
#1287 = DIRECTION('',(-0.707106781187,0.,0.707106781187));
#1288 = ORIENTED_EDGE('',*,*,#573,.T.);
#1289 = ORIENTED_EDGE('',*,*,#1281,.T.);
#1290 = ORIENTED_EDGE('',*,*,#1291,.F.);
#1291 = EDGE_CURVE('',#1282,#1282,#1292,.T.);
#1292 = CIRCLE('',#1293,1.65);
#1293 = AXIS2_PLACEMENT_3D('',#1294,#1295,#1296);
#1294 = CARTESIAN_POINT('',(15.5,-15.5,0.4));
#1295 = DIRECTION('',(0.,0.,1.));
#1296 = DIRECTION('',(1.,0.,-0.));
#1297 = CONICAL_SURFACE('',#1298,1.65,0.785398163397);
#1298 = AXIS2_PLACEMENT_3D('',#1299,#1300,#1301);
#1299 = CARTESIAN_POINT('',(15.5,-15.5,0.4));
#1300 = DIRECTION('',(-0.,-0.,-1.));
#1301 = DIRECTION('',(1.,0.,-0.));
#1302 = ADVANCED_FACE('',(#1303),#1322,.F.);
#1303 = FACE_BOUND('',#1304,.F.);
#1304 = EDGE_LOOP('',(#1305,#1313,#1314,#1315));
#1305 = ORIENTED_EDGE('',*,*,#1306,.F.);
#1306 = EDGE_CURVE('',#585,#1307,#1309,.T.);
#1307 = VERTEX_POINT('',#1308);
#1308 = CARTESIAN_POINT('',(-13.85,15.5,0.4));
#1309 = LINE('',#1310,#1311);
#1310 = CARTESIAN_POINT('',(-13.85,15.5,0.4));
#1311 = VECTOR('',#1312,1.);
#1312 = DIRECTION('',(-0.707106781187,0.,0.707106781187));
#1313 = ORIENTED_EDGE('',*,*,#584,.T.);
#1314 = ORIENTED_EDGE('',*,*,#1306,.T.);
#1315 = ORIENTED_EDGE('',*,*,#1316,.F.);
#1316 = EDGE_CURVE('',#1307,#1307,#1317,.T.);
#1317 = CIRCLE('',#1318,1.65);
#1318 = AXIS2_PLACEMENT_3D('',#1319,#1320,#1321);
#1319 = CARTESIAN_POINT('',(-15.5,15.5,0.4));
#1320 = DIRECTION('',(0.,0.,1.));
#1321 = DIRECTION('',(1.,0.,-0.));
#1322 = CONICAL_SURFACE('',#1323,1.65,0.785398163397);
#1323 = AXIS2_PLACEMENT_3D('',#1324,#1325,#1326);
#1324 = CARTESIAN_POINT('',(-15.5,15.5,0.4));
#1325 = DIRECTION('',(-0.,-0.,-1.));
#1326 = DIRECTION('',(1.,0.,-0.));
#1327 = ADVANCED_FACE('',(#1328),#1347,.F.);
#1328 = FACE_BOUND('',#1329,.F.);
#1329 = EDGE_LOOP('',(#1330,#1338,#1339,#1340));
#1330 = ORIENTED_EDGE('',*,*,#1331,.F.);
#1331 = EDGE_CURVE('',#596,#1332,#1334,.T.);
#1332 = VERTEX_POINT('',#1333);
#1333 = CARTESIAN_POINT('',(17.15,15.5,0.4));
#1334 = LINE('',#1335,#1336);
#1335 = CARTESIAN_POINT('',(17.15,15.5,0.4));
#1336 = VECTOR('',#1337,1.);
#1337 = DIRECTION('',(-0.707106781187,0.,0.707106781187));
#1338 = ORIENTED_EDGE('',*,*,#595,.T.);
#1339 = ORIENTED_EDGE('',*,*,#1331,.T.);
#1340 = ORIENTED_EDGE('',*,*,#1341,.F.);
#1341 = EDGE_CURVE('',#1332,#1332,#1342,.T.);
#1342 = CIRCLE('',#1343,1.65);
#1343 = AXIS2_PLACEMENT_3D('',#1344,#1345,#1346);
#1344 = CARTESIAN_POINT('',(15.5,15.5,0.4));
#1345 = DIRECTION('',(0.,0.,1.));
#1346 = DIRECTION('',(1.,0.,-0.));
#1347 = CONICAL_SURFACE('',#1348,1.65,0.785398163397);
#1348 = AXIS2_PLACEMENT_3D('',#1349,#1350,#1351);
#1349 = CARTESIAN_POINT('',(15.5,15.5,0.4));
#1350 = DIRECTION('',(-0.,-0.,-1.));
#1351 = DIRECTION('',(1.,0.,-0.));
#1352 = ADVANCED_FACE('',(#1353),#1364,.T.);
#1353 = FACE_BOUND('',#1354,.F.);
#1354 = EDGE_LOOP('',(#1355,#1356,#1357,#1363));
#1355 = ORIENTED_EDGE('',*,*,#612,.F.);
#1356 = ORIENTED_EDGE('',*,*,#1241,.F.);
#1357 = ORIENTED_EDGE('',*,*,#1358,.T.);
#1358 = EDGE_CURVE('',#1217,#894,#1359,.T.);
#1359 = LINE('',#1360,#1361);
#1360 = CARTESIAN_POINT('',(18.,-21.,0.));
#1361 = VECTOR('',#1362,1.);
#1362 = DIRECTION('',(0.,0.,1.));
#1363 = ORIENTED_EDGE('',*,*,#918,.T.);
#1364 = CYLINDRICAL_SURFACE('',#1365,3.);
#1365 = AXIS2_PLACEMENT_3D('',#1366,#1367,#1368);
#1366 = CARTESIAN_POINT('',(18.,-18.,0.));
#1367 = DIRECTION('',(0.,0.,1.));
#1368 = DIRECTION('',(1.,0.,0.));
#1369 = ADVANCED_FACE('',(#1370),#1381,.T.);
#1370 = FACE_BOUND('',#1371,.T.);
#1371 = EDGE_LOOP('',(#1372,#1378,#1379,#1380));
#1372 = ORIENTED_EDGE('',*,*,#1373,.F.);
#1373 = EDGE_CURVE('',#759,#1082,#1374,.T.);
#1374 = LINE('',#1375,#1376);
#1375 = CARTESIAN_POINT('',(-12.5,18.,25.));
#1376 = VECTOR('',#1377,1.);
#1377 = DIRECTION('',(-0.,-0.,-1.));
#1378 = ORIENTED_EDGE('',*,*,#816,.F.);
#1379 = ORIENTED_EDGE('',*,*,#687,.T.);
#1380 = ORIENTED_EDGE('',*,*,#1139,.T.);
#1381 = PLANE('',#1382);
#1382 = AXIS2_PLACEMENT_3D('',#1383,#1384,#1385);
#1383 = CARTESIAN_POINT('',(-12.5,2.152569363043E-05,25.));
#1384 = DIRECTION('',(1.,1.7E-16,0.));
#1385 = DIRECTION('',(-1.7E-16,1.,0.));
#1386 = ADVANCED_FACE('',(#1387),#1403,.F.);
#1387 = FACE_BOUND('',#1388,.F.);
#1388 = EDGE_LOOP('',(#1389,#1395,#1396,#1402));
#1389 = ORIENTED_EDGE('',*,*,#1390,.F.);
#1390 = EDGE_CURVE('',#728,#1051,#1391,.T.);
#1391 = LINE('',#1392,#1393);
#1392 = CARTESIAN_POINT('',(-15.5,21.,25.));
#1393 = VECTOR('',#1394,1.);
#1394 = DIRECTION('',(-0.,-0.,-1.));
#1395 = ORIENTED_EDGE('',*,*,#744,.T.);
#1396 = ORIENTED_EDGE('',*,*,#1397,.F.);
#1397 = EDGE_CURVE('',#1060,#737,#1398,.T.);
#1398 = LINE('',#1399,#1400);
#1399 = CARTESIAN_POINT('',(-18.,21.,0.));
#1400 = VECTOR('',#1401,1.);
#1401 = DIRECTION('',(0.,0.,1.));
#1402 = ORIENTED_EDGE('',*,*,#1067,.F.);
#1403 = PLANE('',#1404);
#1404 = AXIS2_PLACEMENT_3D('',#1405,#1406,#1407);
#1405 = CARTESIAN_POINT('',(21.,21.,0.));
#1406 = DIRECTION('',(0.,-1.,0.));
#1407 = DIRECTION('',(-1.,0.,0.));
#1408 = ADVANCED_FACE('',(#1409),#1415,.T.);
#1409 = FACE_BOUND('',#1410,.T.);
#1410 = EDGE_LOOP('',(#1411,#1412,#1413,#1414));
#1411 = ORIENTED_EDGE('',*,*,#1390,.F.);
#1412 = ORIENTED_EDGE('',*,*,#768,.F.);
#1413 = ORIENTED_EDGE('',*,*,#1373,.T.);
#1414 = ORIENTED_EDGE('',*,*,#1091,.T.);
#1415 = CYLINDRICAL_SURFACE('',#1416,3.);
#1416 = AXIS2_PLACEMENT_3D('',#1417,#1418,#1419);
#1417 = CARTESIAN_POINT('',(-15.5,18.,25.));
#1418 = DIRECTION('',(-0.,-0.,-1.));
#1419 = DIRECTION('',(0.,1.,0.));
#1420 = ADVANCED_FACE('',(#1421),#1432,.T.);
#1421 = FACE_BOUND('',#1422,.T.);
#1422 = EDGE_LOOP('',(#1423,#1424,#1425,#1431));
#1423 = ORIENTED_EDGE('',*,*,#1397,.F.);
#1424 = ORIENTED_EDGE('',*,*,#1116,.T.);
#1425 = ORIENTED_EDGE('',*,*,#1426,.T.);
#1426 = EDGE_CURVE('',#1109,#786,#1427,.T.);
#1427 = LINE('',#1428,#1429);
#1428 = CARTESIAN_POINT('',(-21.,18.,0.));
#1429 = VECTOR('',#1430,1.);
#1430 = DIRECTION('',(0.,0.,1.));
#1431 = ORIENTED_EDGE('',*,*,#793,.F.);
#1432 = CYLINDRICAL_SURFACE('',#1433,3.);
#1433 = AXIS2_PLACEMENT_3D('',#1434,#1435,#1436);
#1434 = CARTESIAN_POINT('',(-18.,18.,0.));
#1435 = DIRECTION('',(0.,0.,1.));
#1436 = DIRECTION('',(0.,1.,0.));
#1437 = ADVANCED_FACE('',(#1438),#1449,.F.);
#1438 = FACE_BOUND('',#1439,.F.);
#1439 = EDGE_LOOP('',(#1440,#1441,#1442,#1448));
#1440 = ORIENTED_EDGE('',*,*,#1426,.T.);
#1441 = ORIENTED_EDGE('',*,*,#840,.T.);
#1442 = ORIENTED_EDGE('',*,*,#1443,.F.);
#1443 = EDGE_CURVE('',#1156,#833,#1444,.T.);
#1444 = LINE('',#1445,#1446);
#1445 = CARTESIAN_POINT('',(-21.,-18.,0.));
#1446 = VECTOR('',#1447,1.);
#1447 = DIRECTION('',(0.,0.,1.));
#1448 = ORIENTED_EDGE('',*,*,#1163,.F.);
#1449 = PLANE('',#1450);
#1450 = AXIS2_PLACEMENT_3D('',#1451,#1452,#1453);
#1451 = CARTESIAN_POINT('',(-21.,21.,0.));
#1452 = DIRECTION('',(1.,0.,0.));
#1453 = DIRECTION('',(0.,-1.,0.));
#1454 = ADVANCED_FACE('',(#1455),#1466,.T.);
#1455 = FACE_BOUND('',#1456,.F.);
#1456 = EDGE_LOOP('',(#1457,#1463,#1464,#1465));
#1457 = ORIENTED_EDGE('',*,*,#1458,.F.);
#1458 = EDGE_CURVE('',#1192,#869,#1459,.T.);
#1459 = LINE('',#1460,#1461);
#1460 = CARTESIAN_POINT('',(-18.,-21.,0.));
#1461 = VECTOR('',#1462,1.);
#1462 = DIRECTION('',(0.,0.,1.));
#1463 = ORIENTED_EDGE('',*,*,#1199,.F.);
#1464 = ORIENTED_EDGE('',*,*,#1443,.T.);
#1465 = ORIENTED_EDGE('',*,*,#876,.T.);
#1466 = CYLINDRICAL_SURFACE('',#1467,3.);
#1467 = AXIS2_PLACEMENT_3D('',#1468,#1469,#1470);
#1468 = CARTESIAN_POINT('',(-18.,-18.,0.));
#1469 = DIRECTION('',(0.,0.,1.));
#1470 = DIRECTION('',(0.,-1.,0.));
#1471 = ADVANCED_FACE('',(#1472),#1478,.F.);
#1472 = FACE_BOUND('',#1473,.F.);
#1473 = EDGE_LOOP('',(#1474,#1475,#1476,#1477));
#1474 = ORIENTED_EDGE('',*,*,#1458,.T.);
#1475 = ORIENTED_EDGE('',*,*,#901,.T.);
#1476 = ORIENTED_EDGE('',*,*,#1358,.F.);
#1477 = ORIENTED_EDGE('',*,*,#1224,.F.);
#1478 = PLANE('',#1479);
#1479 = AXIS2_PLACEMENT_3D('',#1480,#1481,#1482);
#1480 = CARTESIAN_POINT('',(-21.,-21.,0.));
#1481 = DIRECTION('',(0.,1.,0.));
#1482 = DIRECTION('',(1.,0.,0.));
#1483 = ADVANCED_FACE('',(#1484),#1495,.F.);
#1484 = FACE_BOUND('',#1485,.T.);
#1485 = EDGE_LOOP('',(#1486,#1492,#1493,#1494));
#1486 = ORIENTED_EDGE('',*,*,#1487,.T.);
#1487 = EDGE_CURVE('',#1257,#934,#1488,.T.);
#1488 = LINE('',#1489,#1490);
#1489 = CARTESIAN_POINT('',(-13.85,-15.5,0.));
#1490 = VECTOR('',#1491,1.);
#1491 = DIRECTION('',(0.,0.,1.));
#1492 = ORIENTED_EDGE('',*,*,#943,.T.);
#1493 = ORIENTED_EDGE('',*,*,#1487,.F.);
#1494 = ORIENTED_EDGE('',*,*,#1266,.F.);
#1495 = CYLINDRICAL_SURFACE('',#1496,1.65);
#1496 = AXIS2_PLACEMENT_3D('',#1497,#1498,#1499);
#1497 = CARTESIAN_POINT('',(-15.5,-15.5,0.));
#1498 = DIRECTION('',(-0.,-0.,-1.));
#1499 = DIRECTION('',(1.,0.,0.));
#1500 = ADVANCED_FACE('',(#1501),#1512,.F.);
#1501 = FACE_BOUND('',#1502,.T.);
#1502 = EDGE_LOOP('',(#1503,#1509,#1510,#1511));
#1503 = ORIENTED_EDGE('',*,*,#1504,.T.);
#1504 = EDGE_CURVE('',#1282,#959,#1505,.T.);
#1505 = LINE('',#1506,#1507);
#1506 = CARTESIAN_POINT('',(17.15,-15.5,0.));
#1507 = VECTOR('',#1508,1.);
#1508 = DIRECTION('',(0.,0.,1.));
#1509 = ORIENTED_EDGE('',*,*,#968,.T.);
#1510 = ORIENTED_EDGE('',*,*,#1504,.F.);
#1511 = ORIENTED_EDGE('',*,*,#1291,.F.);
#1512 = CYLINDRICAL_SURFACE('',#1513,1.65);
#1513 = AXIS2_PLACEMENT_3D('',#1514,#1515,#1516);
#1514 = CARTESIAN_POINT('',(15.5,-15.5,0.));
#1515 = DIRECTION('',(-0.,-0.,-1.));
#1516 = DIRECTION('',(1.,0.,0.));
#1517 = ADVANCED_FACE('',(#1518),#1529,.F.);
#1518 = FACE_BOUND('',#1519,.T.);
#1519 = EDGE_LOOP('',(#1520,#1526,#1527,#1528));
#1520 = ORIENTED_EDGE('',*,*,#1521,.T.);
#1521 = EDGE_CURVE('',#1307,#984,#1522,.T.);
#1522 = LINE('',#1523,#1524);
#1523 = CARTESIAN_POINT('',(-13.85,15.5,0.));
#1524 = VECTOR('',#1525,1.);
#1525 = DIRECTION('',(0.,0.,1.));
#1526 = ORIENTED_EDGE('',*,*,#993,.T.);
#1527 = ORIENTED_EDGE('',*,*,#1521,.F.);
#1528 = ORIENTED_EDGE('',*,*,#1316,.F.);
#1529 = CYLINDRICAL_SURFACE('',#1530,1.65);
#1530 = AXIS2_PLACEMENT_3D('',#1531,#1532,#1533);
#1531 = CARTESIAN_POINT('',(-15.5,15.5,0.));
#1532 = DIRECTION('',(-0.,-0.,-1.));
#1533 = DIRECTION('',(1.,0.,0.));
#1534 = ADVANCED_FACE('',(#1535),#1546,.F.);
#1535 = FACE_BOUND('',#1536,.T.);
#1536 = EDGE_LOOP('',(#1537,#1543,#1544,#1545));
#1537 = ORIENTED_EDGE('',*,*,#1538,.T.);
#1538 = EDGE_CURVE('',#1332,#1009,#1539,.T.);
#1539 = LINE('',#1540,#1541);
#1540 = CARTESIAN_POINT('',(17.15,15.5,0.));
#1541 = VECTOR('',#1542,1.);
#1542 = DIRECTION('',(0.,0.,1.));
#1543 = ORIENTED_EDGE('',*,*,#1018,.T.);
#1544 = ORIENTED_EDGE('',*,*,#1538,.F.);
#1545 = ORIENTED_EDGE('',*,*,#1341,.F.);
#1546 = CYLINDRICAL_SURFACE('',#1547,1.65);
#1547 = AXIS2_PLACEMENT_3D('',#1548,#1549,#1550);
#1548 = CARTESIAN_POINT('',(15.5,15.5,0.));
#1549 = DIRECTION('',(-0.,-0.,-1.));
#1550 = DIRECTION('',(1.,0.,0.));
#1551 = ( GEOMETRIC_REPRESENTATION_CONTEXT(3) 
GLOBAL_UNCERTAINTY_ASSIGNED_CONTEXT((#1555)) 
GLOBAL_UNIT_ASSIGNED_CONTEXT((#1552,#1553,#1554)) REPRESENTATION_CONTEXT
('Context #1','3D Context with UNIT and UNCERTAINTY') );
#1552 = ( LENGTH_UNIT() NAMED_UNIT(*) SI_UNIT(.MILLI.,.METRE.) );
#1553 = ( NAMED_UNIT(*) PLANE_ANGLE_UNIT() SI_UNIT($,.RADIAN.) );
#1554 = ( NAMED_UNIT(*) SI_UNIT($,.STERADIAN.) SOLID_ANGLE_UNIT() );
#1555 = UNCERTAINTY_MEASURE_WITH_UNIT(LENGTH_MEASURE(2.E-06),#1552,
  'distance_accuracy_value','confusion accuracy');
#1556 = PRODUCT_RELATED_PRODUCT_CATEGORY('part',$,(#7));
#1557 = MECHANICAL_DESIGN_GEOMETRIC_PRESENTATION_REPRESENTATION('',(
    #1558),#1551);
#1558 = STYLED_ITEM('color',(#1559),#15);
#1559 = PRESENTATION_STYLE_ASSIGNMENT((#1560,#1566));
#1560 = SURFACE_STYLE_USAGE(.BOTH.,#1561);
#1561 = SURFACE_SIDE_STYLE('',(#1562));
#1562 = SURFACE_STYLE_FILL_AREA(#1563);
#1563 = FILL_AREA_STYLE('',(#1564));
#1564 = FILL_AREA_STYLE_COLOUR('',#1565);
#1565 = COLOUR_RGB('',0.447058818107,0.474509808674,0.501960817233);
#1566 = CURVE_STYLE('',#1567,POSITIVE_LENGTH_MEASURE(0.1),#1568);
#1567 = DRAUGHTING_PRE_DEFINED_CURVE_FONT('continuous');
#1568 = COLOUR_RGB('',9.803921802644E-02,9.803921802644E-02,
  9.803921802644E-02);
ENDSEC;
END-ISO-10303-21;
