ISO-10303-21;
HEADER;
/* Generated by software containing ST-Developer
 * from STEP Tools, Inc. (www.steptools.com) 
 */

FILE_DESCRIPTION(
/* description */ ('FreeCAD Model'),
/* implementation_level */ '2;1');

FILE_NAME(
/* name */ 'Z-axis_mod-Coupling_box.step',
/* time_stamp */ '2026-10-02T13:41:32-07:00',
/* author */ (''),
/* organization */ (''),
/* preprocessor_version */ 'ST-DEVELOPER v20.1',
/* originating_system */ 'Autodesk Translation Framework v15.8.0.0',
/* authorisation */ '');

FILE_SCHEMA (('AUTOMOTIVE_DESIGN { 1 0 10303 214 3 1 1 }'));
ENDSEC;

DATA;
#10=MECHANICAL_DESIGN_GEOMETRIC_PRESENTATION_REPRESENTATION('',(#13),#2138);
#11=SHAPE_REPRESENTATION_RELATIONSHIP('SRR','None',#2145,#12);
#12=ADVANCED_BREP_SHAPE_REPRESENTATION('',(#14),#2137);
#13=STYLED_ITEM('',(#2155),#14);
#14=MANIFOLD_SOLID_BREP('Z-axis_mod-Coupling_box-shcs',#1227);
#15=TOROIDAL_SURFACE('',#1294,1.4,1.);
#16=TOROIDAL_SURFACE('',#1299,1.4,1.);
#17=TOROIDAL_SURFACE('',#1336,1.4,1.);
#18=TOROIDAL_SURFACE('',#1372,1.4,1.);
#19=TOROIDAL_SURFACE('',#1374,1.4,1.);
#20=TOROIDAL_SURFACE('',#1380,1.4,1.);
#21=TOROIDAL_SURFACE('',#1382,11.,1.);
#22=CYLINDRICAL_SURFACE('',#1249,11.1);
#23=CYLINDRICAL_SURFACE('',#1264,1.7);
#24=CYLINDRICAL_SURFACE('',#1269,1.7);
#25=CYLINDRICAL_SURFACE('',#1274,1.7);
#26=CYLINDRICAL_SURFACE('',#1279,1.7);
#27=CYLINDRICAL_SURFACE('',#1292,1.);
#28=CYLINDRICAL_SURFACE('',#1297,1.);
#29=CYLINDRICAL_SURFACE('',#1302,1.);
#30=CYLINDRICAL_SURFACE('',#1304,2.4);
#31=CYLINDRICAL_SURFACE('',#1307,2.4);
#32=CYLINDRICAL_SURFACE('',#1330,1.);
#33=CYLINDRICAL_SURFACE('',#1333,2.4);
#34=CYLINDRICAL_SURFACE('',#1339,3.75);
#35=CYLINDRICAL_SURFACE('',#1346,2.4);
#36=CYLINDRICAL_SURFACE('',#1348,3.75);
#37=CYLINDRICAL_SURFACE('',#1353,2.4);
#38=CYLINDRICAL_SURFACE('',#1355,2.4);
#39=CYLINDRICAL_SURFACE('',#1358,10.);
#40=CYLINDRICAL_SURFACE('',#1360,2.4);
#41=CYLINDRICAL_SURFACE('',#1364,2.4);
#42=CYLINDRICAL_SURFACE('',#1367,1.);
#43=CYLINDRICAL_SURFACE('',#1370,1.);
#44=CYLINDRICAL_SURFACE('',#1376,1.);
#45=CYLINDRICAL_SURFACE('',#1378,1.);
#46=CYLINDRICAL_SURFACE('',#1384,1.);
#47=FACE_BOUND('',#152,.T.);
#48=FACE_BOUND('',#153,.T.);
#49=FACE_BOUND('',#154,.T.);
#50=FACE_BOUND('',#158,.T.);
#51=FACE_BOUND('',#159,.T.);
#52=FACE_BOUND('',#160,.T.);
#53=FACE_BOUND('',#161,.T.);
#54=FACE_BOUND('',#187,.T.);
#55=FACE_BOUND('',#188,.T.);
#56=FACE_BOUND('',#189,.T.);
#57=FACE_BOUND('',#190,.T.);
#58=FACE_BOUND('',#229,.T.);
#59=PLANE('',#1244);
#60=PLANE('',#1255);
#61=PLANE('',#1284);
#62=PLANE('',#1288);
#63=PLANE('',#1291);
#64=PLANE('',#1303);
#65=PLANE('',#1306);
#66=PLANE('',#1309);
#67=PLANE('',#1310);
#68=PLANE('',#1313);
#69=PLANE('',#1338);
#70=PLANE('',#1341);
#71=PLANE('',#1342);
#72=PLANE('',#1343);
#73=PLANE('',#1344);
#74=PLANE('',#1345);
#75=PLANE('',#1351);
#76=PLANE('',#1352);
#77=PLANE('',#1357);
#78=PLANE('',#1362);
#79=PLANE('',#1363);
#80=PLANE('',#1366);
#81=PLANE('',#1386);
#82=FACE_OUTER_BOUND('',#150,.T.);
#83=FACE_OUTER_BOUND('',#151,.T.);
#84=FACE_OUTER_BOUND('',#155,.T.);
#85=FACE_OUTER_BOUND('',#156,.T.);
#86=FACE_OUTER_BOUND('',#157,.T.);
#87=FACE_OUTER_BOUND('',#162,.T.);
#88=FACE_OUTER_BOUND('',#163,.T.);
#89=FACE_OUTER_BOUND('',#164,.T.);
#90=FACE_OUTER_BOUND('',#165,.T.);
#91=FACE_OUTER_BOUND('',#166,.T.);
#92=FACE_OUTER_BOUND('',#167,.T.);
#93=FACE_OUTER_BOUND('',#168,.T.);
#94=FACE_OUTER_BOUND('',#169,.T.);
#95=FACE_OUTER_BOUND('',#170,.T.);
#96=FACE_OUTER_BOUND('',#171,.T.);
#97=FACE_OUTER_BOUND('',#172,.T.);
#98=FACE_OUTER_BOUND('',#173,.T.);
#99=FACE_OUTER_BOUND('',#174,.T.);
#100=FACE_OUTER_BOUND('',#175,.T.);
#101=FACE_OUTER_BOUND('',#176,.T.);
#102=FACE_OUTER_BOUND('',#177,.T.);
#103=FACE_OUTER_BOUND('',#178,.T.);
#104=FACE_OUTER_BOUND('',#179,.T.);
#105=FACE_OUTER_BOUND('',#180,.T.);
#106=FACE_OUTER_BOUND('',#181,.T.);
#107=FACE_OUTER_BOUND('',#182,.T.);
#108=FACE_OUTER_BOUND('',#183,.T.);
#109=FACE_OUTER_BOUND('',#184,.T.);
#110=FACE_OUTER_BOUND('',#185,.T.);
#111=FACE_OUTER_BOUND('',#186,.T.);
#112=FACE_OUTER_BOUND('',#191,.T.);
#113=FACE_OUTER_BOUND('',#192,.T.);
#114=FACE_OUTER_BOUND('',#193,.T.);
#115=FACE_OUTER_BOUND('',#194,.T.);
#116=FACE_OUTER_BOUND('',#195,.T.);
#117=FACE_OUTER_BOUND('',#196,.T.);
#118=FACE_OUTER_BOUND('',#197,.T.);
#119=FACE_OUTER_BOUND('',#198,.T.);
#120=FACE_OUTER_BOUND('',#199,.T.);
#121=FACE_OUTER_BOUND('',#200,.T.);
#122=FACE_OUTER_BOUND('',#201,.T.);
#123=FACE_OUTER_BOUND('',#202,.T.);
#124=FACE_OUTER_BOUND('',#203,.T.);
#125=FACE_OUTER_BOUND('',#204,.T.);
#126=FACE_OUTER_BOUND('',#205,.T.);
#127=FACE_OUTER_BOUND('',#206,.T.);
#128=FACE_OUTER_BOUND('',#207,.T.);
#129=FACE_OUTER_BOUND('',#208,.T.);
#130=FACE_OUTER_BOUND('',#209,.T.);
#131=FACE_OUTER_BOUND('',#210,.T.);
#132=FACE_OUTER_BOUND('',#211,.T.);
#133=FACE_OUTER_BOUND('',#212,.T.);
#134=FACE_OUTER_BOUND('',#213,.T.);
#135=FACE_OUTER_BOUND('',#214,.T.);
#136=FACE_OUTER_BOUND('',#215,.T.);
#137=FACE_OUTER_BOUND('',#216,.T.);
#138=FACE_OUTER_BOUND('',#217,.T.);
#139=FACE_OUTER_BOUND('',#218,.T.);
#140=FACE_OUTER_BOUND('',#219,.T.);
#141=FACE_OUTER_BOUND('',#220,.T.);
#142=FACE_OUTER_BOUND('',#221,.T.);
#143=FACE_OUTER_BOUND('',#222,.T.);
#144=FACE_OUTER_BOUND('',#223,.T.);
#145=FACE_OUTER_BOUND('',#224,.T.);
#146=FACE_OUTER_BOUND('',#225,.T.);
#147=FACE_OUTER_BOUND('',#226,.T.);
#148=FACE_OUTER_BOUND('',#227,.T.);
#149=FACE_OUTER_BOUND('',#228,.T.);
#150=EDGE_LOOP('',(#792,#793,#794,#795));
#151=EDGE_LOOP('',(#796,#797,#798,#799,#800,#801));
#152=EDGE_LOOP('',(#802));
#153=EDGE_LOOP('',(#803));
#154=EDGE_LOOP('',(#804));
#155=EDGE_LOOP('',(#805,#806,#807,#808));
#156=EDGE_LOOP('',(#809,#810,#811,#812,#813));
#157=EDGE_LOOP('',(#814,#815,#816,#817,#818,#819,#820,#821,#822,#823,#824,
#825));
#158=EDGE_LOOP('',(#826));
#159=EDGE_LOOP('',(#827));
#160=EDGE_LOOP('',(#828));
#161=EDGE_LOOP('',(#829));
#162=EDGE_LOOP('',(#830,#831,#832,#833,#834));
#163=EDGE_LOOP('',(#835,#836,#837,#838,#839));
#164=EDGE_LOOP('',(#840,#841,#842,#843,#844));
#165=EDGE_LOOP('',(#845,#846,#847,#848,#849));
#166=EDGE_LOOP('',(#850,#851,#852,#853,#854));
#167=EDGE_LOOP('',(#855,#856,#857,#858,#859));
#168=EDGE_LOOP('',(#860,#861,#862,#863,#864));
#169=EDGE_LOOP('',(#865,#866,#867,#868));
#170=EDGE_LOOP('',(#869,#870,#871,#872));
#171=EDGE_LOOP('',(#873,#874,#875,#876));
#172=EDGE_LOOP('',(#877,#878,#879,#880,#881,#882,#883,#884));
#173=EDGE_LOOP('',(#885,#886,#887,#888));
#174=EDGE_LOOP('',(#889,#890,#891,#892));
#175=EDGE_LOOP('',(#893,#894,#895,#896));
#176=EDGE_LOOP('',(#897,#898,#899,#900));
#177=EDGE_LOOP('',(#901,#902,#903,#904));
#178=EDGE_LOOP('',(#905,#906,#907,#908));
#179=EDGE_LOOP('',(#909,#910,#911,#912,#913,#914));
#180=EDGE_LOOP('',(#915,#916,#917,#918));
#181=EDGE_LOOP('',(#919,#920,#921,#922,#923,#924,#925,#926));
#182=EDGE_LOOP('',(#927,#928,#929,#930));
#183=EDGE_LOOP('',(#931,#932,#933,#934,#935,#936));
#184=EDGE_LOOP('',(#937,#938,#939,#940));
#185=EDGE_LOOP('',(#941,#942,#943,#944));
#186=EDGE_LOOP('',(#945,#946,#947,#948,#949,#950,#951,#952,#953,#954,#955,
#956,#957,#958,#959,#960,#961,#962,#963,#964,#965,#966,#967,#968,#969,#970,
#971));
#187=EDGE_LOOP('',(#972));
#188=EDGE_LOOP('',(#973));
#189=EDGE_LOOP('',(#974));
#190=EDGE_LOOP('',(#975));
#191=EDGE_LOOP('',(#976,#977,#978,#979));
#192=EDGE_LOOP('',(#980,#981,#982,#983));
#193=EDGE_LOOP('',(#984,#985,#986,#987));
#194=EDGE_LOOP('',(#988,#989,#990,#991));
#195=EDGE_LOOP('',(#992,#993,#994,#995));
#196=EDGE_LOOP('',(#996,#997,#998,#999));
#197=EDGE_LOOP('',(#1000,#1001,#1002,#1003));
#198=EDGE_LOOP('',(#1004,#1005,#1006,#1007));
#199=EDGE_LOOP('',(#1008,#1009,#1010,#1011,#1012,#1013,#1014,#1015));
#200=EDGE_LOOP('',(#1016,#1017,#1018,#1019));
#201=EDGE_LOOP('',(#1020,#1021,#1022,#1023));
#202=EDGE_LOOP('',(#1024,#1025,#1026,#1027));
#203=EDGE_LOOP('',(#1028,#1029,#1030,#1031));
#204=EDGE_LOOP('',(#1032,#1033,#1034,#1035));
#205=EDGE_LOOP('',(#1036,#1037,#1038,#1039));
#206=EDGE_LOOP('',(#1040,#1041,#1042,#1043,#1044,#1045,#1046,#1047));
#207=EDGE_LOOP('',(#1048,#1049,#1050,#1051));
#208=EDGE_LOOP('',(#1052,#1053,#1054,#1055));
#209=EDGE_LOOP('',(#1056,#1057,#1058,#1059));
#210=EDGE_LOOP('',(#1060,#1061,#1062,#1063));
#211=EDGE_LOOP('',(#1064,#1065,#1066,#1067));
#212=EDGE_LOOP('',(#1068,#1069,#1070,#1071));
#213=EDGE_LOOP('',(#1072,#1073,#1074,#1075));
#214=EDGE_LOOP('',(#1076,#1077,#1078,#1079));
#215=EDGE_LOOP('',(#1080,#1081,#1082,#1083));
#216=EDGE_LOOP('',(#1084,#1085,#1086,#1087));
#217=EDGE_LOOP('',(#1088,#1089,#1090,#1091));
#218=EDGE_LOOP('',(#1092,#1093,#1094,#1095));
#219=EDGE_LOOP('',(#1096,#1097,#1098,#1099));
#220=EDGE_LOOP('',(#1100,#1101,#1102,#1103));
#221=EDGE_LOOP('',(#1104,#1105,#1106,#1107));
#222=EDGE_LOOP('',(#1108,#1109,#1110,#1111));
#223=EDGE_LOOP('',(#1112,#1113,#1114,#1115));
#224=EDGE_LOOP('',(#1116,#1117,#1118,#1119));
#225=EDGE_LOOP('',(#1120,#1121,#1122,#1123));
#226=EDGE_LOOP('',(#1124,#1125,#1126,#1127));
#227=EDGE_LOOP('',(#1128,#1129,#1130,#1131));
#228=EDGE_LOOP('',(#1132,#1133,#1134,#1135,#1136,#1137,#1138,#1139,#1140,
#1141,#1142,#1143,#1144));
#229=EDGE_LOOP('',(#1145));
#230=LINE('',#1785,#329);
#231=LINE('',#1790,#330);
#232=LINE('',#1792,#331);
#233=LINE('',#1796,#332);
#234=LINE('',#1799,#333);
#235=LINE('',#1807,#334);
#236=LINE('',#1812,#335);
#237=LINE('',#1819,#336);
#238=LINE('',#1823,#337);
#239=LINE('',#1827,#338);
#240=LINE('',#1831,#339);
#241=LINE('',#1835,#340);
#242=LINE('',#1839,#341);
#243=LINE('',#1840,#342);
#244=LINE('',#1850,#343);
#245=LINE('',#1853,#344);
#246=LINE('',#1860,#345);
#247=LINE('',#1863,#346);
#248=LINE('',#1870,#347);
#249=LINE('',#1873,#348);
#250=LINE('',#1880,#349);
#251=LINE('',#1884,#350);
#252=LINE('',#1887,#351);
#253=LINE('',#1891,#352);
#254=LINE('',#1892,#353);
#255=LINE('',#1896,#354);
#256=LINE('',#1901,#355);
#257=LINE('',#1905,#356);
#258=LINE('',#1908,#357);
#259=LINE('',#1911,#358);
#260=LINE('',#1912,#359);
#261=LINE('',#1916,#360);
#262=LINE('',#1924,#361);
#263=LINE('',#1930,#362);
#264=LINE('',#1933,#363);
#265=LINE('',#1935,#364);
#266=LINE('',#1937,#365);
#267=LINE('',#1938,#366);
#268=LINE('',#1941,#367);
#269=LINE('',#1945,#368);
#270=LINE('',#1947,#369);
#271=LINE('',#1949,#370);
#272=LINE('',#1951,#371);
#273=LINE('',#1953,#372);
#274=LINE('',#1954,#373);
#275=LINE('',#1957,#374);
#276=LINE('',#1961,#375);
#277=LINE('',#1963,#376);
#278=LINE('',#1965,#377);
#279=LINE('',#1966,#378);
#280=LINE('',#1968,#379);
#281=LINE('',#1972,#380);
#282=LINE('',#1980,#381);
#283=LINE('',#1982,#382);
#284=LINE('',#1984,#383);
#285=LINE('',#1988,#384);
#286=LINE('',#1990,#385);
#287=LINE('',#1995,#386);
#288=LINE('',#1999,#387);
#289=LINE('',#2003,#388);
#290=LINE('',#2007,#389);
#291=LINE('',#2012,#390);
#292=LINE('',#2013,#391);
#293=LINE('',#2021,#392);
#294=LINE('',#2023,#393);
#295=LINE('',#2025,#394);
#296=LINE('',#2031,#395);
#297=LINE('',#2034,#396);
#298=LINE('',#2039,#397);
#299=LINE('',#2040,#398);
#300=LINE('',#2042,#399);
#301=LINE('',#2044,#400);
#302=LINE('',#2047,#401);
#303=LINE('',#2050,#402);
#304=LINE('',#2051,#403);
#305=LINE('',#2054,#404);
#306=LINE('',#2055,#405);
#307=LINE('',#2058,#406);
#308=LINE('',#2059,#407);
#309=LINE('',#2062,#408);
#310=LINE('',#2063,#409);
#311=LINE('',#2066,#410);
#312=LINE('',#2067,#411);
#313=LINE('',#2072,#412);
#314=LINE('',#2075,#413);
#315=LINE('',#2079,#414);
#316=LINE('',#2080,#415);
#317=LINE('',#2083,#416);
#318=LINE('',#2084,#417);
#319=LINE('',#2089,#418);
#320=LINE('',#2093,#419);
#321=LINE('',#2094,#420);
#322=LINE('',#2097,#421);
#323=LINE('',#2101,#422);
#324=LINE('',#2105,#423);
#325=LINE('',#2106,#424);
#326=LINE('',#2109,#425);
#327=LINE('',#2110,#426);
#328=LINE('',#2114,#427);
#329=VECTOR('',#1393,11.35);
#330=VECTOR('',#1398,10.);
#331=VECTOR('',#1399,10.);
#332=VECTOR('',#1402,10.);
#333=VECTOR('',#1405,10.);
#334=VECTOR('',#1414,11.1);
#335=VECTOR('',#1419,1.95);
#336=VECTOR('',#1426,1.);
#337=VECTOR('',#1429,1.);
#338=VECTOR('',#1432,1.);
#339=VECTOR('',#1435,1.);
#340=VECTOR('',#1438,1.);
#341=VECTOR('',#1441,1.);
#342=VECTOR('',#1442,1.);
#343=VECTOR('',#1453,1.7);
#344=VECTOR('',#1456,1.95);
#345=VECTOR('',#1465,1.7);
#346=VECTOR('',#1468,1.95);
#347=VECTOR('',#1477,1.7);
#348=VECTOR('',#1480,1.95);
#349=VECTOR('',#1489,1.7);
#350=VECTOR('',#1492,10.);
#351=VECTOR('',#1495,10.);
#352=VECTOR('',#1500,10.);
#353=VECTOR('',#1501,10.);
#354=VECTOR('',#1504,10.);
#355=VECTOR('',#1511,1.);
#356=VECTOR('',#1514,1.);
#357=VECTOR('',#1517,1.);
#358=VECTOR('',#1520,1.);
#359=VECTOR('',#1521,1.00000000000064);
#360=VECTOR('',#1526,10.);
#361=VECTOR('',#1537,10.);
#362=VECTOR('',#1546,10.);
#363=VECTOR('',#1549,1.);
#364=VECTOR('',#1550,1.);
#365=VECTOR('',#1551,1.);
#366=VECTOR('',#1552,1.);
#367=VECTOR('',#1555,1.);
#368=VECTOR('',#1560,1.);
#369=VECTOR('',#1561,1.);
#370=VECTOR('',#1562,1.);
#371=VECTOR('',#1563,10.);
#372=VECTOR('',#1564,1.);
#373=VECTOR('',#1565,1.);
#374=VECTOR('',#1568,1.);
#375=VECTOR('',#1573,1.);
#376=VECTOR('',#1574,1.);
#377=VECTOR('',#1575,1.);
#378=VECTOR('',#1576,1.);
#379=VECTOR('',#1579,1.00000000000064);
#380=VECTOR('',#1584,1.95);
#381=VECTOR('',#1591,0.999999999999885);
#382=VECTOR('',#1592,1.);
#383=VECTOR('',#1593,0.999999999999885);
#384=VECTOR('',#1596,1.00000000000037);
#385=VECTOR('',#1597,1.);
#386=VECTOR('',#1602,1.);
#387=VECTOR('',#1605,1.);
#388=VECTOR('',#1608,1.);
#389=VECTOR('',#1611,1.);
#390=VECTOR('',#1616,1.);
#391=VECTOR('',#1617,1.00000000000037);
#392=VECTOR('',#1626,1.95);
#393=VECTOR('',#1629,1.95);
#394=VECTOR('',#1632,1.95);
#395=VECTOR('',#1641,1.);
#396=VECTOR('',#1646,1.00000000000064);
#397=VECTOR('',#1653,1.);
#398=VECTOR('',#1654,1.);
#399=VECTOR('',#1657,3.75);
#400=VECTOR('',#1658,1.);
#401=VECTOR('',#1661,1.);
#402=VECTOR('',#1664,10.);
#403=VECTOR('',#1665,1.);
#404=VECTOR('',#1668,10.);
#405=VECTOR('',#1669,1.);
#406=VECTOR('',#1672,10.);
#407=VECTOR('',#1673,1.);
#408=VECTOR('',#1676,1.);
#409=VECTOR('',#1677,10.);
#410=VECTOR('',#1680,10.);
#411=VECTOR('',#1681,1.);
#412=VECTOR('',#1688,3.75);
#413=VECTOR('',#1691,1.);
#414=VECTOR('',#1696,10.);
#415=VECTOR('',#1697,1.);
#416=VECTOR('',#1700,10.);
#417=VECTOR('',#1701,1.);
#418=VECTOR('',#1708,1.);
#419=VECTOR('',#1713,1.);
#420=VECTOR('',#1714,1.);
#421=VECTOR('',#1717,1.);
#422=VECTOR('',#1722,1.);
#423=VECTOR('',#1727,1.);
#424=VECTOR('',#1728,1.);
#425=VECTOR('',#1731,1.);
#426=VECTOR('',#1732,1.);
#427=VECTOR('',#1739,1.00000000000064);
#428=CIRCLE('',#1242,11.1);
#429=CIRCLE('',#1243,11.6);
#430=CIRCLE('',#1245,1.4);
#431=CIRCLE('',#1246,1.4);
#432=CIRCLE('',#1247,3.75);
#433=CIRCLE('',#1248,3.75);
#434=CIRCLE('',#1250,11.1);
#435=CIRCLE('',#1252,2.2);
#436=CIRCLE('',#1253,1.7);
#437=CIRCLE('',#1254,1.7);
#438=CIRCLE('',#1256,1.4);
#439=CIRCLE('',#1257,1.4);
#440=CIRCLE('',#1258,11.);
#441=CIRCLE('',#1259,1.4);
#442=CIRCLE('',#1260,1.4);
#443=CIRCLE('',#1261,2.2);
#444=CIRCLE('',#1262,2.2);
#445=CIRCLE('',#1263,2.2);
#446=CIRCLE('',#1265,1.7);
#447=CIRCLE('',#1267,1.7);
#448=CIRCLE('',#1268,1.7);
#449=CIRCLE('',#1270,1.7);
#450=CIRCLE('',#1272,1.7);
#451=CIRCLE('',#1273,1.7);
#452=CIRCLE('',#1275,1.7);
#453=CIRCLE('',#1277,1.7);
#454=CIRCLE('',#1278,1.7);
#455=CIRCLE('',#1280,1.7);
#456=CIRCLE('',#1282,0.200000000000002);
#457=CIRCLE('',#1283,1.);
#458=CIRCLE('',#1286,1.);
#459=CIRCLE('',#1287,0.200000000000002);
#460=CIRCLE('',#1289,0.2);
#461=CIRCLE('',#1290,0.2);
#462=CIRCLE('',#1293,1.);
#463=CIRCLE('',#1295,1.);
#464=CIRCLE('',#1296,2.4);
#465=CIRCLE('',#1298,1.);
#466=CIRCLE('',#1300,1.);
#467=CIRCLE('',#1301,2.4);
#468=CIRCLE('',#1305,2.4);
#469=CIRCLE('',#1308,2.4);
#470=CIRCLE('',#1312,2.2);
#471=CIRCLE('',#1314,3.75);
#472=CIRCLE('',#1315,3.75);
#473=CIRCLE('',#1316,3.75);
#474=CIRCLE('',#1317,2.4);
#475=CIRCLE('',#1318,2.4);
#476=CIRCLE('',#1319,2.4);
#477=CIRCLE('',#1320,10.);
#478=CIRCLE('',#1321,2.4);
#479=CIRCLE('',#1322,2.4);
#480=CIRCLE('',#1323,2.4);
#481=CIRCLE('',#1324,2.2);
#482=CIRCLE('',#1325,2.2);
#483=CIRCLE('',#1326,2.2);
#484=CIRCLE('',#1331,1.);
#485=CIRCLE('',#1332,1.);
#486=CIRCLE('',#1334,2.4);
#487=CIRCLE('',#1337,1.);
#488=CIRCLE('',#1340,3.75);
#489=CIRCLE('',#1347,2.4);
#490=CIRCLE('',#1349,3.75);
#491=CIRCLE('',#1350,3.75);
#492=CIRCLE('',#1354,2.4);
#493=CIRCLE('',#1356,2.4);
#494=CIRCLE('',#1359,10.);
#495=CIRCLE('',#1361,2.4);
#496=CIRCLE('',#1365,2.4);
#497=CIRCLE('',#1368,1.);
#498=CIRCLE('',#1369,1.);
#499=CIRCLE('',#1371,1.);
#500=CIRCLE('',#1373,1.);
#501=CIRCLE('',#1375,1.);
#502=CIRCLE('',#1377,1.);
#503=CIRCLE('',#1379,1.);
#504=CIRCLE('',#1381,1.);
#505=CIRCLE('',#1383,1.);
#506=VERTEX_POINT('',#1782);
#507=VERTEX_POINT('',#1784);
#508=VERTEX_POINT('',#1788);
#509=VERTEX_POINT('',#1789);
#510=VERTEX_POINT('',#1791);
#511=VERTEX_POINT('',#1793);
#512=VERTEX_POINT('',#1795);
#513=VERTEX_POINT('',#1797);
#514=VERTEX_POINT('',#1800);
#515=VERTEX_POINT('',#1802);
#516=VERTEX_POINT('',#1805);
#517=VERTEX_POINT('',#1809);
#518=VERTEX_POINT('',#1811);
#519=VERTEX_POINT('',#1813);
#520=VERTEX_POINT('',#1817);
#521=VERTEX_POINT('',#1818);
#522=VERTEX_POINT('',#1820);
#523=VERTEX_POINT('',#1822);
#524=VERTEX_POINT('',#1824);
#525=VERTEX_POINT('',#1826);
#526=VERTEX_POINT('',#1828);
#527=VERTEX_POINT('',#1830);
#528=VERTEX_POINT('',#1832);
#529=VERTEX_POINT('',#1834);
#530=VERTEX_POINT('',#1836);
#531=VERTEX_POINT('',#1838);
#532=VERTEX_POINT('',#1841);
#533=VERTEX_POINT('',#1843);
#534=VERTEX_POINT('',#1845);
#535=VERTEX_POINT('',#1848);
#536=VERTEX_POINT('',#1852);
#537=VERTEX_POINT('',#1854);
#538=VERTEX_POINT('',#1858);
#539=VERTEX_POINT('',#1862);
#540=VERTEX_POINT('',#1864);
#541=VERTEX_POINT('',#1868);
#542=VERTEX_POINT('',#1872);
#543=VERTEX_POINT('',#1874);
#544=VERTEX_POINT('',#1878);
#545=VERTEX_POINT('',#1882);
#546=VERTEX_POINT('',#1883);
#547=VERTEX_POINT('',#1885);
#548=VERTEX_POINT('',#1890);
#549=VERTEX_POINT('',#1894);
#550=VERTEX_POINT('',#1895);
#551=VERTEX_POINT('',#1900);
#552=VERTEX_POINT('',#1902);
#553=VERTEX_POINT('',#1904);
#554=VERTEX_POINT('',#1906);
#555=VERTEX_POINT('',#1910);
#556=VERTEX_POINT('',#1914);
#557=VERTEX_POINT('',#1918);
#558=VERTEX_POINT('',#1922);
#559=VERTEX_POINT('',#1926);
#560=VERTEX_POINT('',#1932);
#561=VERTEX_POINT('',#1934);
#562=VERTEX_POINT('',#1936);
#563=VERTEX_POINT('',#1940);
#564=VERTEX_POINT('',#1944);
#565=VERTEX_POINT('',#1946);
#566=VERTEX_POINT('',#1948);
#567=VERTEX_POINT('',#1950);
#568=VERTEX_POINT('',#1952);
#569=VERTEX_POINT('',#1956);
#570=VERTEX_POINT('',#1960);
#571=VERTEX_POINT('',#1962);
#572=VERTEX_POINT('',#1964);
#573=VERTEX_POINT('',#1970);
#574=VERTEX_POINT('',#1974);
#575=VERTEX_POINT('',#1975);
#576=VERTEX_POINT('',#1977);
#577=VERTEX_POINT('',#1979);
#578=VERTEX_POINT('',#1981);
#579=VERTEX_POINT('',#1983);
#580=VERTEX_POINT('',#1985);
#581=VERTEX_POINT('',#1987);
#582=VERTEX_POINT('',#1989);
#583=VERTEX_POINT('',#1992);
#584=VERTEX_POINT('',#1994);
#585=VERTEX_POINT('',#1996);
#586=VERTEX_POINT('',#1998);
#587=VERTEX_POINT('',#2000);
#588=VERTEX_POINT('',#2002);
#589=VERTEX_POINT('',#2004);
#590=VERTEX_POINT('',#2006);
#591=VERTEX_POINT('',#2009);
#592=VERTEX_POINT('',#2011);
#593=VERTEX_POINT('',#2014);
#594=VERTEX_POINT('',#2016);
#595=VERTEX_POINT('',#2018);
#596=VERTEX_POINT('',#2030);
#597=VERTEX_POINT('',#2038);
#598=VERTEX_POINT('',#2043);
#599=VERTEX_POINT('',#2045);
#600=VERTEX_POINT('',#2049);
#601=VERTEX_POINT('',#2053);
#602=VERTEX_POINT('',#2057);
#603=VERTEX_POINT('',#2061);
#604=VERTEX_POINT('',#2065);
#605=VERTEX_POINT('',#2071);
#606=VERTEX_POINT('',#2073);
#607=VERTEX_POINT('',#2078);
#608=VERTEX_POINT('',#2082);
#609=VERTEX_POINT('',#2088);
#610=VERTEX_POINT('',#2092);
#611=VERTEX_POINT('',#2096);
#612=VERTEX_POINT('',#2100);
#613=VERTEX_POINT('',#2104);
#614=VERTEX_POINT('',#2108);
#615=EDGE_CURVE('',#506,#506,#428,.T.);
#616=EDGE_CURVE('',#506,#507,#230,.T.);
#617=EDGE_CURVE('',#507,#507,#429,.T.);
#618=EDGE_CURVE('',#508,#509,#231,.T.);
#619=EDGE_CURVE('',#510,#508,#232,.T.);
#620=EDGE_CURVE('',#511,#510,#430,.T.);
#621=EDGE_CURVE('',#512,#511,#233,.T.);
#622=EDGE_CURVE('',#513,#512,#431,.T.);
#623=EDGE_CURVE('',#509,#513,#234,.T.);
#624=EDGE_CURVE('',#514,#514,#432,.F.);
#625=EDGE_CURVE('',#515,#515,#433,.F.);
#626=EDGE_CURVE('',#516,#516,#434,.T.);
#627=EDGE_CURVE('',#516,#506,#235,.T.);
#628=EDGE_CURVE('',#517,#517,#435,.T.);
#629=EDGE_CURVE('',#517,#518,#236,.T.);
#630=EDGE_CURVE('',#518,#519,#436,.T.);
#631=EDGE_CURVE('',#519,#518,#437,.T.);
#632=EDGE_CURVE('',#520,#521,#237,.T.);
#633=EDGE_CURVE('',#522,#520,#438,.T.);
#634=EDGE_CURVE('',#523,#522,#238,.T.);
#635=EDGE_CURVE('',#524,#523,#439,.T.);
#636=EDGE_CURVE('',#525,#524,#239,.T.);
#637=EDGE_CURVE('',#526,#525,#440,.T.);
#638=EDGE_CURVE('',#527,#526,#240,.T.);
#639=EDGE_CURVE('',#528,#527,#441,.T.);
#640=EDGE_CURVE('',#529,#528,#241,.T.);
#641=EDGE_CURVE('',#530,#529,#442,.T.);
#642=EDGE_CURVE('',#531,#530,#242,.T.);
#643=EDGE_CURVE('',#531,#521,#243,.T.);
#644=EDGE_CURVE('',#532,#532,#443,.T.);
#645=EDGE_CURVE('',#533,#533,#444,.T.);
#646=EDGE_CURVE('',#534,#534,#445,.T.);
#647=EDGE_CURVE('',#535,#535,#446,.T.);
#648=EDGE_CURVE('',#535,#519,#244,.T.);
#649=EDGE_CURVE('',#532,#536,#245,.T.);
#650=EDGE_CURVE('',#536,#537,#447,.T.);
#651=EDGE_CURVE('',#537,#536,#448,.T.);
#652=EDGE_CURVE('',#538,#538,#449,.T.);
#653=EDGE_CURVE('',#538,#537,#246,.T.);
#654=EDGE_CURVE('',#534,#539,#247,.T.);
#655=EDGE_CURVE('',#539,#540,#450,.T.);
#656=EDGE_CURVE('',#540,#539,#451,.T.);
#657=EDGE_CURVE('',#541,#541,#452,.T.);
#658=EDGE_CURVE('',#541,#540,#248,.T.);
#659=EDGE_CURVE('',#533,#542,#249,.T.);
#660=EDGE_CURVE('',#542,#543,#453,.T.);
#661=EDGE_CURVE('',#543,#542,#454,.T.);
#662=EDGE_CURVE('',#544,#544,#455,.T.);
#663=EDGE_CURVE('',#544,#543,#250,.T.);
#664=EDGE_CURVE('',#545,#546,#251,.T.);
#665=EDGE_CURVE('',#545,#547,#456,.T.);
#666=EDGE_CURVE('',#547,#509,#252,.T.);
#667=EDGE_CURVE('',#509,#546,#457,.T.);
#668=EDGE_CURVE('',#547,#548,#253,.T.);
#669=EDGE_CURVE('',#548,#508,#254,.T.);
#670=EDGE_CURVE('',#549,#550,#255,.T.);
#671=EDGE_CURVE('',#550,#508,#458,.T.);
#672=EDGE_CURVE('',#548,#549,#459,.T.);
#673=EDGE_CURVE('',#551,#545,#256,.T.);
#674=EDGE_CURVE('',#552,#551,#460,.T.);
#675=EDGE_CURVE('',#553,#552,#257,.T.);
#676=EDGE_CURVE('',#554,#553,#461,.T.);
#677=EDGE_CURVE('',#549,#554,#258,.T.);
#678=EDGE_CURVE('',#555,#546,#259,.T.);
#679=EDGE_CURVE('',#555,#551,#260,.T.);
#680=EDGE_CURVE('',#513,#556,#462,.T.);
#681=EDGE_CURVE('',#556,#546,#261,.T.);
#682=EDGE_CURVE('',#512,#557,#463,.T.);
#683=EDGE_CURVE('',#557,#556,#464,.T.);
#684=EDGE_CURVE('',#511,#558,#465,.T.);
#685=EDGE_CURVE('',#558,#557,#262,.T.);
#686=EDGE_CURVE('',#510,#559,#466,.T.);
#687=EDGE_CURVE('',#559,#558,#467,.T.);
#688=EDGE_CURVE('',#550,#559,#263,.T.);
#689=EDGE_CURVE('',#560,#556,#264,.T.);
#690=EDGE_CURVE('',#561,#560,#265,.T.);
#691=EDGE_CURVE('',#562,#561,#266,.T.);
#692=EDGE_CURVE('',#562,#555,#267,.T.);
#693=EDGE_CURVE('',#563,#557,#268,.T.);
#694=EDGE_CURVE('',#563,#560,#468,.T.);
#695=EDGE_CURVE('',#564,#558,#269,.T.);
#696=EDGE_CURVE('',#564,#565,#270,.T.);
#697=EDGE_CURVE('',#565,#566,#271,.T.);
#698=EDGE_CURVE('',#567,#566,#272,.T.);
#699=EDGE_CURVE('',#567,#568,#273,.T.);
#700=EDGE_CURVE('',#568,#563,#274,.T.);
#701=EDGE_CURVE('',#569,#559,#275,.T.);
#702=EDGE_CURVE('',#569,#564,#469,.T.);
#703=EDGE_CURVE('',#550,#570,#276,.T.);
#704=EDGE_CURVE('',#570,#571,#277,.T.);
#705=EDGE_CURVE('',#571,#572,#278,.T.);
#706=EDGE_CURVE('',#569,#572,#279,.T.);
#707=EDGE_CURVE('',#570,#554,#280,.T.);
#708=EDGE_CURVE('',#573,#573,#470,.T.);
#709=EDGE_CURVE('',#573,#538,#281,.T.);
#710=EDGE_CURVE('',#574,#575,#471,.T.);
#711=EDGE_CURVE('',#575,#576,#472,.T.);
#712=EDGE_CURVE('',#576,#577,#282,.T.);
#713=EDGE_CURVE('',#577,#578,#283,.T.);
#714=EDGE_CURVE('',#578,#579,#284,.T.);
#715=EDGE_CURVE('',#579,#580,#473,.T.);
#716=EDGE_CURVE('',#580,#581,#285,.T.);
#717=EDGE_CURVE('',#581,#582,#286,.T.);
#718=EDGE_CURVE('',#565,#582,#474,.T.);
#719=EDGE_CURVE('',#583,#572,#475,.T.);
#720=EDGE_CURVE('',#583,#584,#287,.T.);
#721=EDGE_CURVE('',#585,#584,#476,.T.);
#722=EDGE_CURVE('',#585,#586,#288,.T.);
#723=EDGE_CURVE('',#587,#586,#477,.T.);
#724=EDGE_CURVE('',#588,#587,#289,.T.);
#725=EDGE_CURVE('',#588,#589,#478,.T.);
#726=EDGE_CURVE('',#590,#589,#290,.T.);
#727=EDGE_CURVE('',#561,#590,#479,.T.);
#728=EDGE_CURVE('',#591,#568,#480,.T.);
#729=EDGE_CURVE('',#592,#591,#291,.T.);
#730=EDGE_CURVE('',#574,#592,#292,.T.);
#731=EDGE_CURVE('',#593,#593,#481,.T.);
#732=EDGE_CURVE('',#594,#594,#482,.T.);
#733=EDGE_CURVE('',#595,#595,#483,.T.);
#734=EDGE_CURVE('',#593,#535,#293,.T.);
#735=EDGE_CURVE('',#541,#595,#294,.T.);
#736=EDGE_CURVE('',#594,#544,#295,.T.);
#737=EDGE_CURVE('',#521,#555,#484,.T.);
#738=EDGE_CURVE('',#520,#562,#485,.T.);
#739=EDGE_CURVE('',#596,#590,#296,.T.);
#740=EDGE_CURVE('',#596,#562,#486,.T.);
#741=EDGE_CURVE('',#521,#552,#297,.T.);
#742=EDGE_CURVE('',#522,#596,#487,.T.);
#743=EDGE_CURVE('',#597,#589,#298,.T.);
#744=EDGE_CURVE('',#597,#596,#299,.T.);
#745=EDGE_CURVE('',#515,#575,#300,.T.);
#746=EDGE_CURVE('',#598,#574,#301,.T.);
#747=EDGE_CURVE('',#598,#599,#488,.F.);
#748=EDGE_CURVE('',#599,#576,#302,.T.);
#749=EDGE_CURVE('',#599,#600,#303,.T.);
#750=EDGE_CURVE('',#600,#577,#304,.T.);
#751=EDGE_CURVE('',#598,#601,#305,.T.);
#752=EDGE_CURVE('',#601,#592,#306,.T.);
#753=EDGE_CURVE('',#602,#600,#307,.T.);
#754=EDGE_CURVE('',#602,#578,#308,.T.);
#755=EDGE_CURVE('',#603,#591,#309,.T.);
#756=EDGE_CURVE('',#601,#603,#310,.F.);
#757=EDGE_CURVE('',#602,#604,#311,.T.);
#758=EDGE_CURVE('',#604,#579,#312,.T.);
#759=EDGE_CURVE('',#603,#567,#489,.T.);
#760=EDGE_CURVE('',#514,#605,#313,.T.);
#761=EDGE_CURVE('',#606,#605,#490,.T.);
#762=EDGE_CURVE('',#606,#580,#314,.T.);
#763=EDGE_CURVE('',#605,#604,#491,.T.);
#764=EDGE_CURVE('',#606,#607,#315,.T.);
#765=EDGE_CURVE('',#607,#581,#316,.T.);
#766=EDGE_CURVE('',#607,#608,#317,.T.);
#767=EDGE_CURVE('',#582,#608,#318,.T.);
#768=EDGE_CURVE('',#566,#608,#492,.T.);
#769=EDGE_CURVE('',#609,#588,#319,.T.);
#770=EDGE_CURVE('',#609,#597,#493,.T.);
#771=EDGE_CURVE('',#610,#587,#320,.T.);
#772=EDGE_CURVE('',#610,#609,#321,.T.);
#773=EDGE_CURVE('',#611,#586,#322,.T.);
#774=EDGE_CURVE('',#611,#610,#494,.T.);
#775=EDGE_CURVE('',#612,#583,#323,.T.);
#776=EDGE_CURVE('',#571,#612,#495,.T.);
#777=EDGE_CURVE('',#613,#585,#324,.T.);
#778=EDGE_CURVE('',#613,#611,#325,.T.);
#779=EDGE_CURVE('',#612,#614,#326,.T.);
#780=EDGE_CURVE('',#614,#584,#327,.T.);
#781=EDGE_CURVE('',#614,#613,#496,.T.);
#782=EDGE_CURVE('',#531,#553,#328,.T.);
#783=EDGE_CURVE('',#530,#571,#497,.T.);
#784=EDGE_CURVE('',#570,#531,#498,.T.);
#785=EDGE_CURVE('',#523,#597,#499,.T.);
#786=EDGE_CURVE('',#529,#612,#500,.T.);
#787=EDGE_CURVE('',#524,#609,#501,.T.);
#788=EDGE_CURVE('',#528,#614,#502,.T.);
#789=EDGE_CURVE('',#525,#610,#503,.T.);
#790=EDGE_CURVE('',#527,#613,#504,.T.);
#791=EDGE_CURVE('',#526,#611,#505,.T.);
#792=ORIENTED_EDGE('',*,*,#615,.T.);
#793=ORIENTED_EDGE('',*,*,#616,.T.);
#794=ORIENTED_EDGE('',*,*,#617,.T.);
#795=ORIENTED_EDGE('',*,*,#616,.F.);
#796=ORIENTED_EDGE('',*,*,#618,.F.);
#797=ORIENTED_EDGE('',*,*,#619,.F.);
#798=ORIENTED_EDGE('',*,*,#620,.F.);
#799=ORIENTED_EDGE('',*,*,#621,.F.);
#800=ORIENTED_EDGE('',*,*,#622,.F.);
#801=ORIENTED_EDGE('',*,*,#623,.F.);
#802=ORIENTED_EDGE('',*,*,#624,.T.);
#803=ORIENTED_EDGE('',*,*,#625,.T.);
#804=ORIENTED_EDGE('',*,*,#617,.F.);
#805=ORIENTED_EDGE('',*,*,#626,.F.);
#806=ORIENTED_EDGE('',*,*,#627,.T.);
#807=ORIENTED_EDGE('',*,*,#615,.F.);
#808=ORIENTED_EDGE('',*,*,#627,.F.);
#809=ORIENTED_EDGE('',*,*,#628,.T.);
#810=ORIENTED_EDGE('',*,*,#629,.T.);
#811=ORIENTED_EDGE('',*,*,#630,.T.);
#812=ORIENTED_EDGE('',*,*,#631,.T.);
#813=ORIENTED_EDGE('',*,*,#629,.F.);
#814=ORIENTED_EDGE('',*,*,#632,.F.);
#815=ORIENTED_EDGE('',*,*,#633,.F.);
#816=ORIENTED_EDGE('',*,*,#634,.F.);
#817=ORIENTED_EDGE('',*,*,#635,.F.);
#818=ORIENTED_EDGE('',*,*,#636,.F.);
#819=ORIENTED_EDGE('',*,*,#637,.F.);
#820=ORIENTED_EDGE('',*,*,#638,.F.);
#821=ORIENTED_EDGE('',*,*,#639,.F.);
#822=ORIENTED_EDGE('',*,*,#640,.F.);
#823=ORIENTED_EDGE('',*,*,#641,.F.);
#824=ORIENTED_EDGE('',*,*,#642,.F.);
#825=ORIENTED_EDGE('',*,*,#643,.T.);
#826=ORIENTED_EDGE('',*,*,#644,.F.);
#827=ORIENTED_EDGE('',*,*,#645,.F.);
#828=ORIENTED_EDGE('',*,*,#646,.F.);
#829=ORIENTED_EDGE('',*,*,#628,.F.);
#830=ORIENTED_EDGE('',*,*,#647,.F.);
#831=ORIENTED_EDGE('',*,*,#648,.T.);
#832=ORIENTED_EDGE('',*,*,#630,.F.);
#833=ORIENTED_EDGE('',*,*,#631,.F.);
#834=ORIENTED_EDGE('',*,*,#648,.F.);
#835=ORIENTED_EDGE('',*,*,#644,.T.);
#836=ORIENTED_EDGE('',*,*,#649,.T.);
#837=ORIENTED_EDGE('',*,*,#650,.T.);
#838=ORIENTED_EDGE('',*,*,#651,.T.);
#839=ORIENTED_EDGE('',*,*,#649,.F.);
#840=ORIENTED_EDGE('',*,*,#652,.F.);
#841=ORIENTED_EDGE('',*,*,#653,.T.);
#842=ORIENTED_EDGE('',*,*,#650,.F.);
#843=ORIENTED_EDGE('',*,*,#651,.F.);
#844=ORIENTED_EDGE('',*,*,#653,.F.);
#845=ORIENTED_EDGE('',*,*,#646,.T.);
#846=ORIENTED_EDGE('',*,*,#654,.T.);
#847=ORIENTED_EDGE('',*,*,#655,.T.);
#848=ORIENTED_EDGE('',*,*,#656,.T.);
#849=ORIENTED_EDGE('',*,*,#654,.F.);
#850=ORIENTED_EDGE('',*,*,#657,.F.);
#851=ORIENTED_EDGE('',*,*,#658,.T.);
#852=ORIENTED_EDGE('',*,*,#655,.F.);
#853=ORIENTED_EDGE('',*,*,#656,.F.);
#854=ORIENTED_EDGE('',*,*,#658,.F.);
#855=ORIENTED_EDGE('',*,*,#645,.T.);
#856=ORIENTED_EDGE('',*,*,#659,.T.);
#857=ORIENTED_EDGE('',*,*,#660,.T.);
#858=ORIENTED_EDGE('',*,*,#661,.T.);
#859=ORIENTED_EDGE('',*,*,#659,.F.);
#860=ORIENTED_EDGE('',*,*,#662,.F.);
#861=ORIENTED_EDGE('',*,*,#663,.T.);
#862=ORIENTED_EDGE('',*,*,#660,.F.);
#863=ORIENTED_EDGE('',*,*,#661,.F.);
#864=ORIENTED_EDGE('',*,*,#663,.F.);
#865=ORIENTED_EDGE('',*,*,#664,.F.);
#866=ORIENTED_EDGE('',*,*,#665,.T.);
#867=ORIENTED_EDGE('',*,*,#666,.T.);
#868=ORIENTED_EDGE('',*,*,#667,.T.);
#869=ORIENTED_EDGE('',*,*,#666,.F.);
#870=ORIENTED_EDGE('',*,*,#668,.T.);
#871=ORIENTED_EDGE('',*,*,#669,.T.);
#872=ORIENTED_EDGE('',*,*,#618,.T.);
#873=ORIENTED_EDGE('',*,*,#670,.T.);
#874=ORIENTED_EDGE('',*,*,#671,.T.);
#875=ORIENTED_EDGE('',*,*,#669,.F.);
#876=ORIENTED_EDGE('',*,*,#672,.T.);
#877=ORIENTED_EDGE('',*,*,#672,.F.);
#878=ORIENTED_EDGE('',*,*,#668,.F.);
#879=ORIENTED_EDGE('',*,*,#665,.F.);
#880=ORIENTED_EDGE('',*,*,#673,.F.);
#881=ORIENTED_EDGE('',*,*,#674,.F.);
#882=ORIENTED_EDGE('',*,*,#675,.F.);
#883=ORIENTED_EDGE('',*,*,#676,.F.);
#884=ORIENTED_EDGE('',*,*,#677,.F.);
#885=ORIENTED_EDGE('',*,*,#664,.T.);
#886=ORIENTED_EDGE('',*,*,#678,.F.);
#887=ORIENTED_EDGE('',*,*,#679,.T.);
#888=ORIENTED_EDGE('',*,*,#673,.T.);
#889=ORIENTED_EDGE('',*,*,#667,.F.);
#890=ORIENTED_EDGE('',*,*,#623,.T.);
#891=ORIENTED_EDGE('',*,*,#680,.T.);
#892=ORIENTED_EDGE('',*,*,#681,.T.);
#893=ORIENTED_EDGE('',*,*,#682,.T.);
#894=ORIENTED_EDGE('',*,*,#683,.T.);
#895=ORIENTED_EDGE('',*,*,#680,.F.);
#896=ORIENTED_EDGE('',*,*,#622,.T.);
#897=ORIENTED_EDGE('',*,*,#684,.T.);
#898=ORIENTED_EDGE('',*,*,#685,.T.);
#899=ORIENTED_EDGE('',*,*,#682,.F.);
#900=ORIENTED_EDGE('',*,*,#621,.T.);
#901=ORIENTED_EDGE('',*,*,#686,.T.);
#902=ORIENTED_EDGE('',*,*,#687,.T.);
#903=ORIENTED_EDGE('',*,*,#684,.F.);
#904=ORIENTED_EDGE('',*,*,#620,.T.);
#905=ORIENTED_EDGE('',*,*,#671,.F.);
#906=ORIENTED_EDGE('',*,*,#688,.T.);
#907=ORIENTED_EDGE('',*,*,#686,.F.);
#908=ORIENTED_EDGE('',*,*,#619,.T.);
#909=ORIENTED_EDGE('',*,*,#681,.F.);
#910=ORIENTED_EDGE('',*,*,#689,.F.);
#911=ORIENTED_EDGE('',*,*,#690,.F.);
#912=ORIENTED_EDGE('',*,*,#691,.F.);
#913=ORIENTED_EDGE('',*,*,#692,.T.);
#914=ORIENTED_EDGE('',*,*,#678,.T.);
#915=ORIENTED_EDGE('',*,*,#683,.F.);
#916=ORIENTED_EDGE('',*,*,#693,.F.);
#917=ORIENTED_EDGE('',*,*,#694,.T.);
#918=ORIENTED_EDGE('',*,*,#689,.T.);
#919=ORIENTED_EDGE('',*,*,#685,.F.);
#920=ORIENTED_EDGE('',*,*,#695,.F.);
#921=ORIENTED_EDGE('',*,*,#696,.T.);
#922=ORIENTED_EDGE('',*,*,#697,.T.);
#923=ORIENTED_EDGE('',*,*,#698,.F.);
#924=ORIENTED_EDGE('',*,*,#699,.T.);
#925=ORIENTED_EDGE('',*,*,#700,.T.);
#926=ORIENTED_EDGE('',*,*,#693,.T.);
#927=ORIENTED_EDGE('',*,*,#687,.F.);
#928=ORIENTED_EDGE('',*,*,#701,.F.);
#929=ORIENTED_EDGE('',*,*,#702,.T.);
#930=ORIENTED_EDGE('',*,*,#695,.T.);
#931=ORIENTED_EDGE('',*,*,#688,.F.);
#932=ORIENTED_EDGE('',*,*,#703,.T.);
#933=ORIENTED_EDGE('',*,*,#704,.T.);
#934=ORIENTED_EDGE('',*,*,#705,.T.);
#935=ORIENTED_EDGE('',*,*,#706,.F.);
#936=ORIENTED_EDGE('',*,*,#701,.T.);
#937=ORIENTED_EDGE('',*,*,#670,.F.);
#938=ORIENTED_EDGE('',*,*,#677,.T.);
#939=ORIENTED_EDGE('',*,*,#707,.F.);
#940=ORIENTED_EDGE('',*,*,#703,.F.);
#941=ORIENTED_EDGE('',*,*,#708,.T.);
#942=ORIENTED_EDGE('',*,*,#709,.T.);
#943=ORIENTED_EDGE('',*,*,#652,.T.);
#944=ORIENTED_EDGE('',*,*,#709,.F.);
#945=ORIENTED_EDGE('',*,*,#710,.T.);
#946=ORIENTED_EDGE('',*,*,#711,.T.);
#947=ORIENTED_EDGE('',*,*,#712,.T.);
#948=ORIENTED_EDGE('',*,*,#713,.T.);
#949=ORIENTED_EDGE('',*,*,#714,.T.);
#950=ORIENTED_EDGE('',*,*,#715,.T.);
#951=ORIENTED_EDGE('',*,*,#716,.T.);
#952=ORIENTED_EDGE('',*,*,#717,.T.);
#953=ORIENTED_EDGE('',*,*,#718,.F.);
#954=ORIENTED_EDGE('',*,*,#696,.F.);
#955=ORIENTED_EDGE('',*,*,#702,.F.);
#956=ORIENTED_EDGE('',*,*,#706,.T.);
#957=ORIENTED_EDGE('',*,*,#719,.F.);
#958=ORIENTED_EDGE('',*,*,#720,.T.);
#959=ORIENTED_EDGE('',*,*,#721,.F.);
#960=ORIENTED_EDGE('',*,*,#722,.T.);
#961=ORIENTED_EDGE('',*,*,#723,.F.);
#962=ORIENTED_EDGE('',*,*,#724,.F.);
#963=ORIENTED_EDGE('',*,*,#725,.T.);
#964=ORIENTED_EDGE('',*,*,#726,.F.);
#965=ORIENTED_EDGE('',*,*,#727,.F.);
#966=ORIENTED_EDGE('',*,*,#690,.T.);
#967=ORIENTED_EDGE('',*,*,#694,.F.);
#968=ORIENTED_EDGE('',*,*,#700,.F.);
#969=ORIENTED_EDGE('',*,*,#728,.F.);
#970=ORIENTED_EDGE('',*,*,#729,.F.);
#971=ORIENTED_EDGE('',*,*,#730,.F.);
#972=ORIENTED_EDGE('',*,*,#731,.F.);
#973=ORIENTED_EDGE('',*,*,#732,.F.);
#974=ORIENTED_EDGE('',*,*,#733,.F.);
#975=ORIENTED_EDGE('',*,*,#708,.F.);
#976=ORIENTED_EDGE('',*,*,#731,.T.);
#977=ORIENTED_EDGE('',*,*,#734,.T.);
#978=ORIENTED_EDGE('',*,*,#647,.T.);
#979=ORIENTED_EDGE('',*,*,#734,.F.);
#980=ORIENTED_EDGE('',*,*,#657,.T.);
#981=ORIENTED_EDGE('',*,*,#735,.T.);
#982=ORIENTED_EDGE('',*,*,#733,.T.);
#983=ORIENTED_EDGE('',*,*,#735,.F.);
#984=ORIENTED_EDGE('',*,*,#732,.T.);
#985=ORIENTED_EDGE('',*,*,#736,.T.);
#986=ORIENTED_EDGE('',*,*,#662,.T.);
#987=ORIENTED_EDGE('',*,*,#736,.F.);
#988=ORIENTED_EDGE('',*,*,#632,.T.);
#989=ORIENTED_EDGE('',*,*,#737,.T.);
#990=ORIENTED_EDGE('',*,*,#692,.F.);
#991=ORIENTED_EDGE('',*,*,#738,.F.);
#992=ORIENTED_EDGE('',*,*,#691,.T.);
#993=ORIENTED_EDGE('',*,*,#727,.T.);
#994=ORIENTED_EDGE('',*,*,#739,.F.);
#995=ORIENTED_EDGE('',*,*,#740,.T.);
#996=ORIENTED_EDGE('',*,*,#741,.T.);
#997=ORIENTED_EDGE('',*,*,#674,.T.);
#998=ORIENTED_EDGE('',*,*,#679,.F.);
#999=ORIENTED_EDGE('',*,*,#737,.F.);
#1000=ORIENTED_EDGE('',*,*,#742,.F.);
#1001=ORIENTED_EDGE('',*,*,#633,.T.);
#1002=ORIENTED_EDGE('',*,*,#738,.T.);
#1003=ORIENTED_EDGE('',*,*,#740,.F.);
#1004=ORIENTED_EDGE('',*,*,#739,.T.);
#1005=ORIENTED_EDGE('',*,*,#726,.T.);
#1006=ORIENTED_EDGE('',*,*,#743,.F.);
#1007=ORIENTED_EDGE('',*,*,#744,.T.);
#1008=ORIENTED_EDGE('',*,*,#625,.F.);
#1009=ORIENTED_EDGE('',*,*,#745,.T.);
#1010=ORIENTED_EDGE('',*,*,#710,.F.);
#1011=ORIENTED_EDGE('',*,*,#746,.F.);
#1012=ORIENTED_EDGE('',*,*,#747,.T.);
#1013=ORIENTED_EDGE('',*,*,#748,.T.);
#1014=ORIENTED_EDGE('',*,*,#711,.F.);
#1015=ORIENTED_EDGE('',*,*,#745,.F.);
#1016=ORIENTED_EDGE('',*,*,#749,.T.);
#1017=ORIENTED_EDGE('',*,*,#750,.T.);
#1018=ORIENTED_EDGE('',*,*,#712,.F.);
#1019=ORIENTED_EDGE('',*,*,#748,.F.);
#1020=ORIENTED_EDGE('',*,*,#751,.F.);
#1021=ORIENTED_EDGE('',*,*,#746,.T.);
#1022=ORIENTED_EDGE('',*,*,#730,.T.);
#1023=ORIENTED_EDGE('',*,*,#752,.F.);
#1024=ORIENTED_EDGE('',*,*,#713,.F.);
#1025=ORIENTED_EDGE('',*,*,#750,.F.);
#1026=ORIENTED_EDGE('',*,*,#753,.F.);
#1027=ORIENTED_EDGE('',*,*,#754,.T.);
#1028=ORIENTED_EDGE('',*,*,#729,.T.);
#1029=ORIENTED_EDGE('',*,*,#755,.F.);
#1030=ORIENTED_EDGE('',*,*,#756,.F.);
#1031=ORIENTED_EDGE('',*,*,#752,.T.);
#1032=ORIENTED_EDGE('',*,*,#757,.T.);
#1033=ORIENTED_EDGE('',*,*,#758,.T.);
#1034=ORIENTED_EDGE('',*,*,#714,.F.);
#1035=ORIENTED_EDGE('',*,*,#754,.F.);
#1036=ORIENTED_EDGE('',*,*,#759,.F.);
#1037=ORIENTED_EDGE('',*,*,#755,.T.);
#1038=ORIENTED_EDGE('',*,*,#728,.T.);
#1039=ORIENTED_EDGE('',*,*,#699,.F.);
#1040=ORIENTED_EDGE('',*,*,#624,.F.);
#1041=ORIENTED_EDGE('',*,*,#760,.T.);
#1042=ORIENTED_EDGE('',*,*,#761,.F.);
#1043=ORIENTED_EDGE('',*,*,#762,.T.);
#1044=ORIENTED_EDGE('',*,*,#715,.F.);
#1045=ORIENTED_EDGE('',*,*,#758,.F.);
#1046=ORIENTED_EDGE('',*,*,#763,.F.);
#1047=ORIENTED_EDGE('',*,*,#760,.F.);
#1048=ORIENTED_EDGE('',*,*,#764,.T.);
#1049=ORIENTED_EDGE('',*,*,#765,.T.);
#1050=ORIENTED_EDGE('',*,*,#716,.F.);
#1051=ORIENTED_EDGE('',*,*,#762,.F.);
#1052=ORIENTED_EDGE('',*,*,#766,.T.);
#1053=ORIENTED_EDGE('',*,*,#767,.F.);
#1054=ORIENTED_EDGE('',*,*,#717,.F.);
#1055=ORIENTED_EDGE('',*,*,#765,.F.);
#1056=ORIENTED_EDGE('',*,*,#718,.T.);
#1057=ORIENTED_EDGE('',*,*,#767,.T.);
#1058=ORIENTED_EDGE('',*,*,#768,.F.);
#1059=ORIENTED_EDGE('',*,*,#697,.F.);
#1060=ORIENTED_EDGE('',*,*,#769,.F.);
#1061=ORIENTED_EDGE('',*,*,#770,.T.);
#1062=ORIENTED_EDGE('',*,*,#743,.T.);
#1063=ORIENTED_EDGE('',*,*,#725,.F.);
#1064=ORIENTED_EDGE('',*,*,#769,.T.);
#1065=ORIENTED_EDGE('',*,*,#724,.T.);
#1066=ORIENTED_EDGE('',*,*,#771,.F.);
#1067=ORIENTED_EDGE('',*,*,#772,.T.);
#1068=ORIENTED_EDGE('',*,*,#771,.T.);
#1069=ORIENTED_EDGE('',*,*,#723,.T.);
#1070=ORIENTED_EDGE('',*,*,#773,.F.);
#1071=ORIENTED_EDGE('',*,*,#774,.T.);
#1072=ORIENTED_EDGE('',*,*,#775,.T.);
#1073=ORIENTED_EDGE('',*,*,#719,.T.);
#1074=ORIENTED_EDGE('',*,*,#705,.F.);
#1075=ORIENTED_EDGE('',*,*,#776,.T.);
#1076=ORIENTED_EDGE('',*,*,#777,.F.);
#1077=ORIENTED_EDGE('',*,*,#778,.T.);
#1078=ORIENTED_EDGE('',*,*,#773,.T.);
#1079=ORIENTED_EDGE('',*,*,#722,.F.);
#1080=ORIENTED_EDGE('',*,*,#775,.F.);
#1081=ORIENTED_EDGE('',*,*,#779,.T.);
#1082=ORIENTED_EDGE('',*,*,#780,.T.);
#1083=ORIENTED_EDGE('',*,*,#720,.F.);
#1084=ORIENTED_EDGE('',*,*,#777,.T.);
#1085=ORIENTED_EDGE('',*,*,#721,.T.);
#1086=ORIENTED_EDGE('',*,*,#780,.F.);
#1087=ORIENTED_EDGE('',*,*,#781,.T.);
#1088=ORIENTED_EDGE('',*,*,#782,.T.);
#1089=ORIENTED_EDGE('',*,*,#675,.T.);
#1090=ORIENTED_EDGE('',*,*,#741,.F.);
#1091=ORIENTED_EDGE('',*,*,#643,.F.);
#1092=ORIENTED_EDGE('',*,*,#642,.T.);
#1093=ORIENTED_EDGE('',*,*,#783,.T.);
#1094=ORIENTED_EDGE('',*,*,#704,.F.);
#1095=ORIENTED_EDGE('',*,*,#784,.T.);
#1096=ORIENTED_EDGE('',*,*,#785,.F.);
#1097=ORIENTED_EDGE('',*,*,#634,.T.);
#1098=ORIENTED_EDGE('',*,*,#742,.T.);
#1099=ORIENTED_EDGE('',*,*,#744,.F.);
#1100=ORIENTED_EDGE('',*,*,#783,.F.);
#1101=ORIENTED_EDGE('',*,*,#641,.T.);
#1102=ORIENTED_EDGE('',*,*,#786,.T.);
#1103=ORIENTED_EDGE('',*,*,#776,.F.);
#1104=ORIENTED_EDGE('',*,*,#787,.F.);
#1105=ORIENTED_EDGE('',*,*,#635,.T.);
#1106=ORIENTED_EDGE('',*,*,#785,.T.);
#1107=ORIENTED_EDGE('',*,*,#770,.F.);
#1108=ORIENTED_EDGE('',*,*,#786,.F.);
#1109=ORIENTED_EDGE('',*,*,#640,.T.);
#1110=ORIENTED_EDGE('',*,*,#788,.T.);
#1111=ORIENTED_EDGE('',*,*,#779,.F.);
#1112=ORIENTED_EDGE('',*,*,#789,.F.);
#1113=ORIENTED_EDGE('',*,*,#636,.T.);
#1114=ORIENTED_EDGE('',*,*,#787,.T.);
#1115=ORIENTED_EDGE('',*,*,#772,.F.);
#1116=ORIENTED_EDGE('',*,*,#788,.F.);
#1117=ORIENTED_EDGE('',*,*,#639,.T.);
#1118=ORIENTED_EDGE('',*,*,#790,.T.);
#1119=ORIENTED_EDGE('',*,*,#781,.F.);
#1120=ORIENTED_EDGE('',*,*,#791,.F.);
#1121=ORIENTED_EDGE('',*,*,#637,.T.);
#1122=ORIENTED_EDGE('',*,*,#789,.T.);
#1123=ORIENTED_EDGE('',*,*,#774,.F.);
#1124=ORIENTED_EDGE('',*,*,#790,.F.);
#1125=ORIENTED_EDGE('',*,*,#638,.T.);
#1126=ORIENTED_EDGE('',*,*,#791,.T.);
#1127=ORIENTED_EDGE('',*,*,#778,.F.);
#1128=ORIENTED_EDGE('',*,*,#707,.T.);
#1129=ORIENTED_EDGE('',*,*,#676,.T.);
#1130=ORIENTED_EDGE('',*,*,#782,.F.);
#1131=ORIENTED_EDGE('',*,*,#784,.F.);
#1132=ORIENTED_EDGE('',*,*,#753,.T.);
#1133=ORIENTED_EDGE('',*,*,#749,.F.);
#1134=ORIENTED_EDGE('',*,*,#747,.F.);
#1135=ORIENTED_EDGE('',*,*,#751,.T.);
#1136=ORIENTED_EDGE('',*,*,#756,.T.);
#1137=ORIENTED_EDGE('',*,*,#759,.T.);
#1138=ORIENTED_EDGE('',*,*,#698,.T.);
#1139=ORIENTED_EDGE('',*,*,#768,.T.);
#1140=ORIENTED_EDGE('',*,*,#766,.F.);
#1141=ORIENTED_EDGE('',*,*,#764,.F.);
#1142=ORIENTED_EDGE('',*,*,#761,.T.);
#1143=ORIENTED_EDGE('',*,*,#763,.T.);
#1144=ORIENTED_EDGE('',*,*,#757,.F.);
#1145=ORIENTED_EDGE('',*,*,#626,.T.);
#1146=CONICAL_SURFACE('',#1241,11.35,0.785398163397451);
#1147=CONICAL_SURFACE('',#1251,1.95,0.785398163397449);
#1148=CONICAL_SURFACE('',#1266,1.95,0.785398163397449);
#1149=CONICAL_SURFACE('',#1271,1.95,0.785398163397449);
#1150=CONICAL_SURFACE('',#1276,1.95,0.785398163397449);
#1151=CONICAL_SURFACE('',#1281,0.600000000000001,0.785398163397447);
#1152=CONICAL_SURFACE('',#1285,0.600000000000001,0.785398163397447);
#1153=CONICAL_SURFACE('',#1311,1.95,0.785398163397449);
#1154=CONICAL_SURFACE('',#1327,1.95,0.785398163397449);
#1155=CONICAL_SURFACE('',#1328,1.95,0.785398163397449);
#1156=CONICAL_SURFACE('',#1329,1.95,0.785398163397449);
#1157=CONICAL_SURFACE('',#1335,1.,0.785398163397);
#1158=CONICAL_SURFACE('',#1385,1.,0.785398163397);
#1159=ADVANCED_FACE('',(#82),#1146,.F.);
#1160=ADVANCED_FACE('',(#83,#47,#48,#49),#59,.T.);
#1161=ADVANCED_FACE('',(#84),#22,.F.);
#1162=ADVANCED_FACE('',(#85),#1147,.F.);
#1163=ADVANCED_FACE('',(#86,#50,#51,#52,#53),#60,.F.);
#1164=ADVANCED_FACE('',(#87),#23,.F.);
#1165=ADVANCED_FACE('',(#88),#1148,.F.);
#1166=ADVANCED_FACE('',(#89),#24,.F.);
#1167=ADVANCED_FACE('',(#90),#1149,.F.);
#1168=ADVANCED_FACE('',(#91),#25,.F.);
#1169=ADVANCED_FACE('',(#92),#1150,.F.);
#1170=ADVANCED_FACE('',(#93),#26,.F.);
#1171=ADVANCED_FACE('',(#94),#1151,.T.);
#1172=ADVANCED_FACE('',(#95),#61,.T.);
#1173=ADVANCED_FACE('',(#96),#1152,.T.);
#1174=ADVANCED_FACE('',(#97),#62,.T.);
#1175=ADVANCED_FACE('',(#98),#63,.T.);
#1176=ADVANCED_FACE('',(#99),#27,.T.);
#1177=ADVANCED_FACE('',(#100),#15,.T.);
#1178=ADVANCED_FACE('',(#101),#28,.T.);
#1179=ADVANCED_FACE('',(#102),#16,.T.);
#1180=ADVANCED_FACE('',(#103),#29,.T.);
#1181=ADVANCED_FACE('',(#104),#64,.T.);
#1182=ADVANCED_FACE('',(#105),#30,.T.);
#1183=ADVANCED_FACE('',(#106),#65,.F.);
#1184=ADVANCED_FACE('',(#107),#31,.T.);
#1185=ADVANCED_FACE('',(#108),#66,.T.);
#1186=ADVANCED_FACE('',(#109),#67,.T.);
#1187=ADVANCED_FACE('',(#110),#1153,.F.);
#1188=ADVANCED_FACE('',(#111,#54,#55,#56,#57),#68,.T.);
#1189=ADVANCED_FACE('',(#112),#1154,.F.);
#1190=ADVANCED_FACE('',(#113),#1155,.F.);
#1191=ADVANCED_FACE('',(#114),#1156,.F.);
#1192=ADVANCED_FACE('',(#115),#32,.T.);
#1193=ADVANCED_FACE('',(#116),#33,.T.);
#1194=ADVANCED_FACE('',(#117),#1157,.T.);
#1195=ADVANCED_FACE('',(#118),#17,.T.);
#1196=ADVANCED_FACE('',(#119),#69,.T.);
#1197=ADVANCED_FACE('',(#120),#34,.F.);
#1198=ADVANCED_FACE('',(#121),#70,.F.);
#1199=ADVANCED_FACE('',(#122),#71,.T.);
#1200=ADVANCED_FACE('',(#123),#72,.T.);
#1201=ADVANCED_FACE('',(#124),#73,.F.);
#1202=ADVANCED_FACE('',(#125),#74,.F.);
#1203=ADVANCED_FACE('',(#126),#35,.T.);
#1204=ADVANCED_FACE('',(#127),#36,.F.);
#1205=ADVANCED_FACE('',(#128),#75,.F.);
#1206=ADVANCED_FACE('',(#129),#76,.F.);
#1207=ADVANCED_FACE('',(#130),#37,.T.);
#1208=ADVANCED_FACE('',(#131),#38,.T.);
#1209=ADVANCED_FACE('',(#132),#77,.T.);
#1210=ADVANCED_FACE('',(#133),#39,.F.);
#1211=ADVANCED_FACE('',(#134),#40,.T.);
#1212=ADVANCED_FACE('',(#135),#78,.F.);
#1213=ADVANCED_FACE('',(#136),#79,.F.);
#1214=ADVANCED_FACE('',(#137),#41,.T.);
#1215=ADVANCED_FACE('',(#138),#80,.F.);
#1216=ADVANCED_FACE('',(#139),#42,.T.);
#1217=ADVANCED_FACE('',(#140),#43,.T.);
#1218=ADVANCED_FACE('',(#141),#18,.T.);
#1219=ADVANCED_FACE('',(#142),#19,.T.);
#1220=ADVANCED_FACE('',(#143),#44,.T.);
#1221=ADVANCED_FACE('',(#144),#45,.T.);
#1222=ADVANCED_FACE('',(#145),#20,.T.);
#1223=ADVANCED_FACE('',(#146),#21,.T.);
#1224=ADVANCED_FACE('',(#147),#46,.T.);
#1225=ADVANCED_FACE('',(#148),#1158,.T.);
#1226=ADVANCED_FACE('',(#149,#58),#81,.F.);
#1227=CLOSED_SHELL('',(#1159,#1160,#1161,#1162,#1163,#1164,#1165,#1166,
#1167,#1168,#1169,#1170,#1171,#1172,#1173,#1174,#1175,#1176,#1177,#1178,
#1179,#1180,#1181,#1182,#1183,#1184,#1185,#1186,#1187,#1188,#1189,#1190,
#1191,#1192,#1193,#1194,#1195,#1196,#1197,#1198,#1199,#1200,#1201,#1202,
#1203,#1204,#1205,#1206,#1207,#1208,#1209,#1210,#1211,#1212,#1213,#1214,
#1215,#1216,#1217,#1218,#1219,#1220,#1221,#1222,#1223,#1224,#1225,#1226));
#1228=DERIVED_UNIT_ELEMENT(#1230,1.);
#1229=DERIVED_UNIT_ELEMENT(#2140,-3.);
#1230=(
MASS_UNIT()
NAMED_UNIT(*)
SI_UNIT(.KILO.,.GRAM.)
);
#1231=DERIVED_UNIT((#1228,#1229));
#1232=MEASURE_REPRESENTATION_ITEM('density measure',
POSITIVE_RATIO_MEASURE(7850.),#1231);
#1233=PROPERTY_DEFINITION_REPRESENTATION(#1238,#1235);
#1234=PROPERTY_DEFINITION_REPRESENTATION(#1239,#1236);
#1235=REPRESENTATION('material name',(#1237),#2137);
#1236=REPRESENTATION('density',(#1232),#2137);
#1237=DESCRIPTIVE_REPRESENTATION_ITEM('Steel','Steel');
#1238=PROPERTY_DEFINITION('material property','material name',#2147);
#1239=PROPERTY_DEFINITION('material property','density of part',#2147);
#1240=AXIS2_PLACEMENT_3D('',#1780,#1387,#1388);
#1241=AXIS2_PLACEMENT_3D('',#1781,#1389,#1390);
#1242=AXIS2_PLACEMENT_3D('',#1783,#1391,#1392);
#1243=AXIS2_PLACEMENT_3D('',#1786,#1394,#1395);
#1244=AXIS2_PLACEMENT_3D('',#1787,#1396,#1397);
#1245=AXIS2_PLACEMENT_3D('',#1794,#1400,#1401);
#1246=AXIS2_PLACEMENT_3D('',#1798,#1403,#1404);
#1247=AXIS2_PLACEMENT_3D('',#1801,#1406,#1407);
#1248=AXIS2_PLACEMENT_3D('',#1803,#1408,#1409);
#1249=AXIS2_PLACEMENT_3D('',#1804,#1410,#1411);
#1250=AXIS2_PLACEMENT_3D('',#1806,#1412,#1413);
#1251=AXIS2_PLACEMENT_3D('',#1808,#1415,#1416);
#1252=AXIS2_PLACEMENT_3D('',#1810,#1417,#1418);
#1253=AXIS2_PLACEMENT_3D('',#1814,#1420,#1421);
#1254=AXIS2_PLACEMENT_3D('',#1815,#1422,#1423);
#1255=AXIS2_PLACEMENT_3D('',#1816,#1424,#1425);
#1256=AXIS2_PLACEMENT_3D('',#1821,#1427,#1428);
#1257=AXIS2_PLACEMENT_3D('',#1825,#1430,#1431);
#1258=AXIS2_PLACEMENT_3D('',#1829,#1433,#1434);
#1259=AXIS2_PLACEMENT_3D('',#1833,#1436,#1437);
#1260=AXIS2_PLACEMENT_3D('',#1837,#1439,#1440);
#1261=AXIS2_PLACEMENT_3D('',#1842,#1443,#1444);
#1262=AXIS2_PLACEMENT_3D('',#1844,#1445,#1446);
#1263=AXIS2_PLACEMENT_3D('',#1846,#1447,#1448);
#1264=AXIS2_PLACEMENT_3D('',#1847,#1449,#1450);
#1265=AXIS2_PLACEMENT_3D('',#1849,#1451,#1452);
#1266=AXIS2_PLACEMENT_3D('',#1851,#1454,#1455);
#1267=AXIS2_PLACEMENT_3D('',#1855,#1457,#1458);
#1268=AXIS2_PLACEMENT_3D('',#1856,#1459,#1460);
#1269=AXIS2_PLACEMENT_3D('',#1857,#1461,#1462);
#1270=AXIS2_PLACEMENT_3D('',#1859,#1463,#1464);
#1271=AXIS2_PLACEMENT_3D('',#1861,#1466,#1467);
#1272=AXIS2_PLACEMENT_3D('',#1865,#1469,#1470);
#1273=AXIS2_PLACEMENT_3D('',#1866,#1471,#1472);
#1274=AXIS2_PLACEMENT_3D('',#1867,#1473,#1474);
#1275=AXIS2_PLACEMENT_3D('',#1869,#1475,#1476);
#1276=AXIS2_PLACEMENT_3D('',#1871,#1478,#1479);
#1277=AXIS2_PLACEMENT_3D('',#1875,#1481,#1482);
#1278=AXIS2_PLACEMENT_3D('',#1876,#1483,#1484);
#1279=AXIS2_PLACEMENT_3D('',#1877,#1485,#1486);
#1280=AXIS2_PLACEMENT_3D('',#1879,#1487,#1488);
#1281=AXIS2_PLACEMENT_3D('',#1881,#1490,#1491);
#1282=AXIS2_PLACEMENT_3D('',#1886,#1493,#1494);
#1283=AXIS2_PLACEMENT_3D('',#1888,#1496,#1497);
#1284=AXIS2_PLACEMENT_3D('',#1889,#1498,#1499);
#1285=AXIS2_PLACEMENT_3D('',#1893,#1502,#1503);
#1286=AXIS2_PLACEMENT_3D('',#1897,#1505,#1506);
#1287=AXIS2_PLACEMENT_3D('',#1898,#1507,#1508);
#1288=AXIS2_PLACEMENT_3D('',#1899,#1509,#1510);
#1289=AXIS2_PLACEMENT_3D('',#1903,#1512,#1513);
#1290=AXIS2_PLACEMENT_3D('',#1907,#1515,#1516);
#1291=AXIS2_PLACEMENT_3D('',#1909,#1518,#1519);
#1292=AXIS2_PLACEMENT_3D('',#1913,#1522,#1523);
#1293=AXIS2_PLACEMENT_3D('',#1915,#1524,#1525);
#1294=AXIS2_PLACEMENT_3D('',#1917,#1527,#1528);
#1295=AXIS2_PLACEMENT_3D('',#1919,#1529,#1530);
#1296=AXIS2_PLACEMENT_3D('',#1920,#1531,#1532);
#1297=AXIS2_PLACEMENT_3D('',#1921,#1533,#1534);
#1298=AXIS2_PLACEMENT_3D('',#1923,#1535,#1536);
#1299=AXIS2_PLACEMENT_3D('',#1925,#1538,#1539);
#1300=AXIS2_PLACEMENT_3D('',#1927,#1540,#1541);
#1301=AXIS2_PLACEMENT_3D('',#1928,#1542,#1543);
#1302=AXIS2_PLACEMENT_3D('',#1929,#1544,#1545);
#1303=AXIS2_PLACEMENT_3D('',#1931,#1547,#1548);
#1304=AXIS2_PLACEMENT_3D('',#1939,#1553,#1554);
#1305=AXIS2_PLACEMENT_3D('',#1942,#1556,#1557);
#1306=AXIS2_PLACEMENT_3D('',#1943,#1558,#1559);
#1307=AXIS2_PLACEMENT_3D('',#1955,#1566,#1567);
#1308=AXIS2_PLACEMENT_3D('',#1958,#1569,#1570);
#1309=AXIS2_PLACEMENT_3D('',#1959,#1571,#1572);
#1310=AXIS2_PLACEMENT_3D('',#1967,#1577,#1578);
#1311=AXIS2_PLACEMENT_3D('',#1969,#1580,#1581);
#1312=AXIS2_PLACEMENT_3D('',#1971,#1582,#1583);
#1313=AXIS2_PLACEMENT_3D('',#1973,#1585,#1586);
#1314=AXIS2_PLACEMENT_3D('',#1976,#1587,#1588);
#1315=AXIS2_PLACEMENT_3D('',#1978,#1589,#1590);
#1316=AXIS2_PLACEMENT_3D('',#1986,#1594,#1595);
#1317=AXIS2_PLACEMENT_3D('',#1991,#1598,#1599);
#1318=AXIS2_PLACEMENT_3D('',#1993,#1600,#1601);
#1319=AXIS2_PLACEMENT_3D('',#1997,#1603,#1604);
#1320=AXIS2_PLACEMENT_3D('',#2001,#1606,#1607);
#1321=AXIS2_PLACEMENT_3D('',#2005,#1609,#1610);
#1322=AXIS2_PLACEMENT_3D('',#2008,#1612,#1613);
#1323=AXIS2_PLACEMENT_3D('',#2010,#1614,#1615);
#1324=AXIS2_PLACEMENT_3D('',#2015,#1618,#1619);
#1325=AXIS2_PLACEMENT_3D('',#2017,#1620,#1621);
#1326=AXIS2_PLACEMENT_3D('',#2019,#1622,#1623);
#1327=AXIS2_PLACEMENT_3D('',#2020,#1624,#1625);
#1328=AXIS2_PLACEMENT_3D('',#2022,#1627,#1628);
#1329=AXIS2_PLACEMENT_3D('',#2024,#1630,#1631);
#1330=AXIS2_PLACEMENT_3D('',#2026,#1633,#1634);
#1331=AXIS2_PLACEMENT_3D('',#2027,#1635,#1636);
#1332=AXIS2_PLACEMENT_3D('',#2028,#1637,#1638);
#1333=AXIS2_PLACEMENT_3D('',#2029,#1639,#1640);
#1334=AXIS2_PLACEMENT_3D('',#2032,#1642,#1643);
#1335=AXIS2_PLACEMENT_3D('',#2033,#1644,#1645);
#1336=AXIS2_PLACEMENT_3D('',#2035,#1647,#1648);
#1337=AXIS2_PLACEMENT_3D('',#2036,#1649,#1650);
#1338=AXIS2_PLACEMENT_3D('',#2037,#1651,#1652);
#1339=AXIS2_PLACEMENT_3D('',#2041,#1655,#1656);
#1340=AXIS2_PLACEMENT_3D('',#2046,#1659,#1660);
#1341=AXIS2_PLACEMENT_3D('',#2048,#1662,#1663);
#1342=AXIS2_PLACEMENT_3D('',#2052,#1666,#1667);
#1343=AXIS2_PLACEMENT_3D('',#2056,#1670,#1671);
#1344=AXIS2_PLACEMENT_3D('',#2060,#1674,#1675);
#1345=AXIS2_PLACEMENT_3D('',#2064,#1678,#1679);
#1346=AXIS2_PLACEMENT_3D('',#2068,#1682,#1683);
#1347=AXIS2_PLACEMENT_3D('',#2069,#1684,#1685);
#1348=AXIS2_PLACEMENT_3D('',#2070,#1686,#1687);
#1349=AXIS2_PLACEMENT_3D('',#2074,#1689,#1690);
#1350=AXIS2_PLACEMENT_3D('',#2076,#1692,#1693);
#1351=AXIS2_PLACEMENT_3D('',#2077,#1694,#1695);
#1352=AXIS2_PLACEMENT_3D('',#2081,#1698,#1699);
#1353=AXIS2_PLACEMENT_3D('',#2085,#1702,#1703);
#1354=AXIS2_PLACEMENT_3D('',#2086,#1704,#1705);
#1355=AXIS2_PLACEMENT_3D('',#2087,#1706,#1707);
#1356=AXIS2_PLACEMENT_3D('',#2090,#1709,#1710);
#1357=AXIS2_PLACEMENT_3D('',#2091,#1711,#1712);
#1358=AXIS2_PLACEMENT_3D('',#2095,#1715,#1716);
#1359=AXIS2_PLACEMENT_3D('',#2098,#1718,#1719);
#1360=AXIS2_PLACEMENT_3D('',#2099,#1720,#1721);
#1361=AXIS2_PLACEMENT_3D('',#2102,#1723,#1724);
#1362=AXIS2_PLACEMENT_3D('',#2103,#1725,#1726);
#1363=AXIS2_PLACEMENT_3D('',#2107,#1729,#1730);
#1364=AXIS2_PLACEMENT_3D('',#2111,#1733,#1734);
#1365=AXIS2_PLACEMENT_3D('',#2112,#1735,#1736);
#1366=AXIS2_PLACEMENT_3D('',#2113,#1737,#1738);
#1367=AXIS2_PLACEMENT_3D('',#2115,#1740,#1741);
#1368=AXIS2_PLACEMENT_3D('',#2116,#1742,#1743);
#1369=AXIS2_PLACEMENT_3D('',#2117,#1744,#1745);
#1370=AXIS2_PLACEMENT_3D('',#2118,#1746,#1747);
#1371=AXIS2_PLACEMENT_3D('',#2119,#1748,#1749);
#1372=AXIS2_PLACEMENT_3D('',#2120,#1750,#1751);
#1373=AXIS2_PLACEMENT_3D('',#2121,#1752,#1753);
#1374=AXIS2_PLACEMENT_3D('',#2122,#1754,#1755);
#1375=AXIS2_PLACEMENT_3D('',#2123,#1756,#1757);
#1376=AXIS2_PLACEMENT_3D('',#2124,#1758,#1759);
#1377=AXIS2_PLACEMENT_3D('',#2125,#1760,#1761);
#1378=AXIS2_PLACEMENT_3D('',#2126,#1762,#1763);
#1379=AXIS2_PLACEMENT_3D('',#2127,#1764,#1765);
#1380=AXIS2_PLACEMENT_3D('',#2128,#1766,#1767);
#1381=AXIS2_PLACEMENT_3D('',#2129,#1768,#1769);
#1382=AXIS2_PLACEMENT_3D('',#2130,#1770,#1771);
#1383=AXIS2_PLACEMENT_3D('',#2131,#1772,#1773);
#1384=AXIS2_PLACEMENT_3D('',#2132,#1774,#1775);
#1385=AXIS2_PLACEMENT_3D('',#2133,#1776,#1777);
#1386=AXIS2_PLACEMENT_3D('',#2134,#1778,#1779);
#1387=DIRECTION('axis',(0.,0.,1.));
#1388=DIRECTION('refdir',(1.,0.,0.));
#1389=DIRECTION('center_axis',(0.,0.,1.));
#1390=DIRECTION('ref_axis',(1.,0.,0.));
#1391=DIRECTION('center_axis',(0.,0.,-1.));
#1392=DIRECTION('ref_axis',(1.,0.,0.));
#1393=DIRECTION('',(-0.707106781186549,8.65956056235495E-17,0.707106781186546));
#1394=DIRECTION('center_axis',(0.,0.,1.));
#1395=DIRECTION('ref_axis',(1.,0.,0.));
#1396=DIRECTION('center_axis',(0.,0.,1.));
#1397=DIRECTION('ref_axis',(1.,0.,0.));
#1398=DIRECTION('',(-1.,0.,0.));
#1399=DIRECTION('',(0.,-1.,0.));
#1400=DIRECTION('center_axis',(0.,0.,-1.));
#1401=DIRECTION('ref_axis',(0.707106781186547,0.707106781186548,0.));
#1402=DIRECTION('',(1.,0.,0.));
#1403=DIRECTION('center_axis',(0.,0.,-1.));
#1404=DIRECTION('ref_axis',(-0.707106781186547,0.707106781186548,0.));
#1405=DIRECTION('',(0.,1.,0.));
#1406=DIRECTION('center_axis',(0.,0.,1.));
#1407=DIRECTION('ref_axis',(1.,0.,0.));
#1408=DIRECTION('center_axis',(0.,0.,1.));
#1409=DIRECTION('ref_axis',(1.,0.,0.));
#1410=DIRECTION('center_axis',(0.,0.,1.));
#1411=DIRECTION('ref_axis',(1.,0.,0.));
#1412=DIRECTION('center_axis',(0.,2.22044604925E-16,1.));
#1413=DIRECTION('ref_axis',(1.,0.,0.));
#1414=DIRECTION('',(0.,0.,1.));
#1415=DIRECTION('center_axis',(0.,0.,-1.));
#1416=DIRECTION('ref_axis',(-1.,0.,0.));
#1417=DIRECTION('center_axis',(0.,0.,-1.));
#1418=DIRECTION('ref_axis',(-1.,0.,0.));
#1419=DIRECTION('',(-0.707106781186548,8.65956056235494E-17,0.707106781186547));
#1420=DIRECTION('center_axis',(0.,0.,1.));
#1421=DIRECTION('ref_axis',(-1.,0.,0.));
#1422=DIRECTION('center_axis',(0.,0.,1.));
#1423=DIRECTION('ref_axis',(-1.,0.,0.));
#1424=DIRECTION('center_axis',(0.,0.,1.));
#1425=DIRECTION('ref_axis',(1.,0.,0.));
#1426=DIRECTION('',(0.,-1.,0.));
#1427=DIRECTION('center_axis',(0.,0.,1.));
#1428=DIRECTION('ref_axis',(0.,1.,0.));
#1429=DIRECTION('',(-1.,0.,0.));
#1430=DIRECTION('center_axis',(0.,0.,1.));
#1431=DIRECTION('ref_axis',(1.,0.,0.));
#1432=DIRECTION('',(0.,1.,0.));
#1433=DIRECTION('center_axis',(0.,0.,-1.));
#1434=DIRECTION('ref_axis',(0.999999999997255,-2.3432131988286E-6,0.));
#1435=DIRECTION('',(0.,-1.,0.));
#1436=DIRECTION('center_axis',(0.,0.,1.));
#1437=DIRECTION('ref_axis',(0.,1.,0.));
#1438=DIRECTION('',(-1.,0.,0.));
#1439=DIRECTION('center_axis',(0.,0.,1.));
#1440=DIRECTION('ref_axis',(1.,0.,0.));
#1441=DIRECTION('',(0.,1.,0.));
#1442=DIRECTION('',(-1.,0.,0.));
#1443=DIRECTION('center_axis',(0.,0.,-1.));
#1444=DIRECTION('ref_axis',(-1.,0.,0.));
#1445=DIRECTION('center_axis',(0.,0.,-1.));
#1446=DIRECTION('ref_axis',(-1.,0.,0.));
#1447=DIRECTION('center_axis',(0.,0.,-1.));
#1448=DIRECTION('ref_axis',(-1.,0.,0.));
#1449=DIRECTION('center_axis',(0.,0.,-1.));
#1450=DIRECTION('ref_axis',(1.,0.,0.));
#1451=DIRECTION('center_axis',(0.,0.,-1.));
#1452=DIRECTION('ref_axis',(1.,0.,0.));
#1453=DIRECTION('',(0.,0.,-1.));
#1454=DIRECTION('center_axis',(0.,0.,-1.));
#1455=DIRECTION('ref_axis',(-1.,0.,0.));
#1456=DIRECTION('',(-0.707106781186548,8.65956056235494E-17,0.707106781186547));
#1457=DIRECTION('center_axis',(0.,0.,1.));
#1458=DIRECTION('ref_axis',(-1.,0.,0.));
#1459=DIRECTION('center_axis',(0.,0.,1.));
#1460=DIRECTION('ref_axis',(-1.,0.,0.));
#1461=DIRECTION('center_axis',(0.,0.,-1.));
#1462=DIRECTION('ref_axis',(1.,0.,0.));
#1463=DIRECTION('center_axis',(0.,0.,-1.));
#1464=DIRECTION('ref_axis',(1.,0.,0.));
#1465=DIRECTION('',(0.,0.,-1.));
#1466=DIRECTION('center_axis',(0.,0.,-1.));
#1467=DIRECTION('ref_axis',(-1.,0.,0.));
#1468=DIRECTION('',(-0.707106781186548,8.65956056235494E-17,0.707106781186547));
#1469=DIRECTION('center_axis',(0.,0.,1.));
#1470=DIRECTION('ref_axis',(-1.,0.,0.));
#1471=DIRECTION('center_axis',(0.,0.,1.));
#1472=DIRECTION('ref_axis',(-1.,0.,0.));
#1473=DIRECTION('center_axis',(0.,0.,-1.));
#1474=DIRECTION('ref_axis',(1.,0.,0.));
#1475=DIRECTION('center_axis',(0.,0.,-1.));
#1476=DIRECTION('ref_axis',(1.,0.,0.));
#1477=DIRECTION('',(0.,0.,-1.));
#1478=DIRECTION('center_axis',(0.,0.,-1.));
#1479=DIRECTION('ref_axis',(-1.,0.,0.));
#1480=DIRECTION('',(-0.707106781186548,8.65956056235494E-17,0.707106781186547));
#1481=DIRECTION('center_axis',(0.,0.,1.));
#1482=DIRECTION('ref_axis',(-1.,0.,0.));
#1483=DIRECTION('center_axis',(0.,0.,1.));
#1484=DIRECTION('ref_axis',(-1.,0.,0.));
#1485=DIRECTION('center_axis',(0.,0.,-1.));
#1486=DIRECTION('ref_axis',(1.,0.,0.));
#1487=DIRECTION('center_axis',(0.,0.,-1.));
#1488=DIRECTION('ref_axis',(1.,0.,0.));
#1489=DIRECTION('',(0.,0.,-1.));
#1490=DIRECTION('center_axis',(0.,1.,0.));
#1491=DIRECTION('ref_axis',(-0.707106781186544,0.,0.707106781186551));
#1492=DIRECTION('',(-0.707106781186547,0.707106781186548,0.));
#1493=DIRECTION('center_axis',(0.,1.,0.));
#1494=DIRECTION('ref_axis',(-0.707106781186544,0.,0.707106781186551));
#1495=DIRECTION('',(0.,0.70710678118655,0.707106781186545));
#1496=DIRECTION('center_axis',(0.,-1.,0.));
#1497=DIRECTION('ref_axis',(-0.707106781186544,0.,0.707106781186551));
#1498=DIRECTION('center_axis',(0.,-0.707106781186548,0.707106781186548));
#1499=DIRECTION('ref_axis',(1.,0.,0.));
#1500=DIRECTION('',(1.,0.,0.));
#1501=DIRECTION('',(0.,0.707106781186548,0.707106781186548));
#1502=DIRECTION('center_axis',(0.,1.,0.));
#1503=DIRECTION('ref_axis',(0.707106781186544,0.,0.707106781186551));
#1504=DIRECTION('',(0.707106781186547,0.707106781186548,0.));
#1505=DIRECTION('center_axis',(0.,-1.,0.));
#1506=DIRECTION('ref_axis',(0.707106781186544,0.,0.707106781186551));
#1507=DIRECTION('center_axis',(0.,1.,0.));
#1508=DIRECTION('ref_axis',(0.707106781186544,0.,0.707106781186551));
#1509=DIRECTION('center_axis',(0.,-1.,0.));
#1510=DIRECTION('ref_axis',(0.,0.,-1.));
#1511=DIRECTION('',(0.,0.,1.));
#1512=DIRECTION('center_axis',(0.,1.,0.));
#1513=DIRECTION('ref_axis',(0.,0.,-1.));
#1514=DIRECTION('',(-1.,0.,0.));
#1515=DIRECTION('center_axis',(0.,1.,0.));
#1516=DIRECTION('ref_axis',(1.,0.,-4.440892098501E-16));
#1517=DIRECTION('',(0.,0.,-1.));
#1518=DIRECTION('center_axis',(-0.707106781186548,-0.707106781186548,0.));
#1519=DIRECTION('ref_axis',(0.,0.,-1.));
#1520=DIRECTION('',(0.,0.,1.));
#1521=DIRECTION('',(0.707106781186548,-0.707106781186548,0.));
#1522=DIRECTION('center_axis',(0.,-1.,0.));
#1523=DIRECTION('ref_axis',(-0.707106781186544,0.,0.707106781186551));
#1524=DIRECTION('center_axis',(0.,-1.,0.));
#1525=DIRECTION('ref_axis',(0.,0.,1.));
#1526=DIRECTION('',(0.,-1.,0.));
#1527=DIRECTION('center_axis',(0.,0.,1.));
#1528=DIRECTION('ref_axis',(1.,0.,0.));
#1529=DIRECTION('center_axis',(-1.,0.,0.));
#1530=DIRECTION('ref_axis',(0.,0.,1.));
#1531=DIRECTION('center_axis',(0.,0.,1.));
#1532=DIRECTION('ref_axis',(-0.707106781186547,0.707106781186548,0.));
#1533=DIRECTION('center_axis',(-1.,0.,0.));
#1534=DIRECTION('ref_axis',(0.,0.707106781186546,0.707106781186549));
#1535=DIRECTION('center_axis',(-1.,0.,0.));
#1536=DIRECTION('ref_axis',(0.,0.,1.));
#1537=DIRECTION('',(-1.,0.,0.));
#1538=DIRECTION('center_axis',(0.,0.,1.));
#1539=DIRECTION('ref_axis',(1.,0.,0.));
#1540=DIRECTION('center_axis',(0.,1.,0.));
#1541=DIRECTION('ref_axis',(0.,0.,1.));
#1542=DIRECTION('center_axis',(0.,0.,1.));
#1543=DIRECTION('ref_axis',(0.707106781186547,0.707106781186548,0.));
#1544=DIRECTION('center_axis',(0.,-1.,0.));
#1545=DIRECTION('ref_axis',(0.707106781186544,0.,0.707106781186551));
#1546=DIRECTION('',(0.,1.,0.));
#1547=DIRECTION('center_axis',(-1.,0.,0.));
#1548=DIRECTION('ref_axis',(0.,0.,-1.));
#1549=DIRECTION('',(0.,0.,1.));
#1550=DIRECTION('',(0.,-1.,0.));
#1551=DIRECTION('',(0.,0.,1.));
#1552=DIRECTION('',(0.,-1.,0.));
#1553=DIRECTION('center_axis',(0.,0.,1.));
#1554=DIRECTION('ref_axis',(0.,1.,0.));
#1555=DIRECTION('',(0.,0.,1.));
#1556=DIRECTION('center_axis',(0.,0.,1.));
#1557=DIRECTION('ref_axis',(0.,-1.,0.));
#1558=DIRECTION('center_axis',(0.,-1.,0.));
#1559=DIRECTION('ref_axis',(-1.,0.,0.));
#1560=DIRECTION('',(0.,0.,1.));
#1561=DIRECTION('',(-1.,0.,0.));
#1562=DIRECTION('',(0.,0.,1.));
#1563=DIRECTION('',(1.,0.,0.));
#1564=DIRECTION('',(0.,0.,-1.));
#1565=DIRECTION('',(-1.,0.,0.));
#1566=DIRECTION('center_axis',(0.,0.,1.));
#1567=DIRECTION('ref_axis',(1.,0.,0.));
#1568=DIRECTION('',(0.,0.,1.));
#1569=DIRECTION('center_axis',(0.,0.,1.));
#1570=DIRECTION('ref_axis',(0.,-1.,0.));
#1571=DIRECTION('center_axis',(1.,0.,0.));
#1572=DIRECTION('ref_axis',(0.,0.,1.));
#1573=DIRECTION('',(0.,0.,-1.));
#1574=DIRECTION('',(0.,1.,0.));
#1575=DIRECTION('',(0.,0.,1.));
#1576=DIRECTION('',(0.,1.,0.));
#1577=DIRECTION('center_axis',(0.707106781186548,-0.707106781186548,0.));
#1578=DIRECTION('ref_axis',(0.,0.,1.));
#1579=DIRECTION('',(-0.707106781186548,-0.707106781186548,0.));
#1580=DIRECTION('center_axis',(0.,0.,1.));
#1581=DIRECTION('ref_axis',(1.,0.,0.));
#1582=DIRECTION('center_axis',(0.,0.,1.));
#1583=DIRECTION('ref_axis',(1.,0.,0.));
#1584=DIRECTION('',(0.707106781186548,8.65956056235494E-17,-0.707106781186547));
#1585=DIRECTION('center_axis',(0.,0.,1.));
#1586=DIRECTION('ref_axis',(1.,0.,0.));
#1587=DIRECTION('center_axis',(0.,0.,1.));
#1588=DIRECTION('ref_axis',(1.,0.,0.));
#1589=DIRECTION('center_axis',(0.,0.,1.));
#1590=DIRECTION('ref_axis',(1.,0.,0.));
#1591=DIRECTION('',(0.795074105546091,0.60651229722907,0.));
#1592=DIRECTION('',(1.,0.,0.));
#1593=DIRECTION('',(0.795074105546091,-0.60651229722907,0.));
#1594=DIRECTION('center_axis',(0.,0.,1.));
#1595=DIRECTION('ref_axis',(1.,0.,0.));
#1596=DIRECTION('',(-0.490596311410817,0.871386974443674,0.));
#1597=DIRECTION('',(0.,1.,-2.22044604925E-16));
#1598=DIRECTION('center_axis',(0.,0.,1.));
#1599=DIRECTION('ref_axis',(0.,-1.,0.));
#1600=DIRECTION('center_axis',(0.,0.,-1.));
#1601=DIRECTION('ref_axis',(0.,-1.,0.));
#1602=DIRECTION('',(-1.,0.,0.));
#1603=DIRECTION('center_axis',(0.,0.,-1.));
#1604=DIRECTION('ref_axis',(0.,-1.,0.));
#1605=DIRECTION('',(0.,-1.,0.));
#1606=DIRECTION('center_axis',(0.,0.,1.));
#1607=DIRECTION('ref_axis',(1.,0.,0.));
#1608=DIRECTION('',(0.,-1.,0.));
#1609=DIRECTION('center_axis',(0.,0.,1.));
#1610=DIRECTION('ref_axis',(0.,-1.,0.));
#1611=DIRECTION('',(1.,0.,0.));
#1612=DIRECTION('center_axis',(0.,0.,-1.));
#1613=DIRECTION('ref_axis',(0.,-1.,0.));
#1614=DIRECTION('center_axis',(0.,0.,1.));
#1615=DIRECTION('ref_axis',(0.,1.,0.));
#1616=DIRECTION('',(0.,1.,-2.22044604925E-16));
#1617=DIRECTION('',(0.490596311410817,0.871386974443674,0.));
#1618=DIRECTION('center_axis',(0.,0.,1.));
#1619=DIRECTION('ref_axis',(1.,0.,0.));
#1620=DIRECTION('center_axis',(0.,0.,1.));
#1621=DIRECTION('ref_axis',(1.,0.,0.));
#1622=DIRECTION('center_axis',(0.,0.,1.));
#1623=DIRECTION('ref_axis',(1.,0.,0.));
#1624=DIRECTION('center_axis',(0.,0.,1.));
#1625=DIRECTION('ref_axis',(1.,0.,0.));
#1626=DIRECTION('',(0.707106781186548,8.65956056235494E-17,-0.707106781186547));
#1627=DIRECTION('center_axis',(0.,0.,1.));
#1628=DIRECTION('ref_axis',(1.,0.,0.));
#1629=DIRECTION('',(-0.707106781186548,8.65956056235494E-17,0.707106781186547));
#1630=DIRECTION('center_axis',(0.,0.,1.));
#1631=DIRECTION('ref_axis',(1.,0.,0.));
#1632=DIRECTION('',(0.707106781186548,8.65956056235494E-17,-0.707106781186547));
#1633=DIRECTION('center_axis',(0.,-1.,0.));
#1634=DIRECTION('ref_axis',(0.,0.,-1.));
#1635=DIRECTION('center_axis',(0.,1.,0.));
#1636=DIRECTION('ref_axis',(0.,0.,-1.));
#1637=DIRECTION('center_axis',(6.123233995737E-17,1.,0.));
#1638=DIRECTION('ref_axis',(-1.,6.123233995737E-17,0.));
#1639=DIRECTION('center_axis',(0.,0.,1.));
#1640=DIRECTION('ref_axis',(-1.,0.,0.));
#1641=DIRECTION('',(0.,0.,1.));
#1642=DIRECTION('center_axis',(0.,0.,1.));
#1643=DIRECTION('ref_axis',(0.,1.,0.));
#1644=DIRECTION('center_axis',(0.,1.,0.));
#1645=DIRECTION('ref_axis',(0.,0.,-1.));
#1646=DIRECTION('',(0.,-0.707106781186548,0.707106781186548));
#1647=DIRECTION('center_axis',(0.,0.,1.));
#1648=DIRECTION('ref_axis',(0.,1.,0.));
#1649=DIRECTION('center_axis',(1.,0.,0.));
#1650=DIRECTION('ref_axis',(0.,0.,-1.));
#1651=DIRECTION('center_axis',(0.,1.,0.));
#1652=DIRECTION('ref_axis',(1.,0.,0.));
#1653=DIRECTION('',(0.,0.,1.));
#1654=DIRECTION('',(-1.,0.,0.));
#1655=DIRECTION('center_axis',(0.,0.,-1.));
#1656=DIRECTION('ref_axis',(1.,0.,0.));
#1657=DIRECTION('',(0.,0.,-1.));
#1658=DIRECTION('',(0.,0.,-1.));
#1659=DIRECTION('center_axis',(0.,2.22044604925E-16,1.));
#1660=DIRECTION('ref_axis',(1.,0.,0.));
#1661=DIRECTION('',(0.,0.,-1.));
#1662=DIRECTION('center_axis',(0.60651229722907,-0.795074105546091,0.));
#1663=DIRECTION('ref_axis',(0.,0.,-1.));
#1664=DIRECTION('',(0.795074105546091,0.60651229722907,-1.34672783420383E-16));
#1665=DIRECTION('',(0.,0.,-1.));
#1666=DIRECTION('center_axis',(0.871386974443675,-0.490596311410817,0.));
#1667=DIRECTION('ref_axis',(0.,0.,-1.));
#1668=DIRECTION('',(0.490596311410817,0.871386974443675,-1.93486776477137E-16));
#1669=DIRECTION('',(0.,0.,-1.));
#1670=DIRECTION('center_axis',(0.,1.,0.));
#1671=DIRECTION('ref_axis',(0.,0.,1.));
#1672=DIRECTION('',(-1.,0.,0.));
#1673=DIRECTION('',(0.,0.,-1.));
#1674=DIRECTION('center_axis',(-1.,0.,0.));
#1675=DIRECTION('ref_axis',(0.,-2.22044604925E-16,-1.));
#1676=DIRECTION('',(0.,0.,-1.));
#1677=DIRECTION('',(0.,-1.,2.22044604925E-16));
#1678=DIRECTION('center_axis',(-0.60651229722907,-0.795074105546091,0.));
#1679=DIRECTION('ref_axis',(0.,0.,-1.));
#1680=DIRECTION('',(0.795074105546091,-0.60651229722907,1.34672783420383E-16));
#1681=DIRECTION('',(0.,0.,-1.));
#1682=DIRECTION('center_axis',(0.,0.,-1.));
#1683=DIRECTION('ref_axis',(1.,0.,0.));
#1684=DIRECTION('center_axis',(0.,2.22044604925E-16,1.));
#1685=DIRECTION('ref_axis',(1.,0.,0.));
#1686=DIRECTION('center_axis',(0.,0.,-1.));
#1687=DIRECTION('ref_axis',(1.,0.,0.));
#1688=DIRECTION('',(0.,0.,-1.));
#1689=DIRECTION('center_axis',(0.,2.22044604925E-16,1.));
#1690=DIRECTION('ref_axis',(1.,0.,0.));
#1691=DIRECTION('',(0.,0.,-1.));
#1692=DIRECTION('center_axis',(0.,2.22044604925E-16,1.));
#1693=DIRECTION('ref_axis',(1.,0.,0.));
#1694=DIRECTION('center_axis',(0.871386974443675,0.490596311410817,0.));
#1695=DIRECTION('ref_axis',(0.,0.,-1.));
#1696=DIRECTION('',(-0.490596311410817,0.871386974443675,-1.93486776477137E-16));
#1697=DIRECTION('',(0.,0.,-1.));
#1698=DIRECTION('center_axis',(1.,0.,0.));
#1699=DIRECTION('ref_axis',(0.,2.22044604925E-16,1.));
#1700=DIRECTION('',(0.,1.,-2.22044604925E-16));
#1701=DIRECTION('',(0.,0.,1.));
#1702=DIRECTION('center_axis',(0.,0.,1.));
#1703=DIRECTION('ref_axis',(0.,1.,0.));
#1704=DIRECTION('center_axis',(0.,2.22044604925E-16,1.));
#1705=DIRECTION('ref_axis',(0.,1.,0.));
#1706=DIRECTION('center_axis',(0.,0.,1.));
#1707=DIRECTION('ref_axis',(1.,0.,0.));
#1708=DIRECTION('',(0.,0.,1.));
#1709=DIRECTION('center_axis',(0.,0.,1.));
#1710=DIRECTION('ref_axis',(1.,0.,0.));
#1711=DIRECTION('center_axis',(1.,0.,0.));
#1712=DIRECTION('ref_axis',(0.,-1.,0.));
#1713=DIRECTION('',(0.,0.,1.));
#1714=DIRECTION('',(0.,1.,0.));
#1715=DIRECTION('center_axis',(0.,0.,-1.));
#1716=DIRECTION('ref_axis',(1.,0.,0.));
#1717=DIRECTION('',(0.,0.,1.));
#1718=DIRECTION('center_axis',(0.,0.,-1.));
#1719=DIRECTION('ref_axis',(0.999999999997255,-2.3432131988286E-6,0.));
#1720=DIRECTION('center_axis',(0.,0.,1.));
#1721=DIRECTION('ref_axis',(0.,1.,0.));
#1722=DIRECTION('',(0.,0.,1.));
#1723=DIRECTION('center_axis',(0.,0.,1.));
#1724=DIRECTION('ref_axis',(1.,0.,0.));
#1725=DIRECTION('center_axis',(1.,0.,0.));
#1726=DIRECTION('ref_axis',(0.,-1.,0.));
#1727=DIRECTION('',(0.,0.,1.));
#1728=DIRECTION('',(0.,-1.,0.));
#1729=DIRECTION('center_axis',(0.,-1.,0.));
#1730=DIRECTION('ref_axis',(-1.,0.,0.));
#1731=DIRECTION('',(-1.,0.,0.));
#1732=DIRECTION('',(0.,0.,1.));
#1733=DIRECTION('center_axis',(0.,0.,1.));
#1734=DIRECTION('ref_axis',(-1.,0.,0.));
#1735=DIRECTION('center_axis',(0.,0.,1.));
#1736=DIRECTION('ref_axis',(0.,1.,0.));
#1737=DIRECTION('center_axis',(-6.98316161862353E-18,0.707106781186548,
0.707106781186548));
#1738=DIRECTION('ref_axis',(-1.,-4.93784093465033E-18,-4.93784093465033E-18));
#1739=DIRECTION('',(1.13711443056527E-16,-0.707106781186548,0.707106781186548));
#1740=DIRECTION('center_axis',(0.,1.,0.));
#1741=DIRECTION('ref_axis',(0.,0.,-1.));
#1742=DIRECTION('center_axis',(0.,-1.,0.));
#1743=DIRECTION('ref_axis',(0.,0.,-1.));
#1744=DIRECTION('center_axis',(0.,1.,0.));
#1745=DIRECTION('ref_axis',(1.,0.,-4.440892098501E-16));
#1746=DIRECTION('center_axis',(-1.,0.,0.));
#1747=DIRECTION('ref_axis',(0.,0.,-1.));
#1748=DIRECTION('center_axis',(1.,-6.123233995737E-17,0.));
#1749=DIRECTION('ref_axis',(6.123233995737E-17,1.,0.));
#1750=DIRECTION('center_axis',(0.,0.,1.));
#1751=DIRECTION('ref_axis',(1.,0.,0.));
#1752=DIRECTION('center_axis',(1.,-6.123233995737E-17,0.));
#1753=DIRECTION('ref_axis',(6.123233995737E-17,1.,0.));
#1754=DIRECTION('center_axis',(0.,0.,1.));
#1755=DIRECTION('ref_axis',(1.,0.,0.));
#1756=DIRECTION('center_axis',(0.,-1.,0.));
#1757=DIRECTION('ref_axis',(0.,0.,-1.));
#1758=DIRECTION('center_axis',(-1.,0.,0.));
#1759=DIRECTION('ref_axis',(0.,0.,-1.));
#1760=DIRECTION('center_axis',(1.,0.,0.));
#1761=DIRECTION('ref_axis',(0.,0.,-1.));
#1762=DIRECTION('center_axis',(0.,1.,0.));
#1763=DIRECTION('ref_axis',(0.,0.,-1.));
#1764=DIRECTION('center_axis',(2.3432188064206E-6,-0.999999999997255,0.));
#1765=DIRECTION('ref_axis',(-0.999999999997255,-2.3432188064206E-6,0.));
#1766=DIRECTION('center_axis',(0.,0.,1.));
#1767=DIRECTION('ref_axis',(0.,1.,0.));
#1768=DIRECTION('center_axis',(6.123233995737E-17,1.,0.));
#1769=DIRECTION('ref_axis',(-1.,6.123233995737E-17,0.));
#1770=DIRECTION('center_axis',(0.,0.,-1.));
#1771=DIRECTION('ref_axis',(0.999999999997255,-2.3432131988286E-6,0.));
#1772=DIRECTION('center_axis',(0.,1.,0.));
#1773=DIRECTION('ref_axis',(0.,0.,-1.));
#1774=DIRECTION('center_axis',(0.,-1.,0.));
#1775=DIRECTION('ref_axis',(0.,0.,-1.));
#1776=DIRECTION('center_axis',(0.,1.,0.));
#1777=DIRECTION('ref_axis',(1.,0.,-4.440892098501E-16));
#1778=DIRECTION('center_axis',(0.,2.22044604925E-16,1.));
#1779=DIRECTION('ref_axis',(-1.,0.,0.));
#1780=CARTESIAN_POINT('',(0.,0.,0.));
#1781=CARTESIAN_POINT('Origin',(0.,0.,26.75));
#1782=CARTESIAN_POINT('',(-11.1,1.35935794705356E-15,26.5));
#1783=CARTESIAN_POINT('Origin',(0.,0.,26.5));
#1784=CARTESIAN_POINT('',(-11.6,-1.42059028701093E-15,27.));
#1785=CARTESIAN_POINT('',(-11.35,1.38997411703225E-15,26.75));
#1786=CARTESIAN_POINT('Origin',(0.,0.,27.));
#1787=CARTESIAN_POINT('Origin',(0.,-4.,27.));
#1788=CARTESIAN_POINT('',(20.,-20.2,27.));
#1789=CARTESIAN_POINT('',(-20.,-20.2,27.));
#1790=CARTESIAN_POINT('',(0.,-20.2,27.));
#1791=CARTESIAN_POINT('',(20.,10.6,27.));
#1792=CARTESIAN_POINT('',(20.,-2.6944444444445,27.));
#1793=CARTESIAN_POINT('',(18.6,12.,27.));
#1794=CARTESIAN_POINT('Origin',(18.6,10.6,27.));
#1795=CARTESIAN_POINT('',(-18.6,12.,27.));
#1796=CARTESIAN_POINT('',(10.5,12.,27.));
#1797=CARTESIAN_POINT('',(-20.,10.6,27.));
#1798=CARTESIAN_POINT('Origin',(-18.6,10.6,27.));
#1799=CARTESIAN_POINT('',(-20.,-2.6944444444445,27.));
#1800=CARTESIAN_POINT('',(11.75,-15.5,27.));
#1801=CARTESIAN_POINT('Origin',(15.5,-15.5,27.));
#1802=CARTESIAN_POINT('',(-19.25,-15.5,27.));
#1803=CARTESIAN_POINT('Origin',(-15.5,-15.5,27.));
#1804=CARTESIAN_POINT('Origin',(0.,0.,30.));
#1805=CARTESIAN_POINT('',(-11.1,-1.35935794705356E-15,20.));
#1806=CARTESIAN_POINT('Origin',(0.,0.,20.));
#1807=CARTESIAN_POINT('',(-11.1,-1.35935794705356E-15,30.));
#1808=CARTESIAN_POINT('Origin',(15.5,-15.5,0.25));
#1809=CARTESIAN_POINT('',(17.7,-15.5,0.));
#1810=CARTESIAN_POINT('Origin',(15.5,-15.5,0.));
#1811=CARTESIAN_POINT('',(17.2,-15.5,0.5));
#1812=CARTESIAN_POINT('',(17.45,-15.5,0.25));
#1813=CARTESIAN_POINT('',(13.8,-15.5,0.5));
#1814=CARTESIAN_POINT('Origin',(15.5,-15.5,0.5));
#1815=CARTESIAN_POINT('Origin',(15.5,-15.5,0.5));
#1816=CARTESIAN_POINT('Origin',(-1.7146E-12,-0.691841611453,0.));
#1817=CARTESIAN_POINT('',(-20.,18.6,0.));
#1818=CARTESIAN_POINT('',(-20.,-20.2,-4.996003610813E-16));
#1819=CARTESIAN_POINT('',(-20.,18.6,-2.22044604925E-16));
#1820=CARTESIAN_POINT('',(-18.6,20.,-2.22044604925E-16));
#1821=CARTESIAN_POINT('Origin',(-18.6,18.6,0.));
#1822=CARTESIAN_POINT('',(-12.4,20.,0.));
#1823=CARTESIAN_POINT('',(-12.4,20.,-2.22044604925E-16));
#1824=CARTESIAN_POINT('',(-11.,18.6,-2.22044604925E-16));
#1825=CARTESIAN_POINT('Origin',(-12.4,18.6,0.));
#1826=CARTESIAN_POINT('',(-10.99999999997,-2.577540687062E-5,0.));
#1827=CARTESIAN_POINT('',(-11.,-2.343218806189E-5,-2.22044604925E-16));
#1828=CARTESIAN_POINT('',(10.999999999973,-2.343213198941E-5,-2.22044604925E-16));
#1829=CARTESIAN_POINT('Origin',(0.,0.,0.));
#1830=CARTESIAN_POINT('',(10.999999999973,18.6,0.));
#1831=CARTESIAN_POINT('',(10.999999999973,18.6,-2.22044604925E-16));
#1832=CARTESIAN_POINT('',(12.399999999973,20.,-2.22044604925E-16));
#1833=CARTESIAN_POINT('Origin',(12.399999999973,18.6,0.));
#1834=CARTESIAN_POINT('',(18.6,20.,0.));
#1835=CARTESIAN_POINT('',(18.6,20.,-2.22044604925E-16));
#1836=CARTESIAN_POINT('',(20.,18.6,-2.22044604925E-16));
#1837=CARTESIAN_POINT('Origin',(18.6,18.6,0.));
#1838=CARTESIAN_POINT('',(20.,-20.2,0.));
#1839=CARTESIAN_POINT('',(20.,-21.,-2.22044604925E-16));
#1840=CARTESIAN_POINT('',(20.,-20.2,0.));
#1841=CARTESIAN_POINT('',(-13.3,-15.5,0.));
#1842=CARTESIAN_POINT('Origin',(-15.5,-15.5,0.));
#1843=CARTESIAN_POINT('',(-13.3,15.5,0.));
#1844=CARTESIAN_POINT('Origin',(-15.5,15.5,0.));
#1845=CARTESIAN_POINT('',(17.7,15.5,0.));
#1846=CARTESIAN_POINT('Origin',(15.5,15.5,0.));
#1847=CARTESIAN_POINT('Origin',(15.5,-15.5,0.));
#1848=CARTESIAN_POINT('',(13.8,-15.5,4.5));
#1849=CARTESIAN_POINT('Origin',(15.5,-15.5,4.5));
#1850=CARTESIAN_POINT('',(13.8,-15.5,0.));
#1851=CARTESIAN_POINT('Origin',(-15.5,-15.5,0.25));
#1852=CARTESIAN_POINT('',(-13.8,-15.5,0.5));
#1853=CARTESIAN_POINT('',(-13.55,-15.5,0.25));
#1854=CARTESIAN_POINT('',(-17.2,-15.5,0.5));
#1855=CARTESIAN_POINT('Origin',(-15.5,-15.5,0.5));
#1856=CARTESIAN_POINT('Origin',(-15.5,-15.5,0.5));
#1857=CARTESIAN_POINT('Origin',(-15.5,-15.5,0.));
#1858=CARTESIAN_POINT('',(-17.2,-15.5,4.5));
#1859=CARTESIAN_POINT('Origin',(-15.5,-15.5,4.5));
#1860=CARTESIAN_POINT('',(-17.2,-15.5,0.));
#1861=CARTESIAN_POINT('Origin',(15.5,15.5,0.25));
#1862=CARTESIAN_POINT('',(17.2,15.5,0.5));
#1863=CARTESIAN_POINT('',(17.45,15.5,0.25));
#1864=CARTESIAN_POINT('',(13.8,15.5,0.5));
#1865=CARTESIAN_POINT('Origin',(15.5,15.5,0.5));
#1866=CARTESIAN_POINT('Origin',(15.5,15.5,0.5));
#1867=CARTESIAN_POINT('Origin',(15.5,15.5,0.));
#1868=CARTESIAN_POINT('',(13.8,15.5,4.5));
#1869=CARTESIAN_POINT('Origin',(15.5,15.5,4.5));
#1870=CARTESIAN_POINT('',(13.8,15.5,0.));
#1871=CARTESIAN_POINT('Origin',(-15.5,15.5,0.25));
#1872=CARTESIAN_POINT('',(-13.8,15.5,0.5));
#1873=CARTESIAN_POINT('',(-13.55,15.5,0.25));
#1874=CARTESIAN_POINT('',(-17.2,15.5,0.5));
#1875=CARTESIAN_POINT('Origin',(-15.5,15.5,0.5));
#1876=CARTESIAN_POINT('Origin',(-15.5,15.5,0.5));
#1877=CARTESIAN_POINT('Origin',(-15.5,15.5,0.));
#1878=CARTESIAN_POINT('',(-17.2,15.5,4.5));
#1879=CARTESIAN_POINT('Origin',(-15.5,15.5,4.5));
#1880=CARTESIAN_POINT('',(-17.2,15.5,0.));
#1881=CARTESIAN_POINT('Origin',(-20.,-20.6,26.));
#1882=CARTESIAN_POINT('',(-20.2,-21.,26.));
#1883=CARTESIAN_POINT('',(-21.,-20.2,26.));
#1884=CARTESIAN_POINT('',(-20.6,-20.6,26.));
#1885=CARTESIAN_POINT('',(-20.,-21.,26.2));
#1886=CARTESIAN_POINT('Origin',(-20.,-21.,26.));
#1887=CARTESIAN_POINT('',(-20.,-21.,26.2));
#1888=CARTESIAN_POINT('Origin',(-20.,-20.2,26.));
#1889=CARTESIAN_POINT('Origin',(0.,-20.6,26.6));
#1890=CARTESIAN_POINT('',(20.,-21.,26.2));
#1891=CARTESIAN_POINT('',(0.,-21.,26.2));
#1892=CARTESIAN_POINT('',(20.,-21.,26.2));
#1893=CARTESIAN_POINT('Origin',(20.,-20.6,26.));
#1894=CARTESIAN_POINT('',(20.2,-21.,26.));
#1895=CARTESIAN_POINT('',(21.,-20.2,26.));
#1896=CARTESIAN_POINT('',(20.6,-20.6,26.));
#1897=CARTESIAN_POINT('Origin',(20.,-20.2,26.));
#1898=CARTESIAN_POINT('Origin',(20.,-21.,26.));
#1899=CARTESIAN_POINT('Origin',(0.,-21.,15.));
#1900=CARTESIAN_POINT('',(-20.2,-21.,1.));
#1901=CARTESIAN_POINT('',(-20.2,-21.,1.));
#1902=CARTESIAN_POINT('',(-20.,-21.,0.8));
#1903=CARTESIAN_POINT('Origin',(-20.,-21.,1.));
#1904=CARTESIAN_POINT('',(20.,-21.,0.8));
#1905=CARTESIAN_POINT('',(20.,-21.,0.8));
#1906=CARTESIAN_POINT('',(20.2,-21.,1.));
#1907=CARTESIAN_POINT('Origin',(20.,-21.,1.));
#1908=CARTESIAN_POINT('',(20.2,-21.,29.));
#1909=CARTESIAN_POINT('Origin',(-20.6,-20.6,1.));
#1910=CARTESIAN_POINT('',(-21.,-20.2,1.));
#1911=CARTESIAN_POINT('',(-21.,-20.2,1.));
#1912=CARTESIAN_POINT('',(-20.6,-20.6,1.));
#1913=CARTESIAN_POINT('Origin',(-20.,-2.6944444444445,26.));
#1914=CARTESIAN_POINT('',(-21.,10.6,26.));
#1915=CARTESIAN_POINT('Origin',(-20.,10.6,26.));
#1916=CARTESIAN_POINT('',(-21.,-2.6944444444445,26.));
#1917=CARTESIAN_POINT('Origin',(-18.6,10.6,26.));
#1918=CARTESIAN_POINT('',(-18.6,13.,26.));
#1919=CARTESIAN_POINT('Origin',(-18.6,12.,26.));
#1920=CARTESIAN_POINT('Origin',(-18.6,10.6,26.));
#1921=CARTESIAN_POINT('Origin',(10.5,12.,26.));
#1922=CARTESIAN_POINT('',(18.6,13.,26.));
#1923=CARTESIAN_POINT('Origin',(18.6,12.,26.));
#1924=CARTESIAN_POINT('',(10.5,13.,26.));
#1925=CARTESIAN_POINT('Origin',(18.6,10.6,26.));
#1926=CARTESIAN_POINT('',(21.,10.6,26.));
#1927=CARTESIAN_POINT('Origin',(20.,10.6,26.));
#1928=CARTESIAN_POINT('Origin',(18.6,10.6,26.));
#1929=CARTESIAN_POINT('Origin',(20.,-2.6944444444445,26.));
#1930=CARTESIAN_POINT('',(21.,-2.6944444444445,26.));
#1931=CARTESIAN_POINT('Origin',(-21.,-1.388888888889,13.611111111111));
#1932=CARTESIAN_POINT('',(-21.,10.6,5.));
#1933=CARTESIAN_POINT('',(-21.,10.6,5.));
#1934=CARTESIAN_POINT('',(-21.,18.6,5.));
#1935=CARTESIAN_POINT('',(-21.,0.574114663191,5.));
#1936=CARTESIAN_POINT('',(-21.,18.6,1.));
#1937=CARTESIAN_POINT('',(-21.,18.6,0.));
#1938=CARTESIAN_POINT('',(-21.,18.6,1.));
#1939=CARTESIAN_POINT('Origin',(-18.6,10.6,5.));
#1940=CARTESIAN_POINT('',(-18.6,13.,5.));
#1941=CARTESIAN_POINT('',(-18.6,13.,5.));
#1942=CARTESIAN_POINT('Origin',(-18.6,10.6,5.));
#1943=CARTESIAN_POINT('Origin',(21.,13.,5.));
#1944=CARTESIAN_POINT('',(18.6,13.,5.));
#1945=CARTESIAN_POINT('',(18.6,13.,5.));
#1946=CARTESIAN_POINT('',(18.4,13.,5.));
#1947=CARTESIAN_POINT('',(21.,13.,5.));
#1948=CARTESIAN_POINT('',(18.4,13.,20.));
#1949=CARTESIAN_POINT('',(18.4,13.,5.));
#1950=CARTESIAN_POINT('',(-18.4,13.,20.));
#1951=CARTESIAN_POINT('',(18.5,13.,20.));
#1952=CARTESIAN_POINT('',(-18.4,13.,5.));
#1953=CARTESIAN_POINT('',(-18.4,13.,23.));
#1954=CARTESIAN_POINT('',(21.,13.,5.));
#1955=CARTESIAN_POINT('Origin',(18.6,10.6,5.));
#1956=CARTESIAN_POINT('',(21.,10.6,5.));
#1957=CARTESIAN_POINT('',(21.,10.6,5.));
#1958=CARTESIAN_POINT('Origin',(18.6,10.6,5.));
#1959=CARTESIAN_POINT('Origin',(21.,-1.388888888889,13.611111111111));
#1960=CARTESIAN_POINT('',(21.,-20.2,1.));
#1961=CARTESIAN_POINT('',(21.,-20.2,29.));
#1962=CARTESIAN_POINT('',(21.,18.6,1.));
#1963=CARTESIAN_POINT('',(21.,-21.,1.));
#1964=CARTESIAN_POINT('',(21.,18.6,5.));
#1965=CARTESIAN_POINT('',(21.,18.6,0.));
#1966=CARTESIAN_POINT('',(21.,-21.,5.));
#1967=CARTESIAN_POINT('Origin',(20.6,-20.6,29.));
#1968=CARTESIAN_POINT('',(20.6,-20.6,1.));
#1969=CARTESIAN_POINT('Origin',(-15.5,-15.5,4.75));
#1970=CARTESIAN_POINT('',(-17.7,-15.5,5.));
#1971=CARTESIAN_POINT('Origin',(-15.5,-15.5,5.));
#1972=CARTESIAN_POINT('',(-17.45,-15.5,4.75));
#1973=CARTESIAN_POINT('Origin',(0.0819556740842,1.05607834235,5.));
#1974=CARTESIAN_POINT('',(-18.56499541284,-13.33937436855,5.));
#1975=CARTESIAN_POINT('',(-19.25,-15.5,5.));
#1976=CARTESIAN_POINT('Origin',(-15.5,-15.5,5.));
#1977=CARTESIAN_POINT('',(-12.04776847978,-16.96444444444,5.));
#1978=CARTESIAN_POINT('Origin',(-15.5,-15.5,5.));
#1979=CARTESIAN_POINT('',(-10.78348281317,-16.,5.));
#1980=CARTESIAN_POINT('',(-3.236818277607,-10.24312172669,5.));
#1981=CARTESIAN_POINT('',(10.78348281317,-16.,5.));
#1982=CARTESIAN_POINT('',(-16.,-16.,5.));
#1983=CARTESIAN_POINT('',(12.047768479789,-16.96444444444,5.));
#1984=CARTESIAN_POINT('',(3.288625969628,-10.28264257397,5.));
#1985=CARTESIAN_POINT('',(18.56499541284,-13.33937436855,5.));
#1986=CARTESIAN_POINT('Origin',(15.5,-15.5,5.));
#1987=CARTESIAN_POINT('',(16.,-8.78348281317,5.));
#1988=CARTESIAN_POINT('',(11.981182378239,-1.645342458632,5.));
#1989=CARTESIAN_POINT('',(16.,10.6,5.));
#1990=CARTESIAN_POINT('',(16.,-16.,5.));
#1991=CARTESIAN_POINT('Origin',(18.4,10.6,5.));
#1992=CARTESIAN_POINT('',(18.6,21.,5.));
#1993=CARTESIAN_POINT('Origin',(18.6,18.6,5.));
#1994=CARTESIAN_POINT('',(12.399999999973,21.,5.));
#1995=CARTESIAN_POINT('',(21.,21.,5.));
#1996=CARTESIAN_POINT('',(9.999999999973,18.6,5.));
#1997=CARTESIAN_POINT('Origin',(12.399999999973,18.6,5.));
#1998=CARTESIAN_POINT('',(9.999999999973,-2.3432131989E-5,5.));
#1999=CARTESIAN_POINT('',(9.999999999973,21.,5.));
#2000=CARTESIAN_POINT('',(-9.999999999986,-2.3432188063E-5,5.));
#2001=CARTESIAN_POINT('Origin',(0.,0.,5.));
#2002=CARTESIAN_POINT('',(-10.,18.6,5.));
#2003=CARTESIAN_POINT('',(-10.,21.,5.));
#2004=CARTESIAN_POINT('',(-12.4,21.,5.));
#2005=CARTESIAN_POINT('Origin',(-12.4,18.6,5.));
#2006=CARTESIAN_POINT('',(-18.6,21.,5.));
#2007=CARTESIAN_POINT('',(-21.,21.,5.));
#2008=CARTESIAN_POINT('Origin',(-18.6,18.6,5.));
#2009=CARTESIAN_POINT('',(-16.,10.6,5.));
#2010=CARTESIAN_POINT('Origin',(-18.4,10.6,5.));
#2011=CARTESIAN_POINT('',(-16.,-8.78348281317,5.));
#2012=CARTESIAN_POINT('',(-16.,-16.,5.));
#2013=CARTESIAN_POINT('',(-11.96145689806,-1.610306470618,5.));
#2014=CARTESIAN_POINT('',(13.3,-15.5,5.));
#2015=CARTESIAN_POINT('Origin',(15.5,-15.5,5.));
#2016=CARTESIAN_POINT('',(-17.7,15.5,5.));
#2017=CARTESIAN_POINT('Origin',(-15.5,15.5,5.));
#2018=CARTESIAN_POINT('',(13.3,15.5,5.));
#2019=CARTESIAN_POINT('Origin',(15.5,15.5,5.));
#2020=CARTESIAN_POINT('Origin',(15.5,-15.5,4.75));
#2021=CARTESIAN_POINT('',(13.55,-15.5,4.75));
#2022=CARTESIAN_POINT('Origin',(15.5,15.5,4.75));
#2023=CARTESIAN_POINT('',(13.55,15.5,4.75));
#2024=CARTESIAN_POINT('Origin',(-15.5,15.5,4.75));
#2025=CARTESIAN_POINT('',(-17.45,15.5,4.75));
#2026=CARTESIAN_POINT('Origin',(-20.,18.6,1.));
#2027=CARTESIAN_POINT('Origin',(-20.,-20.2,1.));
#2028=CARTESIAN_POINT('Origin',(-20.,18.6,1.));
#2029=CARTESIAN_POINT('Origin',(-18.6,18.6,0.));
#2030=CARTESIAN_POINT('',(-18.6,21.,1.));
#2031=CARTESIAN_POINT('',(-18.6,21.,0.));
#2032=CARTESIAN_POINT('Origin',(-18.6,18.6,1.));
#2033=CARTESIAN_POINT('Origin',(-20.,-20.2,1.));
#2034=CARTESIAN_POINT('',(-20.,-20.6,0.4));
#2035=CARTESIAN_POINT('Origin',(-18.6,18.6,1.));
#2036=CARTESIAN_POINT('Origin',(-18.6,20.,1.));
#2037=CARTESIAN_POINT('Origin',(-21.,21.,0.));
#2038=CARTESIAN_POINT('',(-12.4,21.,1.));
#2039=CARTESIAN_POINT('',(-12.4,21.,0.));
#2040=CARTESIAN_POINT('',(-12.4,21.,1.));
#2041=CARTESIAN_POINT('Origin',(-15.5,-15.5,5.));
#2042=CARTESIAN_POINT('',(-19.25,-15.5,5.));
#2043=CARTESIAN_POINT('',(-18.56499541284,-13.33937436855,20.));
#2044=CARTESIAN_POINT('',(-18.56499541284,-13.33937436855,23.));
#2045=CARTESIAN_POINT('',(-12.04776847978,-16.96444444444,20.));
#2046=CARTESIAN_POINT('Origin',(-15.5,-15.5,20.));
#2047=CARTESIAN_POINT('',(-12.04776847978,-16.96444444444,23.));
#2048=CARTESIAN_POINT('Origin',(-10.78348281317,-16.,23.));
#2049=CARTESIAN_POINT('',(-10.78348281317,-16.,20.));
#2050=CARTESIAN_POINT('',(-2.31798945745763,-9.54220469949277,20.));
#2051=CARTESIAN_POINT('',(-10.78348281317,-16.,23.));
#2052=CARTESIAN_POINT('Origin',(-16.,-8.78348281317,23.));
#2053=CARTESIAN_POINT('',(-16.,-8.78348281317,20.));
#2054=CARTESIAN_POINT('',(-13.6915719377572,-4.68330085482218,20.));
#2055=CARTESIAN_POINT('',(-16.,-8.78348281317,23.));
#2056=CARTESIAN_POINT('Origin',(0.,-16.,14.));
#2057=CARTESIAN_POINT('',(10.78348281317,-16.,20.));
#2058=CARTESIAN_POINT('',(8.,-16.,20.));
#2059=CARTESIAN_POINT('',(10.78348281317,-16.,23.));
#2060=CARTESIAN_POINT('Origin',(-16.,-16.,23.));
#2061=CARTESIAN_POINT('',(-16.,10.6,20.));
#2062=CARTESIAN_POINT('',(-16.,10.6,23.));
#2063=CARTESIAN_POINT('',(-16.,-16.,20.));
#2064=CARTESIAN_POINT('Origin',(10.78348281317,-16.,23.));
#2065=CARTESIAN_POINT('',(12.047768479789,-16.96444444444,20.));
#2066=CARTESIAN_POINT('',(12.4322747904163,-17.2577602550465,20.));
#2067=CARTESIAN_POINT('',(12.047768479789,-16.96444444444,23.));
#2068=CARTESIAN_POINT('Origin',(-18.4,10.6,23.));
#2069=CARTESIAN_POINT('Origin',(-18.4,10.6,20.));
#2070=CARTESIAN_POINT('Origin',(15.5,-15.5,5.));
#2071=CARTESIAN_POINT('',(11.75,-15.5,20.));
#2072=CARTESIAN_POINT('',(11.75,-15.5,5.));
#2073=CARTESIAN_POINT('',(18.56499541284,-13.33937436855,20.));
#2074=CARTESIAN_POINT('Origin',(15.5,-15.5,20.));
#2075=CARTESIAN_POINT('',(18.56499541284,-13.33937436855,23.));
#2076=CARTESIAN_POINT('Origin',(15.5,-15.5,20.));
#2077=CARTESIAN_POINT('Origin',(16.,-8.78348281317,23.));
#2078=CARTESIAN_POINT('',(16.,-8.78348281317,20.));
#2079=CARTESIAN_POINT('',(17.5425277900756,-11.5232886223982,20.));
#2080=CARTESIAN_POINT('',(16.,-8.78348281317,23.));
#2081=CARTESIAN_POINT('Origin',(16.,-16.,5.));
#2082=CARTESIAN_POINT('',(16.,10.6,20.));
#2083=CARTESIAN_POINT('',(16.,-16.,20.));
#2084=CARTESIAN_POINT('',(16.,10.6,5.));
#2085=CARTESIAN_POINT('Origin',(18.4,10.6,5.));
#2086=CARTESIAN_POINT('Origin',(18.4,10.6,20.));
#2087=CARTESIAN_POINT('Origin',(-12.4,18.6,0.));
#2088=CARTESIAN_POINT('',(-10.,18.6,1.));
#2089=CARTESIAN_POINT('',(-10.,18.6,0.));
#2090=CARTESIAN_POINT('Origin',(-12.4,18.6,1.));
#2091=CARTESIAN_POINT('Origin',(-10.,21.,0.));
#2092=CARTESIAN_POINT('',(-9.999999999973,-2.34321880642E-5,1.));
#2093=CARTESIAN_POINT('',(-9.999999999986,-2.343218806304E-5,0.));
#2094=CARTESIAN_POINT('',(-10.,-2.343218806189E-5,1.));
#2095=CARTESIAN_POINT('Origin',(0.,0.,0.));
#2096=CARTESIAN_POINT('',(9.999999999973,-2.343213198941E-5,1.));
#2097=CARTESIAN_POINT('',(9.999999999973,-2.343213198885E-5,0.));
#2098=CARTESIAN_POINT('Origin',(0.,0.,1.));
#2099=CARTESIAN_POINT('Origin',(18.6,18.6,0.));
#2100=CARTESIAN_POINT('',(18.6,21.,1.));
#2101=CARTESIAN_POINT('',(18.6,21.,0.));
#2102=CARTESIAN_POINT('Origin',(18.6,18.6,1.));
#2103=CARTESIAN_POINT('Origin',(9.999999999973,21.,0.));
#2104=CARTESIAN_POINT('',(9.999999999973,18.6,1.));
#2105=CARTESIAN_POINT('',(9.999999999973,18.6,0.));
#2106=CARTESIAN_POINT('',(9.999999999973,18.6,1.));
#2107=CARTESIAN_POINT('Origin',(21.,21.,0.));
#2108=CARTESIAN_POINT('',(12.399999999973,21.,1.));
#2109=CARTESIAN_POINT('',(18.6,21.,1.));
#2110=CARTESIAN_POINT('',(12.399999999973,21.,0.));
#2111=CARTESIAN_POINT('Origin',(12.399999999973,18.6,0.));
#2112=CARTESIAN_POINT('Origin',(12.399999999973,18.6,1.));
#2113=CARTESIAN_POINT('Origin',(20.,-20.6,0.4));
#2114=CARTESIAN_POINT('',(20.,-20.2,0.));
#2115=CARTESIAN_POINT('Origin',(20.,-21.,1.));
#2116=CARTESIAN_POINT('Origin',(20.,18.6,1.));
#2117=CARTESIAN_POINT('Origin',(20.,-20.2,1.));
#2118=CARTESIAN_POINT('Origin',(-12.4,20.,1.));
#2119=CARTESIAN_POINT('Origin',(-12.4,20.,1.));
#2120=CARTESIAN_POINT('Origin',(18.6,18.6,1.));
#2121=CARTESIAN_POINT('Origin',(18.6,20.,1.));
#2122=CARTESIAN_POINT('Origin',(-12.4,18.6,1.));
#2123=CARTESIAN_POINT('Origin',(-11.,18.6,1.));
#2124=CARTESIAN_POINT('Origin',(18.6,20.,1.));
#2125=CARTESIAN_POINT('Origin',(12.399999999973,20.,1.));
#2126=CARTESIAN_POINT('Origin',(-11.,-2.343218806189E-5,1.));
#2127=CARTESIAN_POINT('Origin',(-10.99999999997,-2.577540687062E-5,1.));
#2128=CARTESIAN_POINT('Origin',(12.399999999973,18.6,1.));
#2129=CARTESIAN_POINT('Origin',(10.999999999973,18.6,1.));
#2130=CARTESIAN_POINT('Origin',(0.,0.,1.));
#2131=CARTESIAN_POINT('Origin',(10.999999999973,-2.343213198941E-5,1.));
#2132=CARTESIAN_POINT('Origin',(10.999999999973,18.6,1.));
#2133=CARTESIAN_POINT('Origin',(20.,-20.2,1.));
#2134=CARTESIAN_POINT('Origin',(16.,-16.,20.));
#2135=UNCERTAINTY_MEASURE_WITH_UNIT(LENGTH_MEASURE(0.01),#2139,
'DISTANCE_ACCURACY_VALUE',
'Maximum model space distance between geometric entities at asserted c
onnectivities');
#2136=UNCERTAINTY_MEASURE_WITH_UNIT(LENGTH_MEASURE(0.01),#2139,
'DISTANCE_ACCURACY_VALUE',
'Maximum model space distance between geometric entities at asserted c
onnectivities');
#2137=(
GEOMETRIC_REPRESENTATION_CONTEXT(3)
GLOBAL_UNCERTAINTY_ASSIGNED_CONTEXT((#2135))
GLOBAL_UNIT_ASSIGNED_CONTEXT((#2139,#2141,#2142))
REPRESENTATION_CONTEXT('','3D')
);
#2138=(
GEOMETRIC_REPRESENTATION_CONTEXT(3)
GLOBAL_UNCERTAINTY_ASSIGNED_CONTEXT((#2136))
GLOBAL_UNIT_ASSIGNED_CONTEXT((#2139,#2141,#2142))
REPRESENTATION_CONTEXT('','3D')
);
#2139=(
LENGTH_UNIT()
NAMED_UNIT(*)
SI_UNIT(.MILLI.,.METRE.)
);
#2140=(
LENGTH_UNIT()
NAMED_UNIT(*)
SI_UNIT($,.METRE.)
);
#2141=(
NAMED_UNIT(*)
PLANE_ANGLE_UNIT()
SI_UNIT($,.RADIAN.)
);
#2142=(
NAMED_UNIT(*)
SI_UNIT($,.STERADIAN.)
SOLID_ANGLE_UNIT()
);
#2143=SHAPE_DEFINITION_REPRESENTATION(#2144,#2145);
#2144=PRODUCT_DEFINITION_SHAPE('',$,#2147);
#2145=SHAPE_REPRESENTATION('',(#1240),#2137);
#2146=PRODUCT_DEFINITION_CONTEXT('part definition',#2151,'design');
#2147=PRODUCT_DEFINITION('Coupling_box','Z-axis_mod-Coupling_box v3',#2148,
#2146);
#2148=PRODUCT_DEFINITION_FORMATION('',$,#2153);
#2149=PRODUCT_RELATED_PRODUCT_CATEGORY('Z-axis_mod-Coupling_box v3',
'Z-axis_mod-Coupling_box v3',(#2153));
#2150=APPLICATION_PROTOCOL_DEFINITION('international standard',
'automotive_design',2009,#2151);
#2151=APPLICATION_CONTEXT(
'Core Data for Automotive Mechanical Design Process');
#2152=PRODUCT_CONTEXT('part definition',#2151,'mechanical');
#2153=PRODUCT('Coupling_box','Z-axis_mod-Coupling_box v3',
'FreeCAD Model',(#2152));
#2154=PRESENTATION_STYLE_ASSIGNMENT((#2156));
#2155=PRESENTATION_STYLE_ASSIGNMENT((#2157));
#2156=SURFACE_STYLE_USAGE(.BOTH.,#2158);
#2157=SURFACE_STYLE_USAGE(.BOTH.,#2159);
#2158=SURFACE_SIDE_STYLE('',(#2160));
#2159=SURFACE_SIDE_STYLE('',(#2161));
#2160=SURFACE_STYLE_FILL_AREA(#2162);
#2161=SURFACE_STYLE_FILL_AREA(#2163);
#2162=FILL_AREA_STYLE('Steel - Satin',(#2164));
#2163=FILL_AREA_STYLE('Opaque(173,181,189)',(#2165));
#2164=FILL_AREA_STYLE_COLOUR('Steel - Satin',#2166);
#2165=FILL_AREA_STYLE_COLOUR('Opaque(173,181,189)',#2167);
#2166=COLOUR_RGB('Steel - Satin',0.627450980392157,0.627450980392157,0.627450980392157);
#2167=COLOUR_RGB('Opaque(173,181,189)',0.67843137254902,0.709803921568627,
0.741176470588235);
ENDSEC;
END-ISO-10303-21;
